<?xml version="1.0" encoding="utf-8"?>
<!-- Generator: Adobe Illustrator 16.0.0, SVG Export Plug-In . SVG Version: 6.00 Build 0)  -->
<!DOCTYPE svg PUBLIC "-//W3C//DTD SVG 1.1//EN" "http://www.w3.org/Graphics/SVG/1.1/DTD/svg11.dtd">
<svg version="1.1" id="Calque_1" xmlns="http://www.w3.org/2000/svg" xmlns:xlink="http://www.w3.org/1999/xlink" x="0px" y="0px"
	 width="1232.555px" height="506.396px" viewBox="0 -115.396 1232.555 506.396"
	 enable-background="new 0 -115.396 1232.555 506.396" xml:space="preserve">
<path fill="none" stroke="#000000" stroke-width="3" stroke-miterlimit="10" d="M89.467-31.393c0,0,207.1-22.226,359.053,39.708"/>
<polyline fill="none" stroke="#000000" stroke-width="3" stroke-miterlimit="10" points="434.053,9.904 448.672,8.686 
	443.103,-2.685 "/>
<path fill="none" stroke="#000000" stroke-width="3" stroke-miterlimit="10" d="M808.573-10.001c0,0-108.336-60.129-256.265,12.748"
	/>
<polyline fill="none" stroke="#000000" stroke-width="3" stroke-miterlimit="10" points="566.5,4.5 552.156,4.5 556.659,-7.103 "/>
<path fill="none" stroke="#000000" stroke-width="2" stroke-miterlimit="10" d="M77.98-28.896c0,0-8.711,8.923-18.945,8.33
	c-8.433-0.489-15.513-8.33-15.513-8.33s6.718-8.275,16.261-8.628C69.14-37.87,77.98-28.896,77.98-28.896z"/>
<circle fill="none" stroke="#000000" stroke-width="2" stroke-miterlimit="10" cx="60.751" cy="-29.153" r="5.614"/>
<path fill="none" stroke="#000000" stroke-width="2" stroke-miterlimit="10" d="M856.259-6.619c0,0-8.713,8.923-18.946,8.33
	c-8.434-0.489-15.513-8.33-15.513-8.33s6.718-8.275,16.261-8.628C847.418-15.594,856.259-6.619,856.259-6.619z"/>
<circle fill="none" stroke="#000000" stroke-width="2" stroke-miterlimit="10" cx="839.029" cy="-6.878" r="5.614"/>
<path fill="none" stroke="#000000" stroke-width="3" stroke-miterlimit="10" d="M365.965,160.168c0,0,52.491-19.566,109.16-98.925"
	/>
<line fill="none" stroke="#000000" stroke-width="2" stroke-miterlimit="10" x1="402.5" y1="110" x2="402.5" y2="162"/>
<polyline fill="none" stroke="#000000" stroke-width="2" stroke-miterlimit="10" points="402.19,148.796 409.5,161.487 409.5,110 
	"/>
<path fill="none" stroke="#000000" stroke-width="2" stroke-miterlimit="10" d="M355.738,168.806c0,0-8.711,8.923-18.945,8.331
	c-8.434-0.49-15.514-8.331-15.514-8.331s6.718-8.275,16.261-8.628C346.896,159.832,355.738,168.806,355.738,168.806z"/>
<circle fill="none" stroke="#000000" stroke-width="2" stroke-miterlimit="10" cx="338.509" cy="168.548" r="5.614"/>
<path fill="none" stroke="#000000" stroke-width="3" stroke-miterlimit="10" d="M361.789,183.431c0,0,152.667,60.563,320.088,0"/>
<path fill="none" stroke="#000000" stroke-width="3" stroke-miterlimit="10" d="M399.043,255.609
	c0,0,179.109-29.404,122.724-199.094"/>
<path fill="none" stroke="#000000" stroke-width="2" stroke-miterlimit="10" d="M387.76,269.049c0,0-8.711,8.924-18.946,8.33
	c-8.433-0.488-15.513-8.33-15.513-8.33s6.718-8.274,16.261-8.628C378.919,260.075,387.76,269.049,387.76,269.049z"/>
<circle fill="none" stroke="#000000" stroke-width="2" stroke-miterlimit="10" cx="370.531" cy="268.791" r="5.614"/>
<path fill="none" stroke="#000000" stroke-width="3" stroke-miterlimit="10" d="M639.064,105.797c0,0,51.71-61.002,181.343-94.281"
	/>
<path fill="none" stroke="#000000" stroke-width="3" stroke-miterlimit="10" d="M57.241,90.655c0,0,203.127-88.583,508.503,46.166"
	/>
<path fill="none" stroke="#000000" stroke-width="2" stroke-miterlimit="10" d="M612.611,53.944c0,0-8.711,8.923-18.946,8.33
	c-8.433-0.488-15.513-8.33-15.513-8.33s6.719-8.275,16.262-8.628C603.77,44.97,612.611,53.944,612.611,53.944z"/>
<circle fill="none" stroke="#000000" stroke-width="2" stroke-miterlimit="10" cx="595.382" cy="53.686" r="5.614"/>
<path fill="none" stroke="#000000" stroke-width="3" stroke-miterlimit="10" d="M625.143,54.282c0,0,129.752,8.551,183.431,55.69"/>
<path fill="none" stroke="#000000" stroke-width="2" stroke-miterlimit="10" d="M48.743,95.016c0,0-8.711,8.923-18.945,8.33
	c-8.434-0.488-15.513-8.33-15.513-8.33s6.718-8.275,16.261-8.628C39.902,86.042,48.743,95.016,48.743,95.016z"/>
<circle fill="none" stroke="#000000" stroke-width="2" stroke-miterlimit="10" cx="31.514" cy="94.758" r="5.614"/>
<path fill="none" stroke="#000000" stroke-width="3" stroke-miterlimit="10" d="M81.81-13.243c0,0,127.052,16.686,120.989,98.831"/>
<path fill="none" stroke="#000000" stroke-width="2" stroke-miterlimit="10" d="M45.959,273.225c0,0-8.711,8.924-18.946,8.332
	c-8.434-0.489-15.513-8.332-15.513-8.332s6.718-8.272,16.261-8.628C37.117,264.251,45.959,273.225,45.959,273.225z"/>
<circle fill="none" stroke="#000000" stroke-width="2" stroke-miterlimit="10" cx="28.729" cy="272.968" r="5.614"/>
<path fill="none" stroke="#000000" stroke-width="3" stroke-miterlimit="10" d="M51.179,258.249c0,0,91.425-33.133,132.962-105.114"
	/>
<path fill="none" stroke="#000000" stroke-width="2" stroke-miterlimit="10" d="M850.689,250.254c0,0-8.711,8.924-18.945,8.33
	c-8.435-0.489-15.514-8.33-15.514-8.33s6.718-8.275,16.261-8.628C841.849,241.279,850.689,250.254,850.689,250.254z"/>
<circle fill="none" stroke="#000000" stroke-width="2" stroke-miterlimit="10" cx="833.46" cy="249.996" r="5.614"/>
<path fill="none" stroke="#000000" stroke-width="2" stroke-miterlimit="10" d="M1228.689-16.366c0,0-8.71,8.923-18.945,8.331
	c-8.434-0.489-15.514-8.331-15.514-8.331s6.718-8.274,16.262-8.628C1219.849-25.34,1228.689-16.366,1228.689-16.366z"/>
<circle fill="none" stroke="#000000" stroke-width="2" stroke-miterlimit="10" cx="1211.46" cy="-16.624" r="5.614"/>
<path fill="none" stroke="#000000" stroke-width="2" stroke-miterlimit="10" d="M1177.175,110.331c0,0-8.711,8.923-18.944,8.331
	c-8.434-0.489-15.513-8.331-15.513-8.331s6.718-8.275,16.261-8.628C1168.335,101.356,1177.175,110.331,1177.175,110.331z"/>
<circle fill="none" stroke="#000000" stroke-width="2" stroke-miterlimit="10" cx="1159.946" cy="110.073" r="5.614"/>
<path fill="none" stroke="#000000" stroke-width="2" stroke-miterlimit="10" d="M1227.993,235.634c0,0-8.711,8.924-18.945,8.332
	c-8.434-0.489-15.513-8.332-15.513-8.332s6.717-8.274,16.261-8.627C1219.152,226.66,1227.993,235.634,1227.993,235.634z"/>
<circle fill="none" stroke="#000000" stroke-width="2" stroke-miterlimit="10" cx="1210.764" cy="235.377" r="5.614"/>
<path fill="none" stroke="#000000" stroke-width="3" stroke-miterlimit="10" d="M55.357,270.779c0,0,71.702-33.878,127.392-12.167"
	/>
<path fill="none" stroke="#000000" stroke-width="3" stroke-miterlimit="10" d="M399.043,280.004c0,0,67.626,25.583,143.606,3.451"
	/>
<path fill="none" stroke="#000000" stroke-width="3" stroke-miterlimit="10" d="M611.363,284.877c0,0,116.633,20.671,193.033-26.628
	"/>
<path fill="none" stroke="#000000" stroke-width="3" stroke-miterlimit="10" d="M1005.378,64.725c0,0-10.241,132.164-148.91,168.537
	"/>
<path fill="none" stroke="#000000" stroke-width="3" stroke-miterlimit="10" d="M1034.679,62.614c0,0,57.917,72.493,92.723,47.578"
	/>
<path fill="none" stroke="#000000" stroke-width="3" stroke-miterlimit="10" d="M238.932,271.65c0,0,62.508,29.759,102.677,2.755"/>
<path fill="none" stroke="#000000" stroke-width="3" stroke-miterlimit="10" d="M229.948,144.229
	c0,0,69.997,102.331,123.354,107.794"/>
<path fill="none" stroke="#000000" stroke-width="3" stroke-miterlimit="10" d="M242.414,120.393c0,0,96.095-14.596,85.621,32.331"
	/>
<path fill="none" stroke="#000000" stroke-width="3" stroke-miterlimit="10" d="M47.699,110.67c0,0,19.028,48.265,116.487,10.209"/>
<path fill="none" stroke="#000000" stroke-width="3" stroke-miterlimit="10" d="M863.365,251.267c0,0,102.315,11.856,146.188-19.803
	"/>
<path fill="none" stroke="#000000" stroke-width="3" stroke-miterlimit="10" d="M1068.927,235.494c0,0,76.126,39.47,106.335,7.818"
	/>
<path fill="none" stroke="#000000" stroke-width="3" stroke-miterlimit="10" d="M863.365,9.708c0,0,55.225,26.59,108.58,32.052"/>
<path fill="none" stroke="#000000" stroke-width="3" stroke-miterlimit="10" d="M1058.282,20.15c0,0,62.507-52.884,118.893-40.114"
	/>
<path fill="none" stroke="#000000" stroke-width="3" stroke-miterlimit="10" d="M882.362,126.753c0,0,132.242-4.44,311.002,89.057"
	/>
<path fill="none" stroke="#000000" stroke-width="3" stroke-miterlimit="10" d="M826.673,224.835c0,0-8.817-32.95-85.393-37.59"/>
<line fill="none" stroke="#000000" stroke-width="2" stroke-miterlimit="10" x1="675.5" y1="-49" x2="675.5" y2="3"/>
<polyline fill="none" stroke="#000000" stroke-width="2" stroke-miterlimit="10" points="675.539,-9.806 681.5,2.072 681.5,-49 "/>
<line fill="none" stroke="#000000" stroke-width="2" stroke-miterlimit="10" x1="259.5" y1="-49" x2="259.5" y2="3"/>
<polyline fill="none" stroke="#000000" stroke-width="2" stroke-miterlimit="10" points="259.539,-9.806 266.5,2.072 266.5,-49 "/>
<line fill="none" stroke="#000000" stroke-width="2" stroke-miterlimit="10" x1="327.5" y1="40" x2="327.5" y2="91"/>
<polyline fill="none" stroke="#000000" stroke-width="2" stroke-miterlimit="10" points="328.539,78.898 335.5,90.481 335.5,40 "/>
<line fill="none" stroke="#000000" stroke-width="2" stroke-miterlimit="10" x1="116.5" y1="97" x2="116.5" y2="148"/>
<polyline fill="none" stroke="#000000" stroke-width="2" stroke-miterlimit="10" points="116.538,136.288 123.5,148.261 123.5,97 
	"/>
<line fill="none" stroke="#000000" stroke-width="2" stroke-miterlimit="10" x1="146.5" y1="-12" x2="146.5" y2="40"/>
<polyline fill="none" stroke="#000000" stroke-width="2" stroke-miterlimit="10" points="146.539,27.142 153.5,38.967 153.5,-12 "/>
<line fill="none" stroke="#000000" stroke-width="2" stroke-miterlimit="10" x1="761.5" y1="5" x2="761.5" y2="57"/>
<polyline fill="none" stroke="#000000" stroke-width="2" stroke-miterlimit="10" points="761.538,44.343 767.5,56.37 767.5,5 "/>
<line fill="none" stroke="#000000" stroke-width="2" stroke-miterlimit="10" x1="716.5" y1="60" x2="716.5" y2="112"/>
<polyline fill="none" stroke="#000000" stroke-width="2" stroke-miterlimit="10" points="716.537,99.34 723.5,111.365 723.5,60 "/>
<line fill="none" stroke="#000000" stroke-width="2" stroke-miterlimit="10" x1="442.5" y1="213" x2="442.5" y2="265"/>
<polyline fill="none" stroke="#000000" stroke-width="2" stroke-miterlimit="10" points="442.539,252.414 448.5,264.515 448.5,213 
	"/>
<line fill="none" stroke="#000000" stroke-width="2" stroke-miterlimit="10" x1="617.5" y1="177" x2="617.5" y2="228"/>
<polyline fill="none" stroke="#000000" stroke-width="2" stroke-miterlimit="10" points="617.54,216.316 623.5,228.315 623.5,177 
	"/>
<line fill="none" stroke="#000000" stroke-width="2" stroke-miterlimit="10" x1="276.5" y1="104" x2="276.5" y2="156"/>
<polyline fill="none" stroke="#000000" stroke-width="2" stroke-miterlimit="10" points="276.539,143.27 283.5,155.222 283.5,104 
	"/>
<line fill="none" stroke="#000000" stroke-width="2" stroke-miterlimit="10" x1="293.5" y1="206" x2="293.5" y2="257"/>
<polyline fill="none" stroke="#000000" stroke-width="2" stroke-miterlimit="10" points="293.539,245.434 301.5,257.554 301.5,206 
	"/>
<line fill="none" stroke="#000000" stroke-width="2" stroke-miterlimit="10" x1="260.5" y1="264" x2="260.5" y2="316"/>
<polyline fill="none" stroke="#000000" stroke-width="2" stroke-miterlimit="10" points="260.538,303.324 267.5,315.332 267.5,264 
	"/>
<line fill="none" stroke="#000000" stroke-width="2" stroke-miterlimit="10" x1="469.5" y1="265" x2="469.5" y2="317"/>
<polyline fill="none" stroke="#000000" stroke-width="2" stroke-miterlimit="10" points="469.539,304.52 477.5,316.726 477.5,265 
	"/>
<line fill="none" stroke="#000000" stroke-width="2" stroke-miterlimit="10" x1="719.5" y1="256" x2="719.5" y2="308"/>
<polyline fill="none" stroke="#000000" stroke-width="2" stroke-miterlimit="10" points="719.538,295.495 727.5,307.675 727.5,256 
	"/>
<line fill="none" stroke="#000000" stroke-width="2" stroke-miterlimit="10" x1="786.5" y1="177" x2="786.5" y2="228"/>
<polyline fill="none" stroke="#000000" stroke-width="2" stroke-miterlimit="10" points="786.54,216.316 794.5,228.315 794.5,177 
	"/>
<line fill="none" stroke="#000000" stroke-width="2" stroke-miterlimit="10" x1="907.5" y1="177" x2="907.5" y2="229"/>
<polyline fill="none" stroke="#000000" stroke-width="2" stroke-miterlimit="10" points="907.539,216.663 915.5,229.012 915.5,177 
	"/>
<line fill="none" stroke="#000000" stroke-width="2" stroke-miterlimit="10" x1="966.5" y1="225" x2="966.5" y2="276"/>
<polyline fill="none" stroke="#000000" stroke-width="2" stroke-miterlimit="10" points="966.538,263.984 974.5,275.652 974.5,225 
	"/>
<line fill="none" stroke="#000000" stroke-width="2" stroke-miterlimit="10" x1="1143.5" y1="236" x2="1143.5" y2="287"/>
<polyline fill="none" stroke="#000000" stroke-width="2" stroke-miterlimit="10" points="1143.538,275.055 1150.5,286.791 
	1150.5,236 "/>
<line fill="none" stroke="#000000" stroke-width="2" stroke-miterlimit="10" x1="1097.5" y1="158" x2="1097.5" y2="210"/>
<polyline fill="none" stroke="#000000" stroke-width="2" stroke-miterlimit="10" points="1097.539,197.418 1104.5,209.521 
	1104.5,158 "/>
<line fill="none" stroke="#000000" stroke-width="2" stroke-miterlimit="10" x1="1056.5" y1="72" x2="1056.5" y2="123"/>
<polyline fill="none" stroke="#000000" stroke-width="2" stroke-miterlimit="10" points="1056.537,111.258 1064.5,123.199 
	1064.5,72 "/>
<line fill="none" stroke="#000000" stroke-width="2" stroke-miterlimit="10" x1="1113.5" y1="-33" x2="1113.5" y2="19"/>
<polyline fill="none" stroke="#000000" stroke-width="2" stroke-miterlimit="10" points="1113.539,6.547 1120.5,18.779 1120.5,-33 
	"/>
<line fill="none" stroke="#000000" stroke-width="2" stroke-miterlimit="10" x1="918.5" y1="14" x2="918.5" y2="64"/>
<polyline fill="none" stroke="#000000" stroke-width="2" stroke-miterlimit="10" points="918.539,53.019 925.5,64.725 925.5,14 "/>
<line fill="none" stroke="#000000" stroke-width="2" stroke-miterlimit="10" x1="143.5" y1="237" x2="143.5" y2="289"/>
<polyline fill="none" stroke="#000000" stroke-width="2" stroke-miterlimit="10" points="143.539,276.25 148.5,288.184 148.5,237 
	"/>
<line fill="none" stroke="#000000" stroke-width="2" stroke-miterlimit="10" x1="86.5" y1="202" x2="86.5" y2="253"/>
<polyline fill="none" stroke="#000000" stroke-width="2" stroke-miterlimit="10" points="85.539,240.997 92.5,252.68 92.5,202 "/>
<polyline fill="none" stroke="#000000" stroke-width="3" stroke-miterlimit="10" points="961.954,47.669 971.925,42.1 
	963.115,33.398 "/>
<polyline fill="none" stroke="#000000" stroke-width="3" stroke-miterlimit="10" points="1005.09,245.045 1009.554,232.5 
	996.5,232.5 "/>
<polyline fill="none" stroke="#000000" stroke-width="3" stroke-miterlimit="10" points="1075.854,248.155 1068.927,235.494 
	1082.78,233.262 "/>
<polyline fill="none" stroke="#000000" stroke-width="3" stroke-miterlimit="10" points="894.545,119.371 882.275,126.729 
	891.761,135.034 "/>
<polyline fill="none" stroke="#000000" stroke-width="3" stroke-miterlimit="10" points="1012.018,76.036 1005.492,64.773 
	996.181,74.993 "/>
<polyline fill="none" stroke="#000000" stroke-width="3" stroke-miterlimit="10" points="1048.043,64.493 1034.729,62.685 
	1035.514,75.63 "/>
<polyline fill="none" stroke="#000000" stroke-width="3" stroke-miterlimit="10" points="1063.357,8.338 1058.397,20.221 
	1071.363,22.26 "/>
<polyline fill="none" stroke="#000000" stroke-width="3" stroke-miterlimit="10" points="805.439,96.572 808.486,110.022 
	793.433,109.276 "/>
<polyline fill="none" stroke="#000000" stroke-width="3" stroke-miterlimit="10" points="474.894,77.488 474.777,61.243 
	458.187,66.583 "/>
<polyline fill="none" stroke="#000000" stroke-width="3" stroke-miterlimit="10" points="535.341,69.158 521.68,56.42 
	518.634,75.63 "/>
<polyline fill="none" stroke="#000000" stroke-width="3" stroke-miterlimit="10" points="559.589,123.2 565.744,136.82 
	550.077,137.123 "/>
<polyline fill="none" stroke="#000000" stroke-width="3" stroke-miterlimit="10" points="195.453,76.211 202.798,85.587 
	210.42,76.036 "/>
<polyline fill="none" stroke="#000000" stroke-width="3" stroke-miterlimit="10" points="253.986,113.802 242.414,120.393 
	253.059,127.724 "/>
<polyline fill="none" stroke="#000000" stroke-width="3" stroke-miterlimit="10" points="243.312,146.839 229.948,144.229 
	229.622,157.31 "/>
<polyline fill="none" stroke="#000000" stroke-width="3" stroke-miterlimit="10" points="171.495,157.889 184.142,153.135 
	185.881,166.244 "/>
<polyline fill="none" stroke="#000000" stroke-width="3" stroke-miterlimit="10" points="150.495,117.63 164.186,120.879 
	155.831,133.41 "/>
<polyline fill="none" stroke="#000000" stroke-width="3" stroke-miterlimit="10" points="252.362,268.46 238.932,271.65 
	245.633,283.542 "/>
<polyline fill="none" stroke="#000000" stroke-width="3" stroke-miterlimit="10" points="174.627,247.112 182.749,258.612 
	169.058,262.891 "/>
<polyline fill="none" stroke="#000000" stroke-width="3" stroke-miterlimit="10" points="643.415,90.655 639.325,105.845 
	653.856,104.23 "/>
<polyline fill="none" stroke="#000000" stroke-width="3" stroke-miterlimit="10" points="666.213,179.47 681.877,183.431 
	671.319,195.83 "/>
<polyline fill="none" stroke="#000000" stroke-width="3" stroke-miterlimit="10" points="753.229,179.935 741.28,187.245 
	751.491,196.643 "/>
<polyline fill="none" stroke="#000000" stroke-width="3" stroke-miterlimit="10" points="528.03,277.045 542.649,283.455 
	531.164,297.93 "/>
<polyline fill="none" stroke="#000000" stroke-width="3" stroke-miterlimit="10" points="623.749,277.393 611.48,284.752 
	622.01,294.101 "/>
<path fill="none" stroke="#000000" stroke-width="3" stroke-miterlimit="10" d="M972.902,12.332
	c133.859,14.838,42.897-41.433,37.208,43.032"/>
<path fill="none" stroke="#000000" stroke-width="2" stroke-miterlimit="10" d="M815.054,90.145
	c133.86,14.838,42.899-41.433,37.209,43.032"/>
<path fill="none" stroke="#000000" stroke-width="2" stroke-miterlimit="10" d="M464.749,10.645
	c133.86,14.839,42.898-41.432,37.209,43.032"/>
<path fill="none" stroke="#000000" stroke-width="2" stroke-miterlimit="10" d="M166.605,105.713
	c133.859,14.839,42.898-41.432,37.209,43.032"/>
<path fill="none" stroke="#000000" stroke-width="2" stroke-miterlimit="10" d="M557.658,110.354
	c133.859,14.838,42.897-41.432,37.209,43.032"/>
<path fill="none" stroke="#000000" stroke-width="2" stroke-miterlimit="10" d="M671.549,160.824
	c133.859,14.839,42.897-41.433,37.208,43.032"/>
<path fill="none" stroke="#000000" stroke-width="2" stroke-miterlimit="10" d="M1001.532,205.726
	c133.86,14.838,42.898-41.433,37.208,43.031"/>
<path fill="none" stroke="#000000" stroke-width="2" stroke-miterlimit="10" d="M535.905,261.415
	c133.858,14.839,42.897-41.433,37.208,43.032"/>
<path fill="none" stroke="#000000" stroke-width="2" stroke-miterlimit="10" d="M178.688,234.962
	c133.859,14.838,42.897-41.433,37.208,43.031"/>
</svg>
