<?xml version="1.0" encoding="utf-8"?>
<!-- Generator: Adobe Illustrator 16.0.0, SVG Export Plug-In . SVG Version: 6.00 Build 0)  -->
<!DOCTYPE svg PUBLIC "-//W3C//DTD SVG 1.1//EN" "http://www.w3.org/Graphics/SVG/1.1/DTD/svg11.dtd">
<svg version="1.1" id="Calque_1" xmlns="http://www.w3.org/2000/svg" xmlns:xlink="http://www.w3.org/1999/xlink" x="0px" y="0px"
	 width="1232.555px" height="506.396px" viewBox="0 -115.396 1232.555 506.396"
	 enable-background="new 0 -115.396 1232.555 506.396" xml:space="preserve">
<path fill="none" stroke="#000000" stroke-width="2" stroke-miterlimit="10" d="M343.35,131.972
	c0,82.394-66.788,149.186-149.185,149.186c-82.395,0-149.183-66.792-149.183-149.186c0-82.416,66.788-149.182,149.183-149.182
	C276.562-17.209,343.35,49.556,343.35,131.972z"/>
<path fill="none" stroke="#000000" stroke-width="3" stroke-miterlimit="10" d="M85.4,191.127c0,0-8.517,8.727-18.522,8.146
	c-8.248-0.478-15.17-8.146-15.17-8.146s6.569-8.09,15.899-8.438C76.757,182.351,85.4,191.127,85.4,191.127z"/>
<circle fill="none" stroke="#000000" stroke-width="3" stroke-miterlimit="10" cx="68.553" cy="190.876" r="5.49"/>
<path fill="none" stroke="#000000" stroke-width="3" stroke-miterlimit="10" d="M239.921,167.983c0,0-8.519,8.726-18.526,8.149
	c-8.247-0.477-15.169-8.149-15.169-8.149s6.569-8.088,15.902-8.433C231.274,159.208,239.921,167.983,239.921,167.983z"/>
<circle fill="none" stroke="#000000" stroke-width="3" stroke-miterlimit="10" cx="223.073" cy="167.732" r="5.489"/>
<path fill="none" stroke="#000000" stroke-width="2" stroke-miterlimit="10" d="M787.163,131.972
	c0,82.394-66.784,149.186-149.183,149.186c-82.394,0-149.183-66.792-149.183-149.186c0-82.416,66.789-149.182,149.183-149.182
	C720.379-17.209,787.163,49.556,787.163,131.972z"/>
<path fill="none" stroke="#000000" stroke-width="3" stroke-miterlimit="10" d="M566.655,159.815c0,0-8.518,8.729-18.524,8.146
	c-8.248-0.477-15.17-8.146-15.17-8.146s6.568-8.091,15.9-8.434C558.011,151.041,566.655,159.815,566.655,159.815z"/>
<circle fill="none" stroke="#000000" stroke-width="3" stroke-miterlimit="10" cx="549.807" cy="159.564" r="5.491"/>
<path fill="none" stroke="#000000" stroke-width="3" stroke-miterlimit="10" d="M633.361,204.742c0,0-8.515,8.727-18.52,8.147
	c-8.249-0.478-15.173-8.147-15.173-8.147s6.571-8.09,15.9-8.438C624.718,195.967,633.361,204.742,633.361,204.742z"/>
<circle fill="none" stroke="#000000" stroke-width="3" stroke-miterlimit="10" cx="616.516" cy="204.489" r="5.488"/>
<path fill="none" stroke="#000000" stroke-width="3" stroke-miterlimit="10" d="M37.072,210.188c0,0-8.518,8.724-18.525,8.146
	c-8.247-0.479-15.169-8.146-15.169-8.146s6.569-8.093,15.9-8.438C28.427,201.413,37.072,210.188,37.072,210.188z"/>
<circle fill="none" stroke="#000000" stroke-width="3" stroke-miterlimit="10" cx="20.224" cy="209.935" r="5.49"/>
<path fill="none" stroke="#000000" stroke-width="3" stroke-miterlimit="10" d="M325.437,208.13c0,0-8.519,8.726-18.525,8.144
	c-8.248-0.479-15.17-8.144-15.17-8.144s6.569-8.095,15.901-8.438C316.791,199.353,325.437,208.13,325.437,208.13z"/>
<path fill="none" stroke="#000000" stroke-width="3" stroke-miterlimit="10" d="M314.078,207.876c0,3.035-2.457,5.49-5.489,5.49
	s-5.49-2.455-5.49-5.49c0-3.034,2.458-5.488,5.49-5.488S314.078,204.842,314.078,207.876z"/>
<path fill="none" stroke="#000000" stroke-width="3" stroke-miterlimit="10" d="M347.471,50.224c0,0-8.518,8.725-18.525,8.145
	c-8.246-0.477-15.169-8.145-15.169-8.145s6.567-8.091,15.899-8.436C338.826,41.448,347.471,50.224,347.471,50.224z"/>
<circle fill="none" stroke="#000000" stroke-width="3" stroke-miterlimit="10" cx="330.624" cy="49.973" r="5.49"/>
<path fill="none" stroke="#000000" stroke-width="3" stroke-miterlimit="10" d="M73.829,17.551c0,0-8.517,8.725-18.522,8.144
	c-8.249-0.477-15.172-8.144-15.172-8.144s6.57-8.092,15.9-8.438C65.185,8.775,73.829,17.551,73.829,17.551z"/>
<circle fill="none" stroke="#000000" stroke-width="3" stroke-miterlimit="10" cx="56.983" cy="17.299" r="5.49"/>
<path fill="none" stroke="#000000" stroke-width="3" stroke-miterlimit="10" d="M360.664,237.714c0,0-8.517,8.724-18.525,8.147
	c-8.248-0.48-15.168-8.147-15.168-8.147s6.568-8.094,15.901-8.439C352.019,228.937,360.664,237.714,360.664,237.714z"/>
<circle fill="none" stroke="#000000" stroke-width="3" stroke-miterlimit="10" cx="343.817" cy="237.46" r="5.49"/>
<path fill="none" stroke="#000000" stroke-width="3" stroke-miterlimit="10" d="M616.88,44.927c0,0-8.521,8.727-18.529,8.146
	c-8.245-0.477-15.168-8.146-15.168-8.146s6.57-8.09,15.899-8.435C608.229,36.153,616.88,44.927,616.88,44.927z"/>
<path fill="none" stroke="#000000" stroke-width="3" stroke-miterlimit="10" d="M605.521,44.677c0,3.032-2.462,5.489-5.489,5.489
	c-3.033,0-5.489-2.457-5.489-5.489c0-3.032,2.456-5.492,5.489-5.492C603.059,39.185,605.521,41.645,605.521,44.677z"/>
<path fill="none" stroke="#000000" stroke-width="3" stroke-miterlimit="10" d="M687.819,22.996c0,0-8.519,8.727-18.521,8.146
	c-8.253-0.478-15.175-8.146-15.175-8.146s6.57-8.091,15.901-8.438C679.175,14.22,687.819,22.996,687.819,22.996z"/>
<path fill="none" stroke="#000000" stroke-width="3" stroke-miterlimit="10" d="M676.463,22.744c0,3.032-2.461,5.489-5.493,5.489
	c-3.029,0-5.485-2.457-5.485-5.489c0-3.033,2.456-5.491,5.485-5.491C674.002,17.253,676.463,19.711,676.463,22.744z"/>
<path fill="none" stroke="#000000" stroke-width="3" stroke-miterlimit="10" d="M733.844,78.896c0,0-8.52,8.727-18.527,8.146
	c-8.247-0.478-15.169-8.146-15.169-8.146s6.566-8.09,15.901-8.437C725.196,70.12,733.844,78.896,733.844,78.896z"/>
<circle fill="none" stroke="#000000" stroke-width="3" stroke-miterlimit="10" cx="716.992" cy="78.646" r="5.49"/>
<path fill="none" stroke="#000000" stroke-width="3" stroke-miterlimit="10" d="M638.279,146.467c0,0-8.521,8.726-18.523,8.148
	c-8.247-0.479-15.172-8.148-15.172-8.148s6.566-8.088,15.9-8.436C629.635,137.693,638.279,146.467,638.279,146.467z"/>
<path fill="none" stroke="#000000" stroke-width="3" stroke-miterlimit="10" d="M626.922,146.217c0,3.03-2.456,5.488-5.49,5.488
	c-3.031,0-5.489-2.458-5.489-5.488c0-3.035,2.458-5.492,5.489-5.492C624.466,140.725,626.922,143.183,626.922,146.217z"/>
<path fill="none" stroke="#000000" stroke-width="3" stroke-miterlimit="10" d="M687.819,232.649c0,0-8.519,8.728-18.521,8.147
	c-8.253-0.479-15.175-8.147-15.175-8.147s6.57-8.089,15.901-8.436C679.175,223.878,687.819,232.649,687.819,232.649z"/>
<path fill="none" stroke="#000000" stroke-width="3" stroke-miterlimit="10" d="M676.463,232.396c0,3.031-2.461,5.493-5.493,5.493
	c-3.029,0-5.485-2.462-5.485-5.493c0-3.03,2.456-5.486,5.485-5.486C674.002,226.91,676.463,229.366,676.463,232.396z"/>
<path fill="none" stroke="#000000" stroke-width="3" stroke-miterlimit="10" d="M706.196,172.25c0,0-8.517,8.726-18.521,8.146
	c-8.249-0.479-15.17-8.146-15.17-8.146s6.568-8.092,15.896-8.437C697.554,163.472,706.196,172.25,706.196,172.25z"/>
<path fill="none" stroke="#000000" stroke-width="3" stroke-miterlimit="10" d="M694.84,171.997c0,3.035-2.46,5.489-5.49,5.489
	c-3.029,0-5.486-2.454-5.486-5.489c0-3.031,2.457-5.487,5.486-5.487C692.38,166.51,694.84,168.965,694.84,171.997z"/>
<path fill="none" stroke="#000000" stroke-width="3" stroke-miterlimit="10" d="M557.808,200.658c0,0-8.52,8.726-18.525,8.146
	c-8.248-0.479-15.171-8.146-15.171-8.146s6.569-8.092,15.901-8.437C549.16,191.883,557.808,200.658,557.808,200.658z"/>
<path fill="none" stroke="#000000" stroke-width="3" stroke-miterlimit="10" d="M546.447,200.408c0,3.03-2.457,5.486-5.487,5.486
	c-3.033,0-5.49-2.456-5.49-5.486c0-3.033,2.457-5.493,5.49-5.493C543.99,194.915,546.447,197.375,546.447,200.408z"/>
<path fill="none" stroke="#000000" stroke-width="3" stroke-miterlimit="10" d="M178.657,274.854c0,0-8.518,8.728-18.523,8.146
	c-8.248-0.479-15.171-8.146-15.171-8.146s6.57-8.09,15.902-8.439C170.013,266.077,178.657,274.854,178.657,274.854z"/>
<circle fill="none" stroke="#000000" stroke-width="3" stroke-miterlimit="10" cx="161.81" cy="274.603" r="5.489"/>
<path fill="none" stroke="#000000" stroke-width="3" stroke-miterlimit="10" d="M124.201,319.1c0,0-8.518,8.725-18.524,8.146
	c-8.247-0.478-15.169-8.146-15.169-8.146s6.568-8.093,15.899-8.438C115.556,310.326,124.201,319.1,124.201,319.1z"/>
<circle fill="none" stroke="#000000" stroke-width="3" stroke-miterlimit="10" cx="107.355" cy="318.85" r="5.49"/>
<path fill="none" stroke="#000000" stroke-width="3" stroke-miterlimit="10" d="M166.717,139.793
	c-7.853-51.038,8.112-42.873,8.466-32.284c0.349,10.47-11.404,4.82-6.349,1.882"/>
<line fill="none" stroke="#000000" stroke-width="3" stroke-miterlimit="10" x1="211" y1="98" x2="211" y2="139"/>
<polyline fill="none" stroke="#000000" stroke-width="3" stroke-miterlimit="10" points="211.538,125.88 219,137.685 219,98 "/>
<path fill="none" stroke="#000000" stroke-width="2" stroke-miterlimit="10" d="M1228.258,131.972
	c0,82.394-66.789,149.186-149.182,149.186c-82.399,0-149.185-66.792-149.185-149.186c0-82.416,66.785-149.182,149.185-149.182
	C1161.469-17.209,1228.258,49.556,1228.258,131.972z"/>
<path fill="none" stroke="#000000" stroke-width="3" stroke-miterlimit="10" d="M1047.35,177.466c0,0-8.521,8.726-18.528,8.145
	c-8.246-0.478-15.168-8.145-15.168-8.145s6.57-8.093,15.903-8.439C1038.703,168.689,1047.35,177.466,1047.35,177.466z"/>
<circle fill="none" stroke="#000000" stroke-width="3" stroke-miterlimit="10" cx="1030.5" cy="177.215" r="5.49"/>
<path fill="none" stroke="#000000" stroke-width="3" stroke-miterlimit="10" d="M1047.328,34.436c0,0-8.522,8.726-18.527,8.144
	c-8.248-0.477-15.171-8.144-15.171-8.144s6.569-8.091,15.903-8.437C1038.678,25.659,1047.328,34.436,1047.328,34.436z"/>
<path fill="none" stroke="#000000" stroke-width="3" stroke-miterlimit="10" d="M1035.967,34.184c0,3.032-2.455,5.489-5.488,5.489
	c-3.032,0-5.49-2.458-5.49-5.489c0-3.035,2.458-5.491,5.49-5.491C1033.512,28.693,1035.967,31.148,1035.967,34.184z"/>
<path fill="none" stroke="#000000" stroke-width="3" stroke-miterlimit="10" d="M1097.697,20.954c0,0-8.516,8.726-18.523,8.146
	c-8.249-0.479-15.173-8.146-15.173-8.146s6.571-8.091,15.901-8.438C1089.053,12.179,1097.697,20.954,1097.697,20.954z"/>
<circle fill="none" stroke="#000000" stroke-width="3" stroke-miterlimit="10" cx="1080.849" cy="20.701" r="5.489"/>
<path fill="none" stroke="#000000" stroke-width="3" stroke-miterlimit="10" d="M1143.653,34.069c0,0-8.52,8.725-18.524,8.145
	c-8.248-0.479-15.17-8.145-15.17-8.145s6.564-8.092,15.9-8.438C1135.007,25.293,1143.653,34.069,1143.653,34.069z"/>
<path fill="none" stroke="#000000" stroke-width="3" stroke-miterlimit="10" d="M1132.294,33.816c0,3.034-2.454,5.49-5.488,5.49
	c-3.03,0-5.486-2.456-5.486-5.49c0-3.032,2.456-5.49,5.486-5.49C1129.84,28.327,1132.294,30.784,1132.294,33.816z"/>
<path fill="none" stroke="#000000" stroke-width="3" stroke-miterlimit="10" d="M1047.613,211.636c0,0-8.516,8.725-18.522,8.143
	c-8.251-0.476-15.171-8.143-15.171-8.143s6.57-8.095,15.898-8.441C1038.967,202.857,1047.613,211.636,1047.613,211.636z"/>
<circle fill="none" stroke="#000000" stroke-width="3" stroke-miterlimit="10" cx="1030.765" cy="211.381" r="5.49"/>
<rect x="929" y="-16.5" fill="none" stroke="#000000" stroke-width="5" stroke-miterlimit="10" width="300" height="300"/>
<path fill="none" stroke="#000000" stroke-width="3" stroke-miterlimit="10" d="M1097.857,177.466c0,0-8.52,8.726-18.526,8.145
	c-8.247-0.478-15.168-8.145-15.168-8.145s6.567-8.093,15.902-8.439C1089.213,168.689,1097.857,177.466,1097.857,177.466z"/>
<circle fill="none" stroke="#000000" stroke-width="3" stroke-miterlimit="10" cx="1081.01" cy="177.215" r="5.49"/>
<path fill="none" stroke="#000000" stroke-width="3" stroke-miterlimit="10" d="M1098.123,211.636c0,0-8.516,8.725-18.521,8.143
	c-8.252-0.476-15.174-8.143-15.174-8.143s6.573-8.095,15.9-8.441C1089.478,202.857,1098.123,211.636,1098.123,211.636z"/>
<circle fill="none" stroke="#000000" stroke-width="3" stroke-miterlimit="10" cx="1081.274" cy="211.381" r="5.488"/>
<path fill="none" stroke="#000000" stroke-width="3" stroke-miterlimit="10" d="M1143.186,177.466c0,0-8.521,8.726-18.526,8.145
	c-8.246-0.478-15.169-8.145-15.169-8.145s6.568-8.093,15.904-8.439C1134.543,168.689,1143.186,177.466,1143.186,177.466z"/>
<path fill="none" stroke="#000000" stroke-width="3" stroke-miterlimit="10" d="M1131.827,177.215c0,3.029-2.456,5.49-5.491,5.49
	c-3.029,0-5.488-2.46-5.488-5.49c0-3.034,2.459-5.491,5.488-5.491C1129.371,171.724,1131.827,174.181,1131.827,177.215z"/>
<path fill="none" stroke="#000000" stroke-width="3" stroke-miterlimit="10" d="M1143.45,211.636c0,0-8.515,8.725-18.521,8.143
	c-8.25-0.476-15.171-8.143-15.171-8.143s6.569-8.095,15.896-8.441C1134.803,202.857,1143.45,211.636,1143.45,211.636z"/>
<path fill="none" stroke="#000000" stroke-width="3" stroke-miterlimit="10" d="M1132.093,211.381c0,3.033-2.456,5.489-5.491,5.489
	c-3.029,0-5.488-2.456-5.488-5.489s2.459-5.489,5.488-5.489C1129.637,205.892,1132.093,208.348,1132.093,211.381z"/>
<line fill="none" stroke="#000000" stroke-width="2" stroke-miterlimit="10" x1="813.235" y1="132.757" x2="908.717" y2="132.757"/>
<polyline fill="none" stroke="#000000" stroke-width="2" stroke-miterlimit="10" points="897.202,139.082 908.717,132.757 
	897.202,126.432 "/>
<line fill="none" stroke="#000000" stroke-width="2" stroke-miterlimit="10" x1="371.705" y1="131.974" x2="467.186" y2="131.974"/>
<polyline fill="none" stroke="#000000" stroke-width="2" stroke-miterlimit="10" points="455.67,138.299 467.186,131.974 
	455.67,125.65 "/>
<path fill="none" stroke="#000000" stroke-width="3" stroke-miterlimit="10" d="M617.725,111.362
	c-7.852-51.037,8.113-42.874,8.466-32.284c0.349,10.469-11.403,4.821-6.35,1.882"/>
<line fill="none" stroke="#000000" stroke-width="3" stroke-miterlimit="10" x1="662" y1="69" x2="662" y2="111"/>
<polyline fill="none" stroke="#000000" stroke-width="3" stroke-miterlimit="10" points="662.537,97.164 671,109.256 671,69 "/>
<path fill="none" stroke="#000000" stroke-width="3" stroke-miterlimit="10" d="M1051.934,98.44
	c-7.853-51.038,8.113-42.874,8.467-32.284c0.348,10.469-11.406,4.82-6.352,1.881"/>
<line fill="none" stroke="#000000" stroke-width="3" stroke-miterlimit="10" x1="1098" y1="58" x2="1098" y2="98"/>
<polyline fill="none" stroke="#000000" stroke-width="3" stroke-miterlimit="10" points="1098.54,85.202 1103,96.332 1103,58 "/>
</svg>
