<?xml version="1.0" encoding="utf-8"?>
<!-- Generator: Adobe Illustrator 16.0.0, SVG Export Plug-In . SVG Version: 6.00 Build 0)  -->
<!DOCTYPE svg PUBLIC "-//W3C//DTD SVG 1.1//EN" "http://www.w3.org/Graphics/SVG/1.1/DTD/svg11.dtd">
<svg version="1.1" id="Calque_1" xmlns="http://www.w3.org/2000/svg" xmlns:xlink="http://www.w3.org/1999/xlink" x="0px" y="0px"
	 width="1232.555px" height="506.396px" viewBox="0 -115.396 1232.555 506.396"
	 enable-background="new 0 -115.396 1232.555 506.396" xml:space="preserve">
<line fill="none" stroke="#000000" stroke-width="3" stroke-miterlimit="10" x1="11.126" y1="59.292" x2="1224.346" y2="59.292"/>
<line fill="none" stroke="#000000" stroke-width="3" stroke-miterlimit="10" x1="628.314" y1="59.292" x2="628.314" y2="9.051"/>
<polyline fill="none" stroke="#000000" stroke-width="5" stroke-miterlimit="10" points="25.126,184.556 25.126,205.453 
	676.362,205.453 676.362,184.556 "/>
<polyline fill="none" stroke="#000000" stroke-width="5" stroke-miterlimit="10" points="23.335,317.679 23.335,338.576 
	1214.555,338.576 1214.555,317.679 "/>
<line fill="none" stroke="#000000" stroke-width="2" stroke-miterlimit="10" x1="312.436" y1="-13.993" x2="312.436" y2="44.333"/>
<line fill="none" stroke="#000000" stroke-width="2" stroke-miterlimit="10" x1="298.771" y1="44.333" x2="326.1" y2="44.333"/>
<line fill="none" stroke="#000000" stroke-width="2" stroke-miterlimit="10" x1="298.771" y1="-13.993" x2="326.1" y2="-13.993"/>
<path fill="none" stroke="#000000" stroke-width="2" stroke-miterlimit="10" d="M948.969-9.232
	c-46.775-19.887-41.148,74.957,0,51.938"/>
<path fill="none" stroke="#000000" stroke-width="2" stroke-miterlimit="10" d="M625.889,304.199
	c-27.194,37.757,68.824,30.738,14.187-20.152c-71.975-67.037,48.942-63.372,16.164-23.309"/>
<path fill="none" stroke="#000000" stroke-width="2" stroke-miterlimit="10" d="M272.074,129.682
	c203.976,22.611,65.368-63.134,56.698,65.572"/>
</svg>
