<?xml version="1.0" encoding="utf-8"?>
<!-- Generator: Adobe Illustrator 16.0.0, SVG Export Plug-In . SVG Version: 6.00 Build 0)  -->
<!DOCTYPE svg PUBLIC "-//W3C//DTD SVG 1.1//EN" "http://www.w3.org/Graphics/SVG/1.1/DTD/svg11.dtd">
<svg version="1.1" id="Calque_1" xmlns="http://www.w3.org/2000/svg" xmlns:xlink="http://www.w3.org/1999/xlink" x="0px" y="0px"
	 width="1232.555px" height="506.396px" viewBox="0 -115.396 1232.555 506.396"
	 enable-background="new 0 -115.396 1232.555 506.396" xml:space="preserve">
<path opacity="0.8" fill="none" stroke="#000000" stroke-width="1.5" stroke-miterlimit="10" d="M246.585,139.866
	c0,0-6.204,6.354-13.491,5.932c-6.006-0.348-11.047-5.932-11.047-5.932s4.784-5.893,11.58-6.145
	C240.29,133.475,246.585,139.866,246.585,139.866z"/>
<circle opacity="0.8" fill="none" stroke="#000000" stroke-width="1.5" stroke-miterlimit="10" cx="234.316" cy="139.683" r="3.998"/>
<polyline fill="none" stroke="#000000" stroke-width="2" stroke-miterlimit="10" points="779.5,130 779.5,0 833.5,0 833.5,-53 
	884.5,-53 884.5,-107 941.5,-107 941.5,131 "/>
<path opacity="0.7" fill="none" stroke="#000000" stroke-miterlimit="10" d="M234.403,234.088
	C612.266,340.203,813,131.184,813,131.184V111"/>
<path opacity="0.7" fill="none" stroke="#000000" stroke-miterlimit="10" d="M448.591,283.662
	C708.723,327.965,836,131.184,836,131.184V111"/>
<path opacity="0.7" fill="none" stroke="#000000" stroke-miterlimit="10" d="M1053.873,315.062
	c-199.898-38.591-192.594-184.745-192.594-184.745l0.002-18.962"/>
<path opacity="0.7" fill="none" stroke="#000000" stroke-miterlimit="10" d="M1006.57,227.141
	C901.819,186.023,882,129.945,882,129.945V111"/>
<path opacity="0.7" fill="none" stroke="#000000" stroke-miterlimit="10" d="M628.485,189.475
	C701.978,188.023,790,134.324,790,134.324V111"/>
<polyline opacity="0.7" fill="none" stroke="#000000" stroke-miterlimit="10" points="786.897,116.056 790.377,110.355 
	793.849,116.056 "/>
<polyline opacity="0.7" fill="none" stroke="#000000" stroke-miterlimit="10" points="809.701,116.056 813.182,110.355 
	816.651,116.056 "/>
<polyline opacity="0.7" fill="none" stroke="#000000" stroke-miterlimit="10" points="832.504,116.056 835.985,110.355 
	839.455,116.056 "/>
<polyline opacity="0.7" fill="none" stroke="#000000" stroke-miterlimit="10" points="857.804,116.056 861.284,110.355 
	864.754,116.056 "/>
<polyline opacity="0.7" fill="none" stroke="#000000" stroke-miterlimit="10" points="878.606,116.056 882.087,110.355 
	885.558,116.056 "/>
<path opacity="0.7" fill="none" stroke="#000000" stroke-miterlimit="10" d="M1042.563,159.366
	C942.18,158.355,905,129.945,905,129.945V111"/>
<polyline opacity="0.7" fill="none" stroke="#000000" stroke-miterlimit="10" points="901.906,116.056 905.387,110.355 
	908.856,116.056 "/>
<path opacity="0.8" fill="none" stroke="#000000" stroke-miterlimit="10" enable-background="new    " d="M803.617,19.247
	c0,0-5.786,6.328-12.584,5.908c-5.603-0.347-10.305-5.908-10.305-5.908s4.463-5.867,10.801-6.118
	C797.744,12.883,803.617,19.247,803.617,19.247z"/>
<ellipse opacity="0.8" fill="none" stroke="#000000" stroke-miterlimit="10" enable-background="new    " cx="792.172" cy="19.064" rx="3.729" ry="3.981"/>
<path opacity="0.8" fill="none" stroke="#000000" stroke-miterlimit="10" enable-background="new    " d="M826.736,19.247
	c0,0-5.786,6.328-12.583,5.908c-5.602-0.347-10.306-5.908-10.306-5.908s4.463-5.867,10.802-6.118
	C820.863,12.883,826.736,19.247,826.736,19.247z"/>
<ellipse opacity="0.8" fill="none" stroke="#000000" stroke-miterlimit="10" enable-background="new    " cx="815.293" cy="19.064" rx="3.729" ry="3.981"/>
<path opacity="0.8" fill="none" stroke="#000000" stroke-miterlimit="10" enable-background="new    " d="M910.292-86.343
	c0,0-5.787,6.328-12.584,5.908c-5.603-0.347-10.304-5.908-10.304-5.908s4.461-5.866,10.8-6.117
	C904.42-92.707,910.292-86.343,910.292-86.343z"/>
<ellipse opacity="0.8" fill="none" stroke="#000000" stroke-miterlimit="10" enable-background="new    " cx="898.848" cy="-86.525" rx="3.729" ry="3.981"/>
<path opacity="0.8" fill="none" stroke="#000000" stroke-miterlimit="10" enable-background="new    " d="M849.856,19.247
	c0,0-5.786,6.328-12.583,5.908c-5.604-0.347-10.307-5.908-10.307-5.908s4.463-5.867,10.802-6.118
	C843.984,12.883,849.856,19.247,849.856,19.247z"/>
<ellipse opacity="0.8" fill="none" stroke="#000000" stroke-miterlimit="10" enable-background="new    " cx="838.412" cy="19.064" rx="3.729" ry="3.981"/>
<path opacity="0.8" fill="none" stroke="#000000" stroke-miterlimit="10" enable-background="new    " d="M859.139-33.3
	c0,0-5.786,6.328-12.584,5.908c-5.603-0.347-10.305-5.908-10.305-5.908s4.462-5.867,10.801-6.118
	C853.267-39.664,859.139-33.3,859.139-33.3z"/>
<ellipse opacity="0.8" fill="none" stroke="#000000" stroke-miterlimit="10" enable-background="new    " cx="847.693" cy="-33.482" rx="3.729" ry="3.981"/>
<path opacity="0.8" fill="none" stroke="#000000" stroke-miterlimit="10" enable-background="new    " d="M882.257-33.3
	c0,0-5.785,6.328-12.583,5.908c-5.602-0.347-10.305-5.908-10.305-5.908s4.462-5.867,10.802-6.118
	C876.386-39.664,882.257-33.3,882.257-33.3z"/>
<ellipse opacity="0.8" fill="none" stroke="#000000" stroke-miterlimit="10" enable-background="new    " cx="870.813" cy="-33.482" rx="3.729" ry="3.981"/>
<path opacity="0.8" fill="none" stroke="#000000" stroke-width="1.5" stroke-miterlimit="10" d="M254.021,137.905
	c0,0,147.478-15.827,255.686,28.277"/>
<polyline opacity="0.8" fill="none" stroke="#000000" stroke-width="1.5" stroke-miterlimit="10" points="499.404,167.313 
	509.814,166.446 505.85,158.349 "/>
<path opacity="0.8" fill="none" stroke="#000000" stroke-width="1.5" stroke-miterlimit="10" d="M766.105,153.139
	c0,0-77.147-42.818-182.49,9.078"/>
<polyline opacity="0.8" fill="none" stroke="#000000" stroke-width="2" stroke-miterlimit="10" points="593.5,163 583.508,163 
	586.604,154.739 "/>
<path opacity="0.8" fill="none" stroke="#000000" stroke-width="1.5" stroke-miterlimit="10" d="M800.063,155.546
	c0,0-6.204,6.355-13.492,5.933c-6.005-0.349-11.047-5.933-11.047-5.933s4.783-5.892,11.58-6.144
	C793.766,149.156,800.063,155.546,800.063,155.546z"/>
<circle opacity="0.8" fill="none" stroke="#000000" stroke-width="1.5" stroke-miterlimit="10" cx="787.792" cy="155.363" r="3.998"/>
<path opacity="0.8" fill="none" stroke="#000000" stroke-width="1.5" stroke-miterlimit="10" d="M450.919,274.318
	c0,0,37.379-13.933,77.733-70.445"/>
<line opacity="0.8" fill="none" stroke="#000000" stroke-width="2" stroke-miterlimit="10" x1="476.5" y1="239" x2="476.5" y2="275"/>
<polyline opacity="0.8" fill="none" stroke="#000000" stroke-width="2" stroke-miterlimit="10" points="476.295,266.424 
	482.5,275.258 482.5,239 "/>
<path opacity="0.8" fill="none" stroke="#000000" stroke-width="1.5" stroke-miterlimit="10" d="M443.636,280.469
	c0,0-6.203,6.355-13.491,5.933c-6.006-0.349-11.047-5.933-11.047-5.933s4.784-5.893,11.58-6.144
	C437.34,274.078,443.636,280.469,443.636,280.469z"/>
<circle opacity="0.8" fill="none" stroke="#000000" stroke-width="1.5" stroke-miterlimit="10" cx="431.367" cy="280.285" r="3.998"/>
<path opacity="0.8" fill="none" stroke="#000000" stroke-width="1.5" stroke-miterlimit="10" d="M447.945,290.883
	c0,0,108.716,43.129,227.937,0"/>
<path opacity="0.8" fill="none" stroke="#000000" stroke-width="1.5" stroke-miterlimit="10" d="M474.474,342.283
	c0,0,127.547-20.939,87.393-141.777"/>
<path opacity="0.8" fill="none" stroke="#000000" stroke-width="1.5" stroke-miterlimit="10" d="M466.439,351.854
	c0,0-6.203,6.354-13.491,5.933c-6.006-0.349-11.047-5.933-11.047-5.933s4.784-5.892,11.58-6.144
	C460.144,345.463,466.439,351.854,466.439,351.854z"/>
<circle opacity="0.8" fill="none" stroke="#000000" stroke-width="1.5" stroke-miterlimit="10" cx="454.17" cy="351.67" r="3.998"/>
<path opacity="0.8" fill="none" stroke="#000000" stroke-width="1.5" stroke-miterlimit="10" d="M645.396,235.599
	c0,0,36.822-43.438,129.136-67.138"/>
<path opacity="0.8" fill="none" stroke="#000000" stroke-width="1.5" stroke-miterlimit="10" d="M231.072,224.817
	c0,0,144.649-63.081,362.111,32.874"/>
<path opacity="0.8" fill="none" stroke="#000000" stroke-width="1.5" stroke-miterlimit="10" d="M626.558,198.675
	c0,0-6.202,6.354-13.49,5.932c-6.007-0.348-11.047-5.932-11.047-5.932s4.783-5.893,11.579-6.145
	C620.262,192.284,626.558,198.675,626.558,198.675z"/>
<circle opacity="0.8" fill="none" stroke="#000000" stroke-width="1.5" stroke-miterlimit="10" cx="614.289" cy="198.49" r="3.998"/>
<path opacity="0.8" fill="none" stroke="#000000" stroke-width="1.5" stroke-miterlimit="10" d="M635.482,198.916
	c0,0,92.398,6.089,130.623,39.658"/>
<path opacity="0.8" fill="none" stroke="#000000" stroke-width="1.5" stroke-miterlimit="10" d="M225.021,227.922
	c0,0-6.203,6.355-13.491,5.933c-6.006-0.348-11.047-5.933-11.047-5.933s4.784-5.892,11.58-6.144
	C218.726,221.531,225.021,227.922,225.021,227.922z"/>
<circle opacity="0.8" fill="none" stroke="#000000" stroke-width="1.5" stroke-miterlimit="10" cx="212.752" cy="227.738" r="3.998"/>
<path opacity="0.8" fill="none" stroke="#000000" stroke-width="1.5" stroke-miterlimit="10" d="M248.568,150.83
	c0,0,90.476,11.882,86.157,70.378"/>
<path opacity="0.8" fill="none" stroke="#000000" stroke-width="1.5" stroke-miterlimit="10" d="M223.039,354.828
	c0,0-6.204,6.354-13.491,5.932c-6.006-0.348-11.047-5.932-11.047-5.932s4.784-5.894,11.58-6.145
	C216.743,348.438,223.039,354.828,223.039,354.828z"/>
<path opacity="0.8" fill="none" stroke="#000000" stroke-width="1.5" stroke-miterlimit="10" d="M214.767,354.646
	c0,2.207-1.79,3.996-3.998,3.996s-3.998-1.789-3.998-3.996c0-2.21,1.79-3.999,3.998-3.999S214.767,352.436,214.767,354.646z"/>
<path opacity="0.8" fill="none" stroke="#000000" stroke-width="1.5" stroke-miterlimit="10" d="M226.756,344.164
	c0,0,65.105-23.596,94.684-74.855"/>
<path opacity="0.8" fill="none" stroke="#000000" stroke-width="1.5" stroke-miterlimit="10" d="M796.096,338.469
	c0,0-6.203,6.354-13.49,5.932c-6.007-0.348-11.048-5.932-11.048-5.932s4.784-5.892,11.579-6.145
	C789.8,332.078,796.096,338.469,796.096,338.469z"/>
<circle opacity="0.8" fill="none" stroke="#000000" stroke-width="1.5" stroke-miterlimit="10" cx="783.827" cy="338.286" r="3.998"/>
<path opacity="0.8" fill="none" stroke="#000000" stroke-width="1.5" stroke-miterlimit="10" d="M1065.274,148.606
	c0,0-6.203,6.354-13.49,5.933c-6.007-0.349-11.048-5.933-11.048-5.933s4.783-5.892,11.579-6.145
	C1058.979,142.216,1065.274,148.606,1065.274,148.606z"/>
<circle opacity="0.8" fill="none" stroke="#000000" stroke-width="1.5" stroke-miterlimit="10" cx="1053.006" cy="148.423" r="3.998"/>
<path opacity="0.8" fill="none" stroke="#000000" stroke-width="1.5" stroke-miterlimit="10" d="M1028.591,238.828
	c0,0-6.203,6.354-13.491,5.933c-6.005-0.349-11.047-5.933-11.047-5.933s4.783-5.893,11.58-6.144
	C1022.295,232.438,1028.591,238.828,1028.591,238.828z"/>
<circle opacity="0.8" fill="none" stroke="#000000" stroke-width="1.5" stroke-miterlimit="10" cx="1016.322" cy="238.646" r="3.998"/>
<path opacity="0.8" fill="none" stroke="#000000" stroke-width="1.5" stroke-miterlimit="10" d="M1064.779,328.059
	c0,0-6.203,6.354-13.491,5.933c-6.006-0.349-11.048-5.933-11.048-5.933s4.784-5.892,11.58-6.144
	C1058.483,321.668,1064.779,328.059,1064.779,328.059z"/>
<circle opacity="0.8" fill="none" stroke="#000000" stroke-width="1.5" stroke-miterlimit="10" cx="1052.51" cy="327.875" r="3.998"/>
<path opacity="0.8" fill="none" stroke="#000000" stroke-width="1.5" stroke-miterlimit="10" d="M229.73,353.086
	c0,0,51.06-24.125,90.717-8.664"/>
<path opacity="0.8" fill="none" stroke="#000000" stroke-width="2" stroke-miterlimit="10" d="M474.474,359.654
	c0,0,48.158,18.218,102.264,2.458"/>
<path opacity="0.8" fill="none" stroke="#000000" stroke-width="1.5" stroke-miterlimit="10" d="M625.67,363.125
	c0,0,83.055,14.72,137.46-18.961"/>
<path opacity="0.8" fill="none" stroke="#000000" stroke-width="1.5" stroke-miterlimit="10" d="M906.252,206.352
	c0,0-7.294,94.115-106.041,120.018"/>
<path opacity="0.8" fill="none" stroke="#000000" stroke-width="1.5" stroke-miterlimit="10" d="M927.116,204.849
	c0,0,41.244,51.623,66.03,33.881"/>
<path opacity="0.8" fill="none" stroke="#000000" stroke-width="1.5" stroke-miterlimit="10" d="M360.457,353.706
	c0,0,44.512,21.191,73.117,1.962"/>
<path opacity="0.8" fill="none" stroke="#000000" stroke-width="1.5" stroke-miterlimit="10" d="M354.059,262.968
	c0,0,49.847,72.87,87.842,76.761"/>
<path opacity="0.8" fill="none" stroke="#000000" stroke-width="1.5" stroke-miterlimit="10" d="M362.937,245.994
	c0,0,68.43-10.396,60.971,23.022"/>
<path opacity="0.8" fill="none" stroke="#000000" stroke-width="1.5" stroke-miterlimit="10" d="M224.277,239.07
	c0,0,13.55,34.37,82.952,7.27"/>
<path opacity="0.8" fill="none" stroke="#000000" stroke-width="1.5" stroke-miterlimit="10" d="M805.123,339.189
	c0,0,72.859,8.443,104.103-14.102"/>
<path opacity="0.8" fill="none" stroke="#000000" stroke-width="1.5" stroke-miterlimit="10" d="M951.506,327.96
	c0,0,54.21,28.106,75.722,5.567"/>
<path opacity="0.8" fill="none" stroke="#000000" stroke-width="1.5" stroke-miterlimit="10" d="M805.123,167.174
	c0,0,39.326,18.935,77.321,22.824"/>
<path opacity="0.8" fill="none" stroke="#000000" stroke-width="1.5" stroke-miterlimit="10" d="M943.926,174.61
	c0,0,44.511-37.66,84.665-28.566"/>
<path opacity="0.8" fill="none" stroke="#000000" stroke-width="1.5" stroke-miterlimit="10" d="M818.651,250.523
	c0,0,94.172-3.163,221.468,63.419"/>
<path opacity="0.8" fill="none" stroke="#000000" stroke-width="1.5" stroke-miterlimit="10" d="M778.994,320.368
	c0,0-6.279-23.463-60.81-26.769"/>
<line opacity="0.8" fill="none" stroke="#000000" stroke-width="2" stroke-miterlimit="10" x1="671.5" y1="125" x2="671.5" y2="162"/>
<polyline opacity="0.8" fill="none" stroke="#000000" stroke-width="2" stroke-miterlimit="10" points="671.543,153.094 
	675.5,161.736 675.5,125 "/>
<line opacity="0.8" fill="none" stroke="#000000" stroke-width="2" stroke-miterlimit="10" x1="374.5" y1="125" x2="374.5" y2="162"/>
<polyline opacity="0.8" fill="none" stroke="#000000" stroke-width="2" stroke-miterlimit="10" points="374.543,153.094 
	380.5,161.736 380.5,125 "/>
<line opacity="0.8" fill="none" stroke="#000000" stroke-width="2" stroke-miterlimit="10" x1="424.5" y1="188" x2="424.5" y2="225"/>
<polyline opacity="0.8" fill="none" stroke="#000000" stroke-width="2" stroke-miterlimit="10" points="424.542,216.072 
	428.5,224.693 428.5,188 "/>
<line opacity="0.8" fill="none" stroke="#000000" stroke-width="2" stroke-miterlimit="10" x1="273.5" y1="229" x2="273.5" y2="266"/>
<polyline opacity="0.8" fill="none" stroke="#000000" stroke-width="2" stroke-miterlimit="10" points="273.543,257.145 
	277.5,265.839 277.5,229 "/>
<line opacity="0.8" fill="none" stroke="#000000" stroke-width="2" stroke-miterlimit="10" x1="294.5" y1="151" x2="294.5" y2="188"/>
<polyline opacity="0.8" fill="none" stroke="#000000" stroke-width="2" stroke-miterlimit="10" points="294.542,179.23 
	299.5,188.01 299.5,151 "/>
<line opacity="0.8" fill="none" stroke="#000000" stroke-width="2" stroke-miterlimit="10" x1="732.5" y1="164" x2="732.5" y2="201"/>
<polyline opacity="0.8" fill="none" stroke="#000000" stroke-width="2" stroke-miterlimit="10" points="732.542,191.928 
	736.5,200.402 736.5,164 "/>
<line opacity="0.8" fill="none" stroke="#000000" stroke-width="2" stroke-miterlimit="10" x1="700.5" y1="203" x2="700.5" y2="240"/>
<polyline opacity="0.8" fill="none" stroke="#000000" stroke-width="2" stroke-miterlimit="10" points="700.542,231.01 
	705.5,239.565 705.5,203 "/>
<line opacity="0.8" fill="none" stroke="#000000" stroke-width="2" stroke-miterlimit="10" x1="504.5" y1="312" x2="504.5" y2="349"/>
<polyline opacity="0.8" fill="none" stroke="#000000" stroke-width="2" stroke-miterlimit="10" points="504.543,340.039 
	510.5,348.625 510.5,312 "/>
<line opacity="0.8" fill="none" stroke="#000000" stroke-width="2" stroke-miterlimit="10" x1="629.5" y1="286" x2="629.5" y2="323"/>
<polyline opacity="0.8" fill="none" stroke="#000000" stroke-width="2" stroke-miterlimit="10" points="629.542,314.149 
	634.5,322.847 634.5,286 "/>
<line opacity="0.8" fill="none" stroke="#000000" stroke-width="2" stroke-miterlimit="10" x1="387.5" y1="234" x2="387.5" y2="271"/>
<polyline opacity="0.8" fill="none" stroke="#000000" stroke-width="2" stroke-miterlimit="10" points="387.542,262.123 
	392.5,270.796 392.5,234 "/>
<line opacity="0.8" fill="none" stroke="#000000" stroke-width="2" stroke-miterlimit="10" x1="398.5" y1="307" x2="398.5" y2="344"/>
<polyline opacity="0.8" fill="none" stroke="#000000" stroke-width="2" stroke-miterlimit="10" points="398.543,335.059 
	404.5,343.668 404.5,307 "/>
<line opacity="0.8" fill="none" stroke="#000000" stroke-width="2" stroke-miterlimit="10" x1="375.5" y1="348" x2="375.5" y2="385"/>
<polyline opacity="0.8" fill="none" stroke="#000000" stroke-width="2" stroke-miterlimit="10" points="375.543,376.132 
	380.5,384.813 380.5,348 "/>
<line opacity="0.8" fill="none" stroke="#000000" stroke-width="2" stroke-miterlimit="10" x1="524.5" y1="349" x2="524.5" y2="386"/>
<polyline opacity="0.8" fill="none" stroke="#000000" stroke-width="2" stroke-miterlimit="10" points="524.543,377.128 
	530.5,385.805 530.5,349 "/>
<line opacity="0.8" fill="none" stroke="#000000" stroke-width="2" stroke-miterlimit="10" x1="702.5" y1="343" x2="702.5" y2="380"/>
<polyline opacity="0.8" fill="none" stroke="#000000" stroke-width="2" stroke-miterlimit="10" points="702.542,370.906 
	707.5,379.359 707.5,343 "/>
<line opacity="0.8" fill="none" stroke="#000000" stroke-width="2" stroke-miterlimit="10" x1="750.5" y1="286" x2="750.5" y2="323"/>
<polyline opacity="0.8" fill="none" stroke="#000000" stroke-width="2" stroke-miterlimit="10" points="750.543,314.149 
	756.5,322.847 756.5,286 "/>
<line opacity="0.8" fill="none" stroke="#000000" stroke-width="2" stroke-miterlimit="10" x1="837.5" y1="286" x2="837.5" y2="324"/>
<polyline opacity="0.8" fill="none" stroke="#000000" stroke-width="2" stroke-miterlimit="10" points="837.543,314.397 
	842.5,323.342 842.5,286 "/>
<line opacity="0.8" fill="none" stroke="#000000" stroke-width="2" stroke-miterlimit="10" x1="878.5" y1="320" x2="878.5" y2="356"/>
<polyline opacity="0.8" fill="none" stroke="#000000" stroke-width="2" stroke-miterlimit="10" points="878.543,348.004 
	883.5,356.557 883.5,320 "/>
<line opacity="0.8" fill="none" stroke="#000000" stroke-width="2" stroke-miterlimit="10" x1="1004.5" y1="328" x2="1004.5" y2="364"/>
<polyline opacity="0.8" fill="none" stroke="#000000" stroke-width="2" stroke-miterlimit="10" points="1004.543,355.971 
	1009.5,364.487 1009.5,328 "/>
<line opacity="0.8" fill="none" stroke="#000000" stroke-width="2" stroke-miterlimit="10" x1="971.5" y1="273" x2="971.5" y2="310"/>
<polyline opacity="0.8" fill="none" stroke="#000000" stroke-width="2" stroke-miterlimit="10" points="971.543,300.957 
	976.5,309.463 976.5,273 "/>
<line opacity="0.8" fill="none" stroke="#000000" stroke-width="2" stroke-miterlimit="10" x1="942.5" y1="212" x2="942.5" y2="248"/>
<polyline opacity="0.8" fill="none" stroke="#000000" stroke-width="2" stroke-miterlimit="10" points="942.543,239.722 
	947.5,247.992 947.5,212 "/>
<line opacity="0.8" fill="none" stroke="#000000" stroke-width="2" stroke-miterlimit="10" x1="982.5" y1="137" x2="982.5" y2="174"/>
<polyline opacity="0.8" fill="none" stroke="#000000" stroke-width="2" stroke-miterlimit="10" points="982.542,165.043 
	987.5,173.634 987.5,137 "/>
<line opacity="0.8" fill="none" stroke="#000000" stroke-width="2" stroke-miterlimit="10" x1="843.5" y1="170" x2="843.5" y2="206"/>
<polyline opacity="0.8" fill="none" stroke="#000000" stroke-width="2" stroke-miterlimit="10" points="843.543,197.901 
	848.5,206.352 848.5,170 "/>
<line opacity="0.8" fill="none" stroke="#000000" stroke-width="2" stroke-miterlimit="10" x1="291.5" y1="329" x2="291.5" y2="365"/>
<polyline opacity="0.8" fill="none" stroke="#000000" stroke-width="2" stroke-miterlimit="10" points="291.543,356.965 
	296.5,365.479 296.5,329 "/>
<line opacity="0.8" fill="none" stroke="#000000" stroke-width="2" stroke-miterlimit="10" x1="251.5" y1="304" x2="251.5" y2="340"/>
<polyline opacity="0.8" fill="none" stroke="#000000" stroke-width="2" stroke-miterlimit="10" points="251.542,331.824 
	255.5,340.197 255.5,304 "/>
<polyline opacity="0.8" fill="none" stroke="#000000" stroke-width="1.5" stroke-miterlimit="10" points="875.329,194.206 
	882.43,190.241 876.155,184.044 "/>
<polyline opacity="0.8" fill="none" stroke="#000000" stroke-width="2" stroke-miterlimit="10" points="906.331,334.934 
	909.226,326 900.5,326 "/>
<polyline opacity="0.8" fill="none" stroke="#000000" stroke-width="1.5" stroke-miterlimit="10" points="956.438,336.975 
	951.506,327.96 961.37,326.369 "/>
<polyline opacity="0.8" fill="none" stroke="#000000" stroke-width="1.5" stroke-miterlimit="10" points="827.327,245.266 
	818.59,250.506 825.344,256.42 "/>
<polyline opacity="0.8" fill="none" stroke="#000000" stroke-width="1.5" stroke-miterlimit="10" points="910.98,214.407 
	906.333,206.387 899.703,213.664 "/>
<polyline opacity="0.8" fill="none" stroke="#000000" stroke-width="1.5" stroke-miterlimit="10" points="936.634,206.187 
	927.152,204.899 927.711,214.118 "/>
<polyline opacity="0.8" fill="none" stroke="#000000" stroke-width="1.5" stroke-miterlimit="10" points="947.54,166.198 
	944.008,174.66 953.24,176.113 "/>
<polyline opacity="0.8" fill="none" stroke="#000000" stroke-width="1.5" stroke-miterlimit="10" points="763.874,229.031 
	766.043,238.609 755.322,238.078 "/>
<polyline opacity="0.8" fill="none" stroke="#000000" stroke-width="1.5" stroke-miterlimit="10" points="528.488,215.44 
	528.404,203.873 516.59,207.675 "/>
<polyline opacity="0.8" fill="none" stroke="#000000" stroke-width="1.5" stroke-miterlimit="10" points="571.533,209.51 
	561.805,200.438 559.637,214.118 "/>
<polyline opacity="0.8" fill="none" stroke="#000000" stroke-width="1.5" stroke-miterlimit="10" points="588.801,247.993 
	593.184,257.691 582.026,257.907 "/>
<polyline opacity="0.8" fill="none" stroke="#000000" stroke-width="1.5" stroke-miterlimit="10" points="329.495,214.531 
	334.726,221.208 340.153,214.407 "/>
<polyline opacity="0.8" fill="none" stroke="#000000" stroke-width="1.5" stroke-miterlimit="10" points="371.177,241.301 
	362.937,245.994 370.517,251.215 "/>
<polyline opacity="0.8" fill="none" stroke="#000000" stroke-width="1.5" stroke-miterlimit="10" points="363.576,264.826 
	354.059,262.968 353.827,272.283 "/>
<polyline opacity="0.8" fill="none" stroke="#000000" stroke-width="1.5" stroke-miterlimit="10" points="312.434,272.695 
	321.44,269.309 322.679,278.645 "/>
<polyline opacity="0.8" fill="none" stroke="#000000" stroke-width="1.5" stroke-miterlimit="10" points="297.48,244.026 
	307.229,246.34 301.28,255.264 "/>
<polyline opacity="0.8" fill="none" stroke="#000000" stroke-width="1.5" stroke-miterlimit="10" points="370.021,351.434 
	360.457,353.706 365.229,362.176 "/>
<polyline opacity="0.8" fill="none" stroke="#000000" stroke-width="1.5" stroke-miterlimit="10" points="314.665,336.232 
	320.448,344.422 310.699,347.468 "/>
<polyline opacity="0.8" fill="none" stroke="#000000" stroke-width="1.5" stroke-miterlimit="10" points="648.493,224.817 
	645.582,235.634 655.93,234.484 "/>
<polyline opacity="0.8" fill="none" stroke="#000000" stroke-width="1.5" stroke-miterlimit="10" points="664.729,288.063 
	675.882,290.883 668.364,299.713 "/>
<polyline opacity="0.8" fill="none" stroke="#000000" stroke-width="1.5" stroke-miterlimit="10" points="726.694,288.395 
	718.185,293.6 725.455,300.292 "/>
<polyline opacity="0.8" fill="none" stroke="#000000" stroke-width="1.5" stroke-miterlimit="10" points="566.328,357.547 
	576.737,362.112 568.559,372.42 "/>
<polyline opacity="0.8" fill="none" stroke="#000000" stroke-width="1.5" stroke-miterlimit="10" points="634.49,357.796 
	625.752,363.035 633.251,369.693 "/>
<path opacity="0.8" fill="none" stroke="#000000" stroke-width="1.5" stroke-miterlimit="10" d="M883.125,169.042
	c95.324,10.567,30.549-29.504,26.497,30.644"/>
<path opacity="0.8" fill="none" stroke="#000000" stroke-width="1.5" stroke-miterlimit="10" d="M770.72,224.454
	c95.323,10.566,30.549-29.505,26.497,30.643"/>
<path opacity="0.8" fill="none" stroke="#000000" stroke-width="1.5" stroke-miterlimit="10" d="M521.264,167.841
	c95.323,10.566,30.547-29.503,26.496,30.644"/>
<path opacity="0.8" fill="none" stroke="#000000" stroke-width="1.5" stroke-miterlimit="10" d="M308.953,235.541
	c95.322,10.565,30.548-29.504,26.496,30.642"/>
<path opacity="0.8" fill="none" stroke="#000000" stroke-width="1.5" stroke-miterlimit="10" d="M587.426,238.846
	c95.323,10.566,30.549-29.505,26.496,30.643"/>
<path opacity="0.8" fill="none" stroke="#000000" stroke-width="1.5" stroke-miterlimit="10" d="M668.528,274.785
	c95.322,10.566,30.548-29.505,26.496,30.644"/>
<path opacity="0.8" fill="none" stroke="#000000" stroke-width="1.5" stroke-miterlimit="10" d="M903.514,306.76
	c95.323,10.566,30.548-29.505,26.496,30.643"/>
<path opacity="0.8" fill="none" stroke="#000000" stroke-width="1.5" stroke-miterlimit="10" d="M571.935,346.417
	c95.323,10.566,30.548-29.504,26.495,30.644"/>
<path opacity="0.8" fill="none" stroke="#000000" stroke-width="1.5" stroke-miterlimit="10" d="M317.556,327.579
	c95.324,10.567,30.548-29.504,26.497,30.645"/>
<polyline opacity="0.8" fill="none" stroke="#000000" stroke-width="2" stroke-miterlimit="10" points="817.5,234 817.5,212.003 
	815.5,216.032 813.5,212.003 813.5,234 "/>
<polyline opacity="0.8" fill="none" stroke="#000000" stroke-width="2" stroke-miterlimit="10" points="634.5,248 634.5,226.379 
	632,230.409 629.5,226.379 629.5,248 "/>
<polyline opacity="0.8" fill="none" stroke="#000000" stroke-width="2" stroke-miterlimit="10" points="950.5,316 950.5,294.293 
	949,298.323 947.5,294.293 947.5,316 "/>
<polyline opacity="0.8" fill="none" stroke="#000000" stroke-width="2" stroke-miterlimit="10" points="931.5,178 931.5,156.481 
	929,160.512 926.5,156.481 926.5,178 "/>
<polyline opacity="0.8" fill="none" stroke="#000000" stroke-width="2" stroke-miterlimit="10" points="716.5,284 716.5,262.071 
	714,266.102 711.5,262.071 711.5,284 "/>
<circle fill="none" stroke="#000000" stroke-width="5" stroke-miterlimit="10" cx="448.322" cy="213.939" r="174.061"/>
<circle fill="none" stroke="#000000" stroke-width="5" stroke-miterlimit="10" cx="799.02" cy="212.355" r="174.061"/>
</svg>
