<?xml version="1.0" encoding="utf-8"?>
<!-- Generator: Adobe Illustrator 16.0.0, SVG Export Plug-In . SVG Version: 6.00 Build 0)  -->
<!DOCTYPE svg PUBLIC "-//W3C//DTD SVG 1.1//EN" "http://www.w3.org/Graphics/SVG/1.1/DTD/svg11.dtd">
<svg version="1.1" id="Calque_1" xmlns="http://www.w3.org/2000/svg" xmlns:xlink="http://www.w3.org/1999/xlink" x="0px" y="0px"
	 width="1232.555px" height="506.396px" viewBox="0 -115.396 1232.555 506.396"
	 enable-background="new 0 -115.396 1232.555 506.396" xml:space="preserve">
<path fill="none" stroke="#000000" stroke-width="2" stroke-miterlimit="10" d="M166.427,295.538c0,0-39.575,40.539-86.068,37.847
	c-38.316-2.223-70.478-37.847-70.478-37.847s30.521-37.593,73.875-39.198C126.259,254.768,166.427,295.538,166.427,295.538z"/>
<path fill="none" stroke="#000000" stroke-width="2" stroke-miterlimit="10" d="M113.658,294.368
	c0,14.086-11.421,25.506-25.505,25.506c-14.089,0-25.504-11.42-25.504-25.506c0-14.09,11.415-25.505,25.504-25.505
	C102.237,268.863,113.658,280.278,113.658,294.368z"/>
<path fill="none" stroke="#000000" stroke-width="2" stroke-miterlimit="10" d="M330.879,295.538c0,0-39.574,40.539-86.068,37.847
	c-38.314-2.223-70.477-37.847-70.477-37.847s30.519-37.593,73.875-39.198C290.712,254.768,330.879,295.538,330.879,295.538z"/>
<path fill="none" stroke="#000000" stroke-width="2" stroke-miterlimit="10" d="M278.111,294.368
	c0,14.086-11.422,25.506-25.504,25.506c-14.089,0-25.504-11.42-25.504-25.506c0-14.09,11.415-25.505,25.504-25.505
	C266.689,268.863,278.111,280.278,278.111,294.368z"/>
<path fill="none" stroke="#000000" stroke-width="2" stroke-miterlimit="10" d="M495.332,295.538c0,0-39.575,40.539-86.068,37.847
	c-38.314-2.223-70.479-37.847-70.479-37.847s30.52-37.593,73.875-39.198C455.163,254.768,495.332,295.538,495.332,295.538z"/>
<path fill="none" stroke="#000000" stroke-width="2" stroke-miterlimit="10" d="M442.563,294.368
	c0,14.086-11.421,25.506-25.503,25.506c-14.09,0-25.505-11.42-25.505-25.506c0-14.09,11.415-25.505,25.505-25.505
	C431.142,268.863,442.563,280.278,442.563,294.368z"/>
<path fill="none" stroke="#000000" stroke-width="2" stroke-miterlimit="10" d="M330.879-17.554c0,0-39.574,40.538-86.068,37.845
	c-38.314-2.22-70.477-37.845-70.477-37.845s30.519-37.592,73.875-39.199C290.712-58.324,330.879-17.554,330.879-17.554z"/>
<path fill="none" stroke="#000000" stroke-width="2" stroke-miterlimit="10" d="M278.111-18.725
	c0,14.087-11.422,25.507-25.504,25.507c-14.089,0-25.504-11.42-25.504-25.507c0-14.089,11.415-25.504,25.504-25.504
	C266.689-44.229,278.111-32.814,278.111-18.725z"/>
<path fill="none" stroke="#000000" stroke-width="4" stroke-miterlimit="10" d="M893.813,295.538c0,0-39.574,40.539-86.067,37.847
	c-38.316-2.223-70.479-37.847-70.479-37.847s30.521-37.593,73.876-39.198C853.646,254.768,893.813,295.538,893.813,295.538z"/>
<path fill="none" stroke="#000000" stroke-width="4" stroke-miterlimit="10" d="M841.046,294.368
	c0,14.086-11.423,25.506-25.507,25.506c-14.088,0-25.503-11.42-25.503-25.506c0-14.09,11.415-25.505,25.503-25.505
	C829.623,268.863,841.046,280.278,841.046,294.368z"/>
<path fill="none" stroke="#000000" stroke-width="4" stroke-miterlimit="10" d="M1058.266,295.538c0,0-39.574,40.539-86.068,37.847
	c-38.315-2.223-70.477-37.847-70.477-37.847s30.519-37.593,73.875-39.198C1018.098,254.768,1058.266,295.538,1058.266,295.538z"/>
<path fill="none" stroke="#000000" stroke-width="4" stroke-miterlimit="10" d="M1005.497,294.368
	c0,14.086-11.421,25.506-25.506,25.506c-14.089,0-25.503-11.42-25.503-25.506c0-14.09,11.414-25.505,25.503-25.505
	C994.076,268.863,1005.497,280.278,1005.497,294.368z"/>
<path fill="none" stroke="#000000" stroke-width="4" stroke-miterlimit="10" d="M1222.719,295.538c0,0-39.577,40.539-86.068,37.847
	c-38.317-2.223-70.478-37.847-70.478-37.847s30.519-37.593,73.875-39.198C1182.551,254.768,1222.719,295.538,1222.719,295.538z"/>
<path fill="none" stroke="#000000" stroke-width="4" stroke-miterlimit="10" d="M1169.949,294.368
	c0,14.086-11.421,25.506-25.504,25.506c-14.089,0-25.505-11.42-25.505-25.506c0-14.09,11.416-25.505,25.505-25.505
	C1158.528,268.863,1169.949,280.278,1169.949,294.368z"/>
<path fill="none" stroke="#000000" stroke-width="4" stroke-miterlimit="10" d="M1058.266-17.554c0,0-39.574,40.538-86.068,37.845
	c-38.315-2.22-70.477-37.845-70.477-37.845s30.519-37.592,73.875-39.199C1018.098-58.324,1058.266-17.554,1058.266-17.554z"/>
<path fill="none" stroke="#000000" stroke-width="4" stroke-miterlimit="10" d="M1005.497-18.725
	c0,14.087-11.421,25.507-25.506,25.507c-14.089,0-25.503-11.42-25.503-25.507c0-14.089,11.414-25.504,25.503-25.504
	C994.076-44.229,1005.497-32.814,1005.497-18.725z"/>
</svg>
