<?xml version="1.0" encoding="utf-8"?>
<!-- Generator: Adobe Illustrator 16.0.0, SVG Export Plug-In . SVG Version: 6.00 Build 0)  -->
<!DOCTYPE svg PUBLIC "-//W3C//DTD SVG 1.1//EN" "http://www.w3.org/Graphics/SVG/1.1/DTD/svg11.dtd">
<svg version="1.1" id="Calque_1" xmlns="http://www.w3.org/2000/svg" xmlns:xlink="http://www.w3.org/1999/xlink" x="0px" y="0px"
	 width="1232.555px" height="506.396px" viewBox="0 -115.396 1232.555 506.396"
	 enable-background="new 0 -115.396 1232.555 506.396" xml:space="preserve">
<path opacity="0.8" fill="none" stroke="#000000" stroke-width="2" stroke-miterlimit="10" d="M108.015,181.19
	c0,0,77.682,90.977,161.487,68.322"/>
<path opacity="0.8" fill="none" stroke="#000000" stroke-width="2" stroke-miterlimit="10" d="M103.982,172.118
	c0,0-5.81,5.951-12.635,5.557C85.722,177.349,81,172.118,81,172.118s4.481-5.518,10.846-5.754
	C98.086,166.133,103.982,172.118,103.982,172.118z"/>
<circle opacity="0.8" fill="none" stroke="#000000" stroke-width="2" stroke-miterlimit="10" cx="92.491" cy="171.946" r="3.744"/>
<path opacity="0.8" fill="none" stroke="#000000" stroke-width="3" stroke-miterlimit="10" d="M435.95,186.736"/>
<line opacity="0.8" fill="none" stroke="#000000" stroke-width="2" stroke-miterlimit="10" x1="173.5" y1="225" x2="173.5" y2="259"/>
<polyline opacity="0.8" fill="none" stroke="#000000" stroke-width="2" stroke-miterlimit="10" points="173.857,250.961 
	177.5,258.702 177.5,225 "/>
<polyline opacity="0.8" fill="none" stroke="#000000" stroke-width="2" stroke-miterlimit="10" points="260.526,246.708 
	269.444,249.448 263.389,256.922 "/>
<polyline fill="none" stroke="#000000" stroke-width="2" stroke-miterlimit="10" points="400.5,115 400.5,-5 451.5,-5 451.5,-56 
	499.5,-56 499.5,-106 553.5,-106 553.5,116 "/>
<path opacity="0.8" fill="none" stroke="#000000" stroke-width="2" stroke-miterlimit="10" d="M464.503,253.136
	c0,0-32.964-22.194-148.167-4.663"/>
<polyline opacity="0.8" fill="none" stroke="#000000" stroke-width="2" stroke-miterlimit="10" points="325.99,250.964 
	316.235,248.721 321.27,242.297 "/>
<path opacity="0.8" fill="none" stroke="#000000" stroke-width="2" stroke-miterlimit="10" d="M496.307,255.69
	c0,0-5.809,5.95-12.634,5.556c-5.626-0.325-10.348-5.556-10.348-5.556s4.481-5.519,10.846-5.755
	C490.411,249.705,496.307,255.69,496.307,255.69z"/>
<circle opacity="0.8" fill="none" stroke="#000000" stroke-width="2" stroke-miterlimit="10" cx="484.816" cy="255.519" r="3.744"/>
<line opacity="0.8" fill="none" stroke="#000000" stroke-width="2" stroke-miterlimit="10" x1="402.5" y1="231" x2="402.5" y2="265"/>
<polyline opacity="0.8" fill="none" stroke="#000000" stroke-width="2" stroke-miterlimit="10" points="402.857,256.979 
	406.5,264.737 406.5,231 "/>
<path fill="none" stroke="#000000" stroke-width="4" stroke-miterlimit="10" d="M307.837,256.922
	c321.489,221.854,281.561-433.163,23.003-40.177"/>
<polyline fill="none" stroke="#000000" stroke-width="4" stroke-miterlimit="10" points="362.824,207.166 330.165,217.612 
	336.167,186.736 "/>
<line fill="none" stroke="#000000" stroke-width="3" stroke-miterlimit="10" x1="480" y1="76" x2="480" y2="111"/>
<line fill="none" stroke="#000000" stroke-width="3" stroke-miterlimit="10" x1="486" y1="111" x2="486" y2="76"/>
<g>
	<path d="M476.111,101.772c0.978,0.283,1.856,0.685,2.717,1.109c0.854,0.432,1.669,0.913,2.454,1.429l-1.582-0.07
		c0.979-0.836,2.008-1.6,3.075-2.307l0.926-0.614l0.833,0.669c1.097,0.88,2.14,1.83,3.111,2.869
		c0.483,0.523,0.953,1.065,1.394,1.644c0.437,0.583,0.869,1.171,1.232,1.849c-0.746-0.187-1.422-0.463-2.095-0.743
		c-0.668-0.286-1.309-0.608-1.934-0.949c-1.246-0.688-2.421-1.468-3.543-2.315l1.758,0.056c-1.047,0.736-2.134,1.416-3.27,2.023
		l-0.992,0.531l-0.59-0.601c-0.659-0.67-1.29-1.375-1.88-2.13C477.144,103.459,476.578,102.676,476.111,101.772z"/>
</g>
<path opacity="0.8" fill="none" stroke="#000000" stroke-width="2" stroke-miterlimit="10" d="M728.771,157.048
	c0,0,77.683,90.975,161.486,68.322"/>
<path opacity="0.8" fill="none" stroke="#000000" stroke-width="2" stroke-miterlimit="10" d="M724.738,147.975
	c0,0-5.811,5.952-12.636,5.557c-5.624-0.326-10.347-5.557-10.347-5.557s4.48-5.518,10.846-5.753
	C718.842,141.99,724.738,147.975,724.738,147.975z"/>
<circle opacity="0.8" fill="none" stroke="#000000" stroke-width="2" stroke-miterlimit="10" cx="713.247" cy="147.804" r="3.744"/>
<path opacity="0.8" fill="none" stroke="#000000" stroke-width="4" stroke-miterlimit="10" d="M1020.491,188.594"/>
<path opacity="0.8" fill="none" stroke="#000000" stroke-width="2" stroke-miterlimit="10" d="M912.195,231.035"/>
<path opacity="0.8" fill="none" stroke="#000000" stroke-width="2" stroke-miterlimit="10" d="M937.102,201.115"/>
<line opacity="0.8" fill="none" stroke="#000000" stroke-width="2" stroke-miterlimit="10" x1="794.5" y1="200" x2="794.5" y2="233"/>
<polyline opacity="0.8" fill="none" stroke="#000000" stroke-width="2" stroke-miterlimit="10" points="793.857,226.387 
	798.5,234.56 798.5,200 "/>
<polyline opacity="0.8" fill="none" stroke="#000000" stroke-width="2" stroke-miterlimit="10" points="881.281,222.565 
	890.199,225.306 884.145,232.78 "/>
<polyline fill="none" stroke="#000000" stroke-width="2" stroke-miterlimit="10" points="985.5,117 985.5,-4 1036.5,-4 1036.5,-54 
	1084.5,-54 1084.5,-105 1138.5,-105 1138.5,117 "/>
<path opacity="0.8" fill="none" stroke="#000000" stroke-width="2" stroke-miterlimit="10" d="M602.862,335.74
	c0,0,104.697-14.824,206.044,26.483"/>
<polyline opacity="0.8" fill="none" stroke="#000000" stroke-width="2" stroke-miterlimit="10" points="799.257,363.284 
	809.007,362.471 805.293,354.887 "/>
<path opacity="0.8" fill="none" stroke="#000000" stroke-width="2" stroke-miterlimit="10" d="M1049.046,261.12
	c0,0-91.931,18.475-170.918,97.389"/>
<polyline opacity="0.8" fill="none" stroke="#000000" stroke-width="2" stroke-miterlimit="10" points="889.329,356.899 
	878.026,358.756 880.971,347.689 "/>
<path opacity="0.8" fill="none" stroke="#000000" stroke-width="2" stroke-miterlimit="10" d="M595.201,337.405
	c0,0-5.81,5.951-12.636,5.556c-5.625-0.324-10.347-5.556-10.347-5.556s4.48-5.519,10.846-5.754
	C589.305,331.42,595.201,337.405,595.201,337.405z"/>
<circle opacity="0.8" fill="none" stroke="#000000" stroke-width="2" stroke-miterlimit="10" cx="583.71" cy="337.233" r="3.744"/>
<path opacity="0.8" fill="none" stroke="#000000" stroke-width="2" stroke-miterlimit="10" d="M1080.849,257.548
	c0,0-5.81,5.951-12.636,5.557c-5.623-0.326-10.346-5.557-10.346-5.557s4.48-5.52,10.846-5.756
	C1074.952,251.563,1080.849,257.548,1080.849,257.548z"/>
<path opacity="0.8" fill="none" stroke="#000000" stroke-width="2" stroke-miterlimit="10" d="M1073.103,257.377
	c0,2.066-1.677,3.743-3.745,3.743c-2.067,0-3.743-1.677-3.743-3.743c0-2.07,1.676-3.745,3.743-3.745
	C1071.426,253.632,1073.103,255.307,1073.103,257.377z"/>
<line opacity="0.8" fill="none" stroke="#000000" stroke-width="3" stroke-miterlimit="10" x1="980" y1="273" x2="980" y2="307"/>
<polyline opacity="0.8" fill="none" stroke="#000000" stroke-width="3" stroke-miterlimit="10" points="981.357,298.871 
	986,306.523 986,273 "/>
<line opacity="0.8" fill="none" stroke="#000000" stroke-width="2" stroke-miterlimit="10" x1="682.5" y1="323" x2="682.5" y2="358"/>
<polyline opacity="0.8" fill="none" stroke="#000000" stroke-width="2" stroke-miterlimit="10" points="682.855,349.639 
	687.5,358.06 687.5,323 "/>
<path fill="none" stroke="#000000" stroke-width="4" stroke-miterlimit="10" d="M864.671,384.187
	c367.021,46.971,281.94-524.097,86.926-191.585"/>
<polyline fill="none" stroke="#000000" stroke-width="4" stroke-miterlimit="10" points="983.58,183.022 950.92,193.468 
	956.651,159.441 "/>
<line fill="none" stroke="#000000" stroke-width="3" stroke-miterlimit="10" x1="1062" y1="78" x2="1062" y2="112"/>
<line fill="none" stroke="#000000" stroke-width="3" stroke-miterlimit="10" x1="1068" y1="112" x2="1068" y2="78"/>
<g>
	<path d="M1058.331,103.629c0.978,0.283,1.856,0.686,2.717,1.109c0.854,0.432,1.669,0.914,2.454,1.43l-1.582-0.07
		c0.979-0.836,2.008-1.6,3.075-2.308l0.926-0.614l0.833,0.669c1.097,0.88,2.14,1.83,3.112,2.869
		c0.483,0.523,0.952,1.065,1.394,1.644c0.436,0.584,0.869,1.172,1.232,1.85c-0.746-0.187-1.422-0.463-2.095-0.743
		c-0.669-0.286-1.309-0.608-1.935-0.949c-1.246-0.689-2.421-1.468-3.543-2.316l1.758,0.055c-1.047,0.736-2.134,1.417-3.27,2.024
		l-0.992,0.531l-0.59-0.601c-0.659-0.671-1.289-1.375-1.879-2.13C1059.363,105.316,1058.798,104.533,1058.331,103.629z"/>
</g>
<path opacity="0.8" fill="none" stroke="#000000" stroke-width="2" stroke-miterlimit="10" d="M265.7,230.496
	c89.278,9.898,28.611-27.633,24.816,28.701"/>
<polyline opacity="0.8" fill="none" stroke="#000000" stroke-width="2" stroke-miterlimit="10" points="310.5,239 310.5,218.835 
	308.5,222.609 306.5,218.835 306.5,239 "/>
<path opacity="0.8" fill="none" stroke="#000000" stroke-width="2" stroke-miterlimit="10" d="M888.313,203.104
	c89.278,9.896,28.611-27.634,24.817,28.7"/>
<polyline opacity="0.8" fill="none" stroke="#000000" stroke-width="2" stroke-miterlimit="10" points="932.5,212 932.5,191.441 
	930.5,195.217 928.5,191.441 928.5,212 "/>
<path opacity="0.8" fill="none" stroke="#000000" stroke-width="2" stroke-miterlimit="10" d="M819.041,360.724
	c89.277,9.897,28.61-27.633,24.816,28.7"/>
</svg>
