<?xml version="1.0" encoding="utf-8"?>
<!-- Generator: Adobe Illustrator 16.0.0, SVG Export Plug-In . SVG Version: 6.00 Build 0)  -->
<!DOCTYPE svg PUBLIC "-//W3C//DTD SVG 1.1//EN" "http://www.w3.org/Graphics/SVG/1.1/DTD/svg11.dtd">
<svg version="1.1" id="Calque_1" xmlns="http://www.w3.org/2000/svg" xmlns:xlink="http://www.w3.org/1999/xlink" x="0px" y="0px"
	 width="1232.555px" height="506.396px" viewBox="0 -115.396 1232.555 506.396"
	 enable-background="new 0 -115.396 1232.555 506.396" xml:space="preserve">
<polyline fill="none" stroke="#000000" stroke-miterlimit="10" points="596,390 596,323.5 623,323.5 623,295.5 649,295.5 649,268.5 
	680,268.5 680,391 "/>
<path fill="none" stroke="#000000" stroke-miterlimit="10" d="M603.959,267.346c0-19.062,15.448-34.505,34.506-34.505
	s34.506,15.443,34.506,34.505"/>
<rect x="596" y="171.5" fill="none" stroke="#000000" stroke-miterlimit="10" width="7" height="152"/>
<rect x="672" y="171.5" fill="none" stroke="#000000" stroke-miterlimit="10" width="8" height="97"/>
<path fill="none" stroke="#000000" stroke-miterlimit="10" d="M644.697-108.177c0,0-3.211,3.289-6.982,3.071
	c-3.108-0.18-5.719-3.071-5.719-3.071s2.477-3.05,5.993-3.181C641.438-111.485,644.697-108.177,644.697-108.177z"/>
<circle fill="none" stroke="#000000" stroke-miterlimit="10" cx="638.347" cy="-108.272" r="2.069"/>
<path fill="none" stroke="#000000" stroke-width="2" stroke-miterlimit="10" d="M700.376-79.697c0,0,184.215,59.041,68.634,326.491"
	/>
<path fill="none" stroke="#000000" stroke-width="2" stroke-miterlimit="10" d="M508.154-50.423c0,0-380.846,294.652-2.137,403.441"
	/>
<path fill="none" stroke="#000000" stroke-width="2" stroke-miterlimit="10" d="M536.637-52.989c0,0-356.986,285.929-20.785,405.689
	"/>
<path fill="none" stroke="#000000" stroke-width="2" stroke-miterlimit="10" d="M563.58-54.528c0,0-331.187,271.194-40.801,404.149"
	/>
<path fill="none" stroke="#000000" stroke-width="2" stroke-miterlimit="10" d="M661.065-84.254
	c-8.681,12.052,21.971,9.812,4.529-6.434c-22.976-21.399,15.623-20.229,5.159-7.44"/>
<path fill="none" stroke="#000000" stroke-width="4" stroke-miterlimit="10" d="M753.871,263.729c0,0-44.653,21.965-41.264,74.531"
	/>
<path fill="none" stroke="#000000" stroke-width="2" stroke-miterlimit="10" d="M709.332-82.241c0,0,197.583,50.808,73.532,328.01"
	/>
<path fill="none" stroke="#000000" stroke-width="2" stroke-miterlimit="10" d="M699.296,376.559
	c-8.681,12.052,21.971,9.813,4.528-6.434c-22.975-21.399,15.624-20.229,5.16-7.44"/>
<polyline fill="none" stroke="#000000" stroke-width="4" stroke-miterlimit="10" points="750.215,272.211 753.871,264 744.5,264 "/>
<polyline fill="none" stroke="#000000" stroke-width="2" stroke-miterlimit="10" points="768.239,239.61 769.01,246.666 
	774.653,242.176 "/>
<polyline fill="none" stroke="#000000" stroke-width="2" stroke-miterlimit="10" points="782.351,238.328 782.864,245.64 
	789.278,241.663 "/>
<polyline fill="none" stroke="#000000" stroke-width="2" stroke-miterlimit="10" points="559.213,-46.295 563.49,-54.556 
	554.51,-51.862 "/>
<polyline fill="none" stroke="#000000" stroke-width="2" stroke-miterlimit="10" points="533.043,-44.755 536.637,-52.989 
	528.424,-51.69 "/>
<polyline fill="none" stroke="#000000" stroke-width="2" stroke-miterlimit="10" points="504.564,-42.832 508.154,-50.423 
	500.373,-49.553 "/>
<path fill="none" stroke="#000000" stroke-width="2" stroke-miterlimit="10" d="M475.825-42.212c0,0-389.569,283.362,23.86,396.453"
	/>
<polyline fill="none" stroke="#000000" stroke-width="2" stroke-miterlimit="10" points="471.852,-33.98 475.825,-42.212 
	467.618,-40.908 "/>
<path fill="none" stroke="#000000" stroke-width="2" stroke-miterlimit="10" d="M574.07-102.654
	c83.564,9.264,26.78-25.865,23.229,26.864"/>
<path fill="none" stroke="#000000" stroke-width="2" stroke-miterlimit="10" d="M539.191,357.9
	c83.563,9.265,26.779-25.864,23.228,26.865"/>
</svg>
