<?xml version="1.0" encoding="utf-8"?>
<!-- Generator: Adobe Illustrator 16.0.0, SVG Export Plug-In . SVG Version: 6.00 Build 0)  -->
<!DOCTYPE svg PUBLIC "-//W3C//DTD SVG 1.1//EN" "http://www.w3.org/Graphics/SVG/1.1/DTD/svg11.dtd">
<svg version="1.1" id="Calque_1" xmlns="http://www.w3.org/2000/svg" xmlns:xlink="http://www.w3.org/1999/xlink" x="0px" y="0px"
	 width="1232.555px" height="506.396px" viewBox="0 -115.396 1232.555 506.396"
	 enable-background="new 0 -115.396 1232.555 506.396" xml:space="preserve">
<line fill="none" stroke="#000000" stroke-width="2" stroke-miterlimit="10" x1="213.862" y1="139.804" x2="1006.398" y2="139.804"/>
<path fill="none" stroke="#000000" stroke-width="3.5" stroke-miterlimit="10" d="M504.76,128.271
	c0,0-504.668-80.262-226.537-230.276"/>
<polyline fill="none" stroke="#000000" stroke-width="3.5" stroke-miterlimit="10" points="269.456,-75.459 278.505,-101.318 
	255.233,-107.674 "/>
<line fill="none" stroke="#000000" stroke-width="3.5" stroke-miterlimit="10" x1="1090.729" y1="139.158" x2="1108.828" y2="139.158"/>
<line fill="none" stroke="#000000" stroke-width="2" stroke-miterlimit="10" x1="1057.468" y1="44.131" x2="1057.468" y2="79.039"/>
<line fill="none" stroke="#000000" stroke-width="2" stroke-miterlimit="10" x1="1067.811" y1="44.131" x2="1067.811" y2="79.039"/>
<line fill="none" stroke="#000000" stroke-width="2" stroke-miterlimit="10" x1="1058.76" y1="191.521" x2="1058.76" y2="227.721"/>
<line fill="none" stroke="#000000" stroke-width="2" stroke-miterlimit="10" x1="1069.104" y1="191.521" x2="1069.104" y2="227.721"/>
<line fill="none" stroke="#000000" stroke-width="2" stroke-miterlimit="10" x1="1129.222" y1="144.33" x2="1165.422" y2="144.33"/>
<line fill="none" stroke="#000000" stroke-width="2" stroke-miterlimit="10" x1="1129.222" y1="133.987" x2="1165.422" y2="133.987"/>
<line fill="none" stroke="#000000" stroke-width="3.5" stroke-miterlimit="10" x1="610.13" y1="128.271" x2="1006.115" y2="4.012"/>
<polyline fill="none" stroke="#000000" stroke-width="3.5" stroke-miterlimit="10" points="992.824,22.37 1006.398,3.406 
	984.42,-0.995 "/>
<path fill="none" stroke="#000000" stroke-width="3" stroke-miterlimit="10" d="M610.13,149.501"/>
<path fill="none" stroke="#000000" stroke-width="3" stroke-miterlimit="10" d="M592.03,139.177c0,0-16.18,16.572-35.187,15.472
	c-15.663-0.91-28.812-15.472-28.812-15.472s12.477-15.369,30.201-16.025C575.609,122.509,592.03,139.177,592.03,139.177z"/>
<circle fill="none" stroke="#000000" stroke-width="3" stroke-miterlimit="10" cx="560.031" cy="138.698" r="10.426"/>
<line fill="none" stroke="#000000" stroke-width="3.5" stroke-miterlimit="10" x1="610.13" y1="150.274" x2="1006.115" y2="274.531"/>
<polyline fill="none" stroke="#000000" stroke-width="3.5" stroke-miterlimit="10" points="992.824,256.175 1006.398,275.14 
	984.42,279.54 "/>
<line fill="none" stroke="#000000" stroke-width="3.5" stroke-miterlimit="10" x1="1100.425" y1="148.854" x2="1100.425" y2="130.754"/>
<path fill="none" stroke="#000000" stroke-width="3" stroke-miterlimit="10" d="M1058.188,20.987
	c-14.913-96.939,15.406-81.432,16.079-61.318c0.664,19.884-21.66,9.154-12.057,3.574"/>
<line fill="none" stroke="#000000" stroke-width="3" stroke-miterlimit="10" x1="1058.76" y1="253.578" x2="1058.76" y2="329.859"/>
<polyline fill="none" stroke="#000000" stroke-width="3" stroke-miterlimit="10" points="1058.76,307.388 1071.688,329.859 
	1071.688,253.578 "/>
<path fill="none" stroke="#000000" stroke-width="3.5" stroke-miterlimit="10" d="M1055.821,172.255
	c-14.391-93.539,14.865-78.577,15.514-59.169c0.64,19.188-19.462,7.679-13.078,5.16c13.078-5.16,5.321,39.336,12.648,54.007"/>
<polyline fill="none" stroke="#000000" stroke-width="4.5" stroke-miterlimit="10" points="7,194.105 26.235,42.916 45.473,194.105 
	"/>
<polyline fill="none" stroke="#000000" stroke-width="4.5" stroke-miterlimit="10" points="1186.109,194.105 1205.346,42.916 
	1224.581,194.105 "/>
<line fill="none" stroke="#000000" stroke-width="4.5" stroke-miterlimit="10" x1="1197.744" y1="139.804" x2="1213.261" y2="139.804"/>
<line fill="none" stroke="#000000" stroke-width="4.5" stroke-miterlimit="10" x1="1205.503" y1="129.462" x2="1205.503" y2="150.148"/>
<line fill="none" stroke="#000000" stroke-width="3.5" stroke-miterlimit="10" x1="171.197" y1="140.451" x2="189.296" y2="140.451"/>
<line fill="none" stroke="#000000" stroke-width="2" stroke-miterlimit="10" x1="136.934" y1="45.424" x2="136.934" y2="80.332"/>
<line fill="none" stroke="#000000" stroke-width="2" stroke-miterlimit="10" x1="147.278" y1="45.424" x2="147.278" y2="80.332"/>
<line fill="none" stroke="#000000" stroke-width="2" stroke-miterlimit="10" x1="138.228" y1="192.813" x2="138.228" y2="229.015"/>
<line fill="none" stroke="#000000" stroke-width="2" stroke-miterlimit="10" x1="148.57" y1="192.813" x2="148.57" y2="229.015"/>
<path fill="none" stroke="#000000" stroke-width="3.5" stroke-miterlimit="10" d="M136.29,173.549
	c-14.393-93.54,14.866-78.578,15.513-59.17c0.641,19.188-19.461,7.678-13.078,5.16c13.078-5.16,5.321,39.337,12.647,54.008"/>
<path fill="none" stroke="#000000" stroke-width="3" stroke-miterlimit="10" d="M136.269,24.628
	c-11.615-100.681,15.009-81.597,17.37-66.53c4.597,29.36-17.309,18.138-10.737,14.947c7.903-3.839,17.738,21.21,7.409,31.151
	c-11.113,10.694-11.819-8.288-8.333-10.229"/>
<path fill="none" stroke="#000000" stroke-width="3" stroke-miterlimit="10" d="M158.192,257.427
	c-39.108,3.26-35.825,72.702,2.663,70.291"/>
<line fill="none" stroke="#000000" stroke-width="2" stroke-miterlimit="10" x1="102.673" y1="144.33" x2="66.473" y2="144.33"/>
<line fill="none" stroke="#000000" stroke-width="2" stroke-miterlimit="10" x1="102.673" y1="133.987" x2="66.473" y2="133.987"/>
<line fill="none" stroke="#000000" stroke-width="4.5" stroke-miterlimit="10" x1="34.15" y1="139.804" x2="18.636" y2="139.804"/>
<path fill="none" stroke="#000000" stroke-width="3.5" stroke-miterlimit="10" d="M504.76,150.902
	c0,0-504.668,80.263-226.537,230.277"/>
<polyline fill="none" stroke="#000000" stroke-width="3.5" stroke-miterlimit="10" points="269.456,354.634 278.505,380.493 
	255.233,386.848 "/>
<polyline fill="none" stroke="#000000" stroke-width="2" stroke-miterlimit="10" points="984.72,151.711 1006.398,139.804 
	984.72,127.897 "/>
</svg>
