<?xml version="1.0" encoding="utf-8"?>
<!-- Generator: Adobe Illustrator 16.0.0, SVG Export Plug-In . SVG Version: 6.00 Build 0)  -->
<!DOCTYPE svg PUBLIC "-//W3C//DTD SVG 1.1//EN" "http://www.w3.org/Graphics/SVG/1.1/DTD/svg11.dtd">
<svg version="1.1" id="Calque_1" xmlns="http://www.w3.org/2000/svg" xmlns:xlink="http://www.w3.org/1999/xlink" x="0px" y="0px"
	 width="1232.555px" height="506.396px" viewBox="0 -115.396 1232.555 506.396"
	 enable-background="new 0 -115.396 1232.555 506.396" xml:space="preserve">
<path fill="none" stroke="#000000" stroke-width="2" stroke-miterlimit="10" d="M689.043-71.14
	c-4.661-14.403-29.717-16.645-29.717-16.645s29.455-9.516,27.493-24.615"/>
<path fill="none" stroke="#000000" stroke-width="2" stroke-miterlimit="10" d="M680.547-99.293
	c6.376,9.101,0.008,18.201,0.008,18.201"/>
<path fill="none" stroke="#000000" stroke-width="2" stroke-miterlimit="10" d="M680.555-81.092c0,0-5.999-10.888-0.008-18.201"/>
<path fill="none" stroke="#000000" stroke-width="2" stroke-miterlimit="10" d="M375.758,251.051
	c-4.661-14.403-29.717-16.645-29.717-16.645s29.455-9.516,27.493-24.615"/>
<path fill="none" stroke="#000000" stroke-width="2" stroke-miterlimit="10" d="M367.262,222.896
	c6.376,9.101,0.007,18.201,0.007,18.201"/>
<path fill="none" stroke="#000000" stroke-width="2" stroke-miterlimit="10" d="M367.269,241.098c0,0-5.999-10.888-0.007-18.201"/>
<path fill="none" stroke="#000000" stroke-width="2" stroke-miterlimit="10" d="M375.758,6.574
	c-4.661-14.403-29.717-16.644-29.717-16.644s29.455-9.516,27.493-24.615"/>
<path fill="none" stroke="#000000" stroke-width="2" stroke-miterlimit="10" d="M367.262-21.58
	c6.376,9.101,0.007,18.202,0.007,18.202"/>
<path fill="none" stroke="#000000" stroke-width="2" stroke-miterlimit="10" d="M367.269-3.378c0,0-5.999-10.888-0.007-18.202"/>
<path fill="none" stroke="#000000" stroke-width="2" stroke-miterlimit="10" d="M375.758,132.051
	c-4.661-14.403-29.717-16.645-29.717-16.645s29.455-9.516,27.493-24.615"/>
<path fill="none" stroke="#000000" stroke-width="2" stroke-miterlimit="10" d="M367.262,103.896
	c6.376,9.101,0.007,18.202,0.007,18.202"/>
<path fill="none" stroke="#000000" stroke-width="2" stroke-miterlimit="10" d="M367.269,122.099c0,0-5.999-10.889-0.007-18.202"/>
<line fill="none" stroke="#000000" stroke-width="2" stroke-miterlimit="10" x1="615.5" y1="-53" x2="615.5" y2="-9"/>
<polyline fill="none" stroke="#000000" stroke-width="2" stroke-miterlimit="10" points="616.43,-19.157 622.5,-9.139 622.5,-53 "/>
<path fill="none" stroke="#000000" stroke-width="3" stroke-miterlimit="10" d="M391.341,116.607c0,0,227.746,60.849,271.459-60.58"
	/>
<path fill="none" stroke="#000000" stroke-width="3" stroke-miterlimit="10" d="M391.341-10.007c0,0,221.809,183.719,265.523,62.291
	"/>
<path fill="none" stroke="#000000" stroke-width="3" stroke-miterlimit="10" d="M391.341,228.053
	c0,0,208.317,10.688,277.667-171.621"/>
<path fill="none" stroke="#000000" stroke-width="2" stroke-miterlimit="10" d="M375.758,370.859
	c-4.661-14.402-29.717-16.644-29.717-16.644s29.455-9.517,27.493-24.615"/>
<path fill="none" stroke="#000000" stroke-width="2" stroke-miterlimit="10" d="M367.262,342.706
	c6.376,9.101,0.007,18.201,0.007,18.201"/>
<path fill="none" stroke="#000000" stroke-width="2" stroke-miterlimit="10" d="M367.269,360.907c0,0-5.999-10.888-0.007-18.201"/>
<path fill="none" stroke="#000000" stroke-width="3" stroke-miterlimit="10" d="M391.341,347.862c0,0,207.44-38.859,284.142-291.43"
	/>
<polyline fill="none" stroke="#000000" stroke-width="3" stroke-miterlimit="10" points="656.46,62.099 656.864,52.283 
	649.345,58.179 "/>
<polyline fill="none" stroke="#000000" stroke-width="3" stroke-miterlimit="10" points="662.937,64.527 662.801,56.027 
	656.595,62.301 "/>
<polyline fill="none" stroke="#000000" stroke-width="3" stroke-miterlimit="10" points="669.412,65.337 669.008,56.432 
	661.488,62.227 "/>
<polyline fill="none" stroke="#000000" stroke-width="3" stroke-miterlimit="10" points="677.035,66.686 675.483,56.331 
	669.412,65.337 "/>
<path fill="none" stroke="#000000" stroke-width="2" stroke-miterlimit="10" d="M574.326-71.14
	c4.662-14.403,29.717-16.645,29.717-16.645s-29.455-9.516-27.492-24.615"/>
<path fill="none" stroke="#000000" stroke-width="2" stroke-miterlimit="10" d="M582.822-99.293
	c-6.375,9.101-0.007,18.201-0.007,18.201"/>
<path fill="none" stroke="#000000" stroke-width="2" stroke-miterlimit="10" d="M582.815-81.092c0,0,5.999-10.888,0.007-18.201"/>
<line fill="none" stroke="#000000" stroke-width="2" stroke-miterlimit="10" x1="639.5" y1="-53" x2="639.5" y2="-9"/>
<polyline fill="none" stroke="#000000" stroke-width="2" stroke-miterlimit="10" points="639.429,-19.157 645.5,-9.139 645.5,-53 
	"/>
<line fill="none" stroke="#000000" stroke-width="2" stroke-miterlimit="10" x1="449.5" y1="20" x2="449.5" y2="64"/>
<polyline fill="none" stroke="#000000" stroke-width="2" stroke-miterlimit="10" points="450.428,53.771 456.5,63.718 456.5,20 "/>
<line fill="none" stroke="#000000" stroke-width="2" stroke-miterlimit="10" x1="474.5" y1="117" x2="474.5" y2="161"/>
<polyline fill="none" stroke="#000000" stroke-width="2" stroke-miterlimit="10" points="474.429,150.842 480.5,160.86 480.5,117 
	"/>
<line fill="none" stroke="#000000" stroke-width="2" stroke-miterlimit="10" x1="504.5" y1="197" x2="504.5" y2="241"/>
<polyline fill="none" stroke="#000000" stroke-width="2" stroke-miterlimit="10" points="504.429,230.914 510.5,241.003 510.5,197 
	"/>
<line fill="none" stroke="#000000" stroke-width="2" stroke-miterlimit="10" x1="543.5" y1="251" x2="543.5" y2="296"/>
<polyline fill="none" stroke="#000000" stroke-width="2" stroke-miterlimit="10" points="543.428,285.033 549.5,295.241 549.5,251 
	"/>
<path fill="none" stroke="#000000" stroke-width="2" stroke-miterlimit="10" d="M887.746,251.051
	c4.661-14.403,29.717-16.645,29.717-16.645s-29.455-9.516-27.493-24.615"/>
<path fill="none" stroke="#000000" stroke-width="2" stroke-miterlimit="10" d="M896.242,222.896
	c-6.376,9.101-0.007,18.201-0.007,18.201"/>
<path fill="none" stroke="#000000" stroke-width="2" stroke-miterlimit="10" d="M896.235,241.098c0,0,5.999-10.888,0.007-18.201"/>
<path fill="none" stroke="#000000" stroke-width="2" stroke-miterlimit="10" d="M887.746,6.574
	c4.661-14.403,29.717-16.644,29.717-16.644s-29.455-9.516-27.493-24.615"/>
<path fill="none" stroke="#000000" stroke-width="2" stroke-miterlimit="10" d="M896.242-21.58
	c-6.376,9.101-0.007,18.202-0.007,18.202"/>
<path fill="none" stroke="#000000" stroke-width="2" stroke-miterlimit="10" d="M896.235-3.378c0,0,5.999-10.888,0.007-18.202"/>
<path fill="none" stroke="#000000" stroke-width="2" stroke-miterlimit="10" d="M887.746,132.051
	c4.661-14.403,29.717-16.645,29.717-16.645s-29.455-9.516-27.493-24.615"/>
<path fill="none" stroke="#000000" stroke-width="2" stroke-miterlimit="10" d="M896.242,103.896
	c-6.376,9.101-0.007,18.202-0.007,18.202"/>
<path fill="none" stroke="#000000" stroke-width="2" stroke-miterlimit="10" d="M896.235,122.099c0,0,5.999-10.889,0.007-18.202"/>
<path fill="none" stroke="#000000" stroke-width="3" stroke-miterlimit="10" d="M872.163,116.607c0,0-227.745,60.849-271.46-60.58"
	/>
<path fill="none" stroke="#000000" stroke-width="3" stroke-miterlimit="10" d="M872.163-10.007c0,0-221.81,183.719-265.523,62.291"
	/>
<path fill="none" stroke="#000000" stroke-width="3" stroke-miterlimit="10" d="M872.163,228.053
	c0,0-208.317,10.688-277.667-171.621"/>
<path fill="none" stroke="#000000" stroke-width="2" stroke-miterlimit="10" d="M887.746,370.859
	c4.661-14.402,29.717-16.644,29.717-16.644s-29.455-9.517-27.493-24.615"/>
<path fill="none" stroke="#000000" stroke-width="2" stroke-miterlimit="10" d="M896.242,342.706
	c-6.376,9.101-0.007,18.201-0.007,18.201"/>
<path fill="none" stroke="#000000" stroke-width="2" stroke-miterlimit="10" d="M896.235,360.907c0,0,5.999-10.888,0.007-18.201"/>
<path fill="none" stroke="#000000" stroke-width="3" stroke-miterlimit="10" d="M872.163,347.862c0,0-207.44-38.859-284.143-291.43"
	/>
<polyline fill="none" stroke="#000000" stroke-width="3" stroke-miterlimit="10" points="607.044,62.099 606.64,52.283 
	614.159,58.179 "/>
<polyline fill="none" stroke="#000000" stroke-width="3" stroke-miterlimit="10" points="600.568,64.527 600.703,56.027 
	606.909,62.301 "/>
<polyline fill="none" stroke="#000000" stroke-width="3" stroke-miterlimit="10" points="594.092,65.337 594.496,56.432 
	602.016,62.227 "/>
<polyline fill="none" stroke="#000000" stroke-width="3" stroke-miterlimit="10" points="586.469,66.686 588.021,56.331 
	594.092,65.337 "/>
<line fill="none" stroke="#000000" stroke-width="2" stroke-miterlimit="10" x1="805.5" y1="20" x2="805.5" y2="64"/>
<polyline fill="none" stroke="#000000" stroke-width="2" stroke-miterlimit="10" points="805.429,53.771 811.5,63.718 811.5,20 "/>
<line fill="none" stroke="#000000" stroke-width="2" stroke-miterlimit="10" x1="781.5" y1="117" x2="781.5" y2="161"/>
<polyline fill="none" stroke="#000000" stroke-width="2" stroke-miterlimit="10" points="781.428,150.842 787.5,160.86 787.5,117 
	"/>
<line fill="none" stroke="#000000" stroke-width="2" stroke-miterlimit="10" x1="751.5" y1="197" x2="751.5" y2="241"/>
<polyline fill="none" stroke="#000000" stroke-width="2" stroke-miterlimit="10" points="751.429,230.914 757.5,241.003 757.5,197 
	"/>
<line fill="none" stroke="#000000" stroke-width="2" stroke-miterlimit="10" x1="712.5" y1="251" x2="712.5" y2="296"/>
<polyline fill="none" stroke="#000000" stroke-width="2" stroke-miterlimit="10" points="712.429,285.033 718.5,295.241 718.5,251 
	"/>
<circle fill="none" stroke="#000000" stroke-miterlimit="10" cx="584.404" cy="-62.361" r="4.189"/>
<polyline fill="none" stroke="#000000" stroke-miterlimit="10" points="587.035,-68.195 590.272,-68.195 590.272,-64.957 "/>
<line fill="none" stroke="#000000" stroke-miterlimit="10" x1="590.272" y1="-68.195" x2="587.375" y2="-65.314"/>
<circle fill="none" stroke="#000000" stroke-miterlimit="10" cx="678.125" cy="-63.184" r="4.189"/>
<line fill="none" stroke="#000000" stroke-miterlimit="10" x1="678.118" y1="-58.995" x2="678.118" y2="-54.844"/>
<line fill="none" stroke="#000000" stroke-miterlimit="10" x1="675.791" y1="-57.034" x2="680.446" y2="-57.034"/>
<circle fill="none" stroke="#000000" stroke-miterlimit="10" cx="364.001" cy="15.354" r="4.189"/>
<polyline fill="none" stroke="#000000" stroke-miterlimit="10" points="366.632,9.519 369.87,9.519 369.87,12.757 "/>
<line fill="none" stroke="#000000" stroke-miterlimit="10" x1="369.87" y1="9.519" x2="366.972" y2="12.4"/>
<circle fill="none" stroke="#000000" stroke-miterlimit="10" cx="364.001" cy="140.829" r="4.189"/>
<polyline fill="none" stroke="#000000" stroke-miterlimit="10" points="366.632,134.995 369.87,134.995 369.87,138.233 "/>
<line fill="none" stroke="#000000" stroke-miterlimit="10" x1="369.87" y1="134.995" x2="366.972" y2="137.876"/>
<circle fill="none" stroke="#000000" stroke-miterlimit="10" cx="364.001" cy="259.829" r="4.189"/>
<polyline fill="none" stroke="#000000" stroke-miterlimit="10" points="366.632,253.995 369.87,253.995 369.87,257.233 "/>
<line fill="none" stroke="#000000" stroke-miterlimit="10" x1="369.87" y1="253.995" x2="366.972" y2="256.877"/>
<circle fill="none" stroke="#000000" stroke-miterlimit="10" cx="364.001" cy="379.639" r="4.189"/>
<polyline fill="none" stroke="#000000" stroke-miterlimit="10" points="366.632,373.805 369.87,373.805 369.87,377.043 "/>
<line fill="none" stroke="#000000" stroke-miterlimit="10" x1="369.87" y1="373.805" x2="366.972" y2="376.687"/>
<circle fill="none" stroke="#000000" stroke-miterlimit="10" cx="898.529" cy="14.531" r="4.189"/>
<line fill="none" stroke="#000000" stroke-miterlimit="10" x1="898.536" y1="18.72" x2="898.536" y2="22.871"/>
<line fill="none" stroke="#000000" stroke-miterlimit="10" x1="900.864" y1="20.68" x2="896.209" y2="20.68"/>
<circle fill="none" stroke="#000000" stroke-miterlimit="10" cx="898.529" cy="140.007" r="4.189"/>
<line fill="none" stroke="#000000" stroke-miterlimit="10" x1="898.536" y1="144.195" x2="898.536" y2="148.347"/>
<line fill="none" stroke="#000000" stroke-miterlimit="10" x1="900.864" y1="146.156" x2="896.209" y2="146.156"/>
<circle fill="none" stroke="#000000" stroke-miterlimit="10" cx="898.529" cy="259.007" r="4.189"/>
<line fill="none" stroke="#000000" stroke-miterlimit="10" x1="898.536" y1="263.195" x2="898.536" y2="267.347"/>
<line fill="none" stroke="#000000" stroke-miterlimit="10" x1="900.864" y1="265.156" x2="896.209" y2="265.156"/>
<circle fill="none" stroke="#000000" stroke-miterlimit="10" cx="898.529" cy="378.815" r="4.189"/>
<line fill="none" stroke="#000000" stroke-miterlimit="10" x1="898.536" y1="383.005" x2="898.536" y2="387.156"/>
<line fill="none" stroke="#000000" stroke-miterlimit="10" x1="900.864" y1="384.966" x2="896.209" y2="384.966"/>
<path fill="none" stroke="#000000" stroke-width="2" stroke-miterlimit="10" d="M558.536,4.663
	c125.037,13.861,40.07-38.701,34.756,40.197"/>
<path fill="none" stroke="#000000" stroke-width="2" stroke-miterlimit="10" d="M628.879,4.663
	c125.037,13.861,40.071-38.701,34.756,40.197"/>
<path fill="none" stroke="#000000" stroke-width="3" stroke-miterlimit="10" d="M600.604-76.87c0,0,41.689,25.933,63.647,70.159"/>
<polyline fill="none" stroke="#000000" stroke-width="3" stroke-miterlimit="10" points="654.976,-12.619 664.115,-6.812 
	666.04,-16.801 "/>
<path fill="none" stroke="#000000" stroke-width="3" stroke-miterlimit="10" d="M662.802-76.87c0,0-41.69,25.933-63.647,70.159"/>
<polyline fill="none" stroke="#000000" stroke-width="3" stroke-miterlimit="10" points="608.429,-12.619 599.289,-6.812 
	597.365,-16.801 "/>
</svg>
