<?xml version="1.0" encoding="utf-8"?>
<!-- Generator: Adobe Illustrator 16.0.0, SVG Export Plug-In . SVG Version: 6.00 Build 0)  -->
<!DOCTYPE svg PUBLIC "-//W3C//DTD SVG 1.1//EN" "http://www.w3.org/Graphics/SVG/1.1/DTD/svg11.dtd">
<svg version="1.1" id="Calque_1" xmlns="http://www.w3.org/2000/svg" xmlns:xlink="http://www.w3.org/1999/xlink" x="0px" y="0px"
	 width="1232.555px" height="506.396px" viewBox="0 -115.396 1232.555 506.396"
	 enable-background="new 0 -115.396 1232.555 506.396" xml:space="preserve">
<path opacity="0.8" fill="none" stroke="#000000" stroke-width="1.5" stroke-miterlimit="10" d="M350.93,206.74
	c0,0-4.57,4.682-9.939,4.371c-4.426-0.256-8.14-4.371-8.14-4.371s3.524-4.341,8.532-4.526
	C346.292,202.032,350.93,206.74,350.93,206.74z"/>
<circle opacity="0.8" fill="none" stroke="#000000" stroke-width="2" stroke-miterlimit="10" cx="341.89" cy="206.604" r="2.946"/>
<polyline fill="none" stroke="#000000" stroke-width="2" stroke-miterlimit="10" points="743.5,200 743.5,105 780.5,105 780.5,66 
	818.5,66 818.5,26 863.5,26 863.5,200 "/>
<path fill="none" stroke="#000000" stroke-width="2" stroke-miterlimit="10" d="M754.342,23.96
	c0-27.137,21.992-49.122,49.123-49.122c27.13,0,49.122,21.985,49.122,49.122"/>
<rect x="743.5" y="-112" fill="none" stroke="#000000" stroke-width="2" stroke-miterlimit="10" width="11" height="216"/>
<rect x="852.5" y="-112" fill="none" stroke="#000000" stroke-width="2" stroke-miterlimit="10" width="11" height="137"/>
<path opacity="0.8" fill="none" stroke="#000000" stroke-miterlimit="10" d="M745.228,119.096c0,0,3.288-4.322,7.959-4.507
	c4.578-0.181,8.906,4.507,8.906,4.507s-4.264,4.663-9.272,4.353C748.692,123.194,745.228,119.096,745.228,119.096"/>
<path opacity="0.8" fill="none" stroke="#000000" stroke-miterlimit="10" d="M750.912,118.961c0-1.621,1.229-2.932,2.748-2.932
	c1.518,0,2.747,1.312,2.747,2.932s-1.229,2.934-2.747,2.934C752.142,121.895,750.912,120.582,750.912,118.961"/>
<path opacity="0.8" fill="none" stroke="#000000" stroke-miterlimit="10" d="M779.127,119.096c0,0-4.264,4.663-9.271,4.353
	c-4.128-0.255-7.593-4.353-7.593-4.353s3.288-4.322,7.958-4.507C774.8,114.407,779.127,119.096,779.127,119.096z"/>
<ellipse opacity="0.8" fill="none" stroke="#000000" stroke-miterlimit="10" cx="770.695" cy="118.961" rx="2.748" ry="2.934"/>
<path opacity="0.8" fill="none" stroke="#000000" stroke-miterlimit="10" d="M837.77,41.296c0,0-4.264,4.663-9.271,4.353
	c-4.129-0.256-7.593-4.353-7.593-4.353s3.288-4.323,7.958-4.508C833.443,36.607,837.77,41.296,837.77,41.296z"/>
<ellipse opacity="0.8" fill="none" stroke="#000000" stroke-miterlimit="10" cx="829.337" cy="41.162" rx="2.748" ry="2.933"/>
<path opacity="0.8" fill="none" stroke="#000000" stroke-miterlimit="10" d="M796.162,119.096c0,0-4.264,4.663-9.271,4.353
	c-4.129-0.255-7.593-4.353-7.593-4.353s3.287-4.322,7.958-4.507C791.835,114.407,796.162,119.096,796.162,119.096z"/>
<ellipse opacity="0.8" fill="none" stroke="#000000" stroke-miterlimit="10" cx="787.729" cy="118.961" rx="2.747" ry="2.934"/>
<path opacity="0.8" fill="none" stroke="#000000" stroke-miterlimit="10" d="M783.214,80.379c0,0,3.288-4.323,7.959-4.508
	c4.579-0.181,8.906,4.508,8.906,4.508s-4.264,4.662-9.272,4.353C786.679,84.476,783.214,80.379,783.214,80.379"/>
<path opacity="0.8" fill="none" stroke="#000000" stroke-miterlimit="10" d="M788.899,80.245c0-1.621,1.229-2.933,2.747-2.933
	s2.748,1.313,2.748,2.933c0,1.62-1.23,2.933-2.748,2.933S788.899,81.864,788.899,80.245"/>
<path opacity="0.8" fill="none" stroke="#000000" stroke-miterlimit="10" d="M817.113,80.379c0,0-4.264,4.662-9.271,4.353
	c-4.127-0.255-7.593-4.353-7.593-4.353s3.288-4.323,7.959-4.508C812.787,75.689,817.113,80.379,817.113,80.379z"/>
<ellipse opacity="0.8" fill="none" stroke="#000000" stroke-miterlimit="10" cx="808.682" cy="80.245" rx="2.748" ry="2.933"/>
<path opacity="0.7" fill="none" stroke="#000000" stroke-miterlimit="10" d="M341.678,276.382
	C620.095,354.568,768,200.247,768,200.247V186"/>
<path opacity="0.7" fill="none" stroke="#000000" stroke-miterlimit="10" d="M498.551,312.907
	C690.221,345.55,784,200.247,784,200.247V186"/>
<path opacity="0.7" fill="none" stroke="#000000" stroke-miterlimit="10" d="M945.755,335.731
	c-147.288-28.435-141.907-136.123-141.907-136.123l0.002-13.972"/>
<path opacity="0.7" fill="none" stroke="#000000" stroke-miterlimit="10" d="M909.785,271.262
	C832.604,240.967,818,199.334,818,199.334V186"/>
<path opacity="0.7" fill="none" stroke="#000000" stroke-miterlimit="10" d="M632.992,243.508
	C687.143,242.438,752,202.562,752,202.562V186"/>
<polyline opacity="0.7" fill="none" stroke="#000000" stroke-miterlimit="10" points="749.506,189.837 752.069,185.636 
	754.627,189.837 "/>
<polyline opacity="0.7" fill="none" stroke="#000000" stroke-miterlimit="10" points="765.296,189.837 767.86,185.636 
	770.417,189.837 "/>
<polyline opacity="0.7" fill="none" stroke="#000000" stroke-miterlimit="10" points="781.087,189.837 783.651,185.636 
	786.208,189.837 "/>
<polyline opacity="0.7" fill="none" stroke="#000000" stroke-miterlimit="10" points="801.287,189.837 803.852,185.636 
	806.408,189.837 "/>
<polyline opacity="0.7" fill="none" stroke="#000000" stroke-miterlimit="10" points="815.067,189.837 817.631,185.636 
	820.189,189.837 "/>
<path opacity="0.7" fill="none" stroke="#000000" stroke-miterlimit="10" d="M937.359,221.325
	C863.394,220.58,836,199.334,836,199.334V186"/>
<polyline opacity="0.7" fill="none" stroke="#000000" stroke-miterlimit="10" points="833.234,189.837 835.799,185.636 
	838.355,189.837 "/>
<path opacity="0.4" fill="none" stroke="#000000" stroke-width="1.5" stroke-miterlimit="10" d="M356.409,205.2
	c0,0,108.665-11.663,188.394,20.834"/>
<polyline opacity="0.4" fill="none" stroke="#000000" stroke-width="1.5" stroke-miterlimit="10" points="537.212,226.867 
	544.883,226.229 541.96,220.262 "/>
<path opacity="0.4" fill="none" stroke="#000000" stroke-width="1.5" stroke-miterlimit="10" d="M733.723,216.424
	c0,0-56.845-31.55-134.462,6.688"/>
<polyline opacity="0.4" fill="none" stroke="#000000" stroke-width="2" stroke-miterlimit="10" points="606.5,224 599.181,224 
	601.44,217.912 "/>
<path opacity="0.8" fill="none" stroke="#000000" stroke-width="1.5" stroke-miterlimit="10" d="M758.742,218.197
	c0,0-4.57,4.683-9.94,4.371c-4.426-0.256-8.14-4.371-8.14-4.371s3.524-4.342,8.531-4.527
	C754.104,213.489,758.742,218.197,758.742,218.197z"/>
<circle opacity="0.8" fill="none" stroke="#000000" stroke-width="1.5" stroke-miterlimit="10" cx="749.702" cy="218.063" r="2.945"/>
<path opacity="0.4" fill="none" stroke="#000000" stroke-width="1.5" stroke-miterlimit="10" d="M501.486,305.711
	c0,0,27.543-10.266,57.276-51.905"/>
<line opacity="0.4" fill="none" stroke="#000000" stroke-width="2" stroke-miterlimit="10" x1="520.5" y1="280" x2="520.5" y2="306"/>
<polyline opacity="0.4" fill="none" stroke="#000000" stroke-width="2" stroke-miterlimit="10" points="520.676,300.05 
	523.5,306.402 523.5,280 "/>
<path opacity="0.8" fill="none" stroke="#000000" stroke-width="1.5" stroke-miterlimit="10" d="M496.12,310.242
	c0,0-4.57,4.683-9.94,4.372c-4.424-0.257-8.14-4.372-8.14-4.372s3.525-4.34,8.532-4.525
	C491.481,305.534,496.12,310.242,496.12,310.242z"/>
<circle opacity="0.8" fill="none" stroke="#000000" stroke-width="1.5" stroke-miterlimit="10" cx="487.08" cy="310.107" r="2.945"/>
<path opacity="0.8" fill="none" stroke="#000000" stroke-width="1.5" stroke-miterlimit="10" d="M499.295,317.916
	c0,0,80.105,31.778,167.95,0"/>
<path opacity="0.4" fill="none" stroke="#000000" stroke-width="1.5" stroke-miterlimit="10" d="M518.842,355.788
	c0,0,93.979-15.428,64.394-104.464"/>
<path opacity="0.8" fill="none" stroke="#000000" stroke-width="1.5" stroke-miterlimit="10" d="M512.923,362.84
	c0,0-4.571,4.683-9.941,4.371c-4.425-0.256-8.14-4.371-8.14-4.371s3.525-4.342,8.533-4.527
	C508.284,358.132,512.923,362.84,512.923,362.84z"/>
<circle opacity="0.8" fill="none" stroke="#000000" stroke-width="1.5" stroke-miterlimit="10" cx="503.882" cy="362.705" r="2.945"/>
<path opacity="0.8" fill="none" stroke="#000000" stroke-width="1.5" stroke-miterlimit="10" d="M644.781,277.182
	c0,0,27.132-32.007,95.149-49.469"/>
<path opacity="0.8" fill="none" stroke="#000000" stroke-width="1.5" stroke-miterlimit="10" d="M339.5,269.238
	c0,0,106.58-46.479,266.811,24.222"/>
<path opacity="0.8" fill="none" stroke="#000000" stroke-width="1.5" stroke-miterlimit="10" d="M630.9,249.976
	c0,0-4.569,4.682-9.939,4.37c-4.425-0.257-8.14-4.37-8.14-4.37s3.524-4.343,8.532-4.528
	C626.263,245.267,630.9,249.976,630.9,249.976z"/>
<circle opacity="0.8" fill="none" stroke="#000000" stroke-width="1.5" stroke-miterlimit="10" cx="621.861" cy="249.841" r="2.946"/>
<path opacity="0.8" fill="none" stroke="#000000" stroke-width="1.5" stroke-miterlimit="10" d="M637.476,250.152
	c0,0,68.082,4.487,96.247,29.222"/>
<path opacity="0.8" fill="none" stroke="#000000" stroke-width="1.5" stroke-miterlimit="10" d="M335.041,271.525
	c0,0-4.57,4.683-9.94,4.371c-4.425-0.257-8.14-4.371-8.14-4.371s3.525-4.342,8.533-4.526
	C330.403,266.816,335.041,271.525,335.041,271.525z"/>
<circle opacity="0.8" fill="none" stroke="#000000" stroke-width="1.5" stroke-miterlimit="10" cx="326.001" cy="271.39" r="2.946"/>
<path opacity="0.4" fill="none" stroke="#000000" stroke-width="1.5" stroke-miterlimit="10" d="M352.392,214.723
	c0,0,66.664,8.754,63.481,51.855"/>
<path opacity="0.8" fill="none" stroke="#000000" stroke-width="1.5" stroke-miterlimit="10" d="M333.58,365.031
	c0,0-4.571,4.683-9.94,4.372c-4.426-0.257-8.14-4.372-8.14-4.372s3.525-4.342,8.532-4.527
	C328.941,360.322,333.58,365.031,333.58,365.031z"/>
<circle opacity="0.8" fill="none" stroke="#000000" stroke-width="1.5" stroke-miterlimit="10" cx="324.54" cy="364.896" r="2.946"/>
<path opacity="0.4" fill="none" stroke="#000000" stroke-width="1.5" stroke-miterlimit="10" d="M336.32,357.174
	c0,0,47.97-17.385,69.764-55.153"/>
<path opacity="0.8" fill="none" stroke="#000000" stroke-width="1.5" stroke-miterlimit="10" d="M755.82,352.979
	c0,0-4.571,4.682-9.94,4.371c-4.426-0.257-8.141-4.371-8.141-4.371s3.525-4.342,8.532-4.527
	C751.182,348.27,755.82,352.979,755.82,352.979z"/>
<circle opacity="0.8" fill="none" stroke="#000000" stroke-width="1.5" stroke-miterlimit="10" cx="746.78" cy="352.844" r="2.946"/>
<path opacity="0.8" fill="none" stroke="#000000" stroke-width="1.5" stroke-miterlimit="10" d="M954.156,213.085
	c0,0-4.571,4.681-9.941,4.37c-4.425-0.257-8.14-4.37-8.14-4.37s3.525-4.342,8.532-4.527
	C949.517,208.376,954.156,213.085,954.156,213.085z"/>
<circle opacity="0.8" fill="none" stroke="#000000" stroke-width="1.5" stroke-miterlimit="10" cx="945.115" cy="212.948" r="2.946"/>
<path opacity="0.8" fill="none" stroke="#000000" stroke-width="1.5" stroke-miterlimit="10" d="M927.126,279.562
	c0,0-4.57,4.681-9.94,4.37c-4.424-0.256-8.139-4.37-8.139-4.37s3.523-4.342,8.531-4.527
	C922.487,274.853,927.126,279.562,927.126,279.562z"/>
<circle opacity="0.8" fill="none" stroke="#000000" stroke-width="1.5" stroke-miterlimit="10" cx="918.086" cy="279.426" r="2.946"/>
<path opacity="0.8" fill="none" stroke="#000000" stroke-width="1.5" stroke-miterlimit="10" d="M953.791,345.309
	c0,0-4.571,4.681-9.941,4.37c-4.425-0.257-8.14-4.37-8.14-4.37s3.525-4.343,8.532-4.528
	C949.151,340.6,953.791,345.309,953.791,345.309z"/>
<circle opacity="0.8" fill="none" stroke="#000000" stroke-width="1.5" stroke-miterlimit="10" cx="944.75" cy="345.173" r="2.946"/>
<path opacity="0.4" fill="none" stroke="#000000" stroke-width="1.5" stroke-miterlimit="10" d="M338.511,363.748
	c0,0,37.622-17.775,66.842-6.384"/>
<path opacity="0.4" fill="none" stroke="#000000" stroke-width="1.5" stroke-miterlimit="10" d="M518.842,368.589
	c0,0,35.483,13.423,75.351,1.811"/>
<path opacity="0.4" fill="none" stroke="#000000" stroke-width="1.5" stroke-miterlimit="10" d="M630.246,371.146
	c0,0,61.197,10.846,101.285-13.972"/>
<path opacity="0.8" fill="none" stroke="#000000" stroke-width="1.5" stroke-miterlimit="10" d="M836.984,255.631
	c0,0-5.373,69.347-78.133,88.432"/>
<path opacity="0.8" fill="none" stroke="#000000" stroke-width="1.5" stroke-miterlimit="10" d="M852.358,254.524
	c0,0,30.389,38.037,48.652,24.964"/>
<path opacity="0.4" fill="none" stroke="#000000" stroke-width="1.5" stroke-miterlimit="10" d="M434.833,364.205
	c0,0,32.797,15.615,53.875,1.445"/>
<path opacity="0.4" fill="none" stroke="#000000" stroke-width="1.5" stroke-miterlimit="10" d="M430.119,297.347
	c0,0,36.728,53.693,64.723,56.561"/>
<path opacity="0.4" fill="none" stroke="#000000" stroke-width="1.5" stroke-miterlimit="10" d="M436.659,284.841
	c0,0,50.421-7.659,44.925,16.963"/>
<path opacity="0.4" fill="none" stroke="#000000" stroke-width="1.5" stroke-miterlimit="10" d="M334.493,279.739
	c0,0,9.984,25.324,61.121,5.357"/>
<path opacity="0.8" fill="none" stroke="#000000" stroke-width="1.5" stroke-miterlimit="10" d="M762.471,353.51
	c0,0,53.685,6.222,76.705-10.392"/>
<path opacity="0.8" fill="none" stroke="#000000" stroke-width="1.5" stroke-miterlimit="10" d="M870.329,345.234
	c0,0,39.941,20.71,55.793,4.102"/>
<path opacity="0.8" fill="none" stroke="#000000" stroke-width="1.5" stroke-miterlimit="10" d="M762.471,226.765
	c0,0,28.977,13.952,56.972,16.817"/>
<path opacity="0.8" fill="none" stroke="#000000" stroke-width="1.5" stroke-miterlimit="10" d="M864.743,232.244
	c0,0,32.798-27.748,62.383-21.049"/>
<path opacity="0.8" fill="none" stroke="#000000" stroke-width="1.5" stroke-miterlimit="10" d="M772.438,288.179
	c0,0,69.388-2.331,163.183,46.728"/>
<path opacity="0.8" fill="none" stroke="#000000" stroke-width="1.5" stroke-miterlimit="10" d="M743.219,339.642
	c0,0-4.627-17.289-44.806-19.724"/>
<line opacity="0.4" fill="none" stroke="#000000" stroke-width="2" stroke-miterlimit="10" x1="663.5" y1="196" x2="663.5" y2="223"/>
<polyline opacity="0.4" fill="none" stroke="#000000" stroke-width="2" stroke-miterlimit="10" points="663.848,216.546 
	667.5,222.759 667.5,196 "/>
<line opacity="0.4" fill="none" stroke="#000000" stroke-width="2" stroke-miterlimit="10" x1="445.5" y1="196" x2="445.5" y2="223"/>
<polyline opacity="0.4" fill="none" stroke="#000000" stroke-width="2" stroke-miterlimit="10" points="444.847,216.546 
	448.5,222.759 448.5,196 "/>
<line opacity="0.8" fill="none" stroke="#000000" stroke-width="2" stroke-miterlimit="10" x1="481.5" y1="242" x2="481.5" y2="269"/>
<polyline opacity="0.8" fill="none" stroke="#000000" stroke-width="2" stroke-miterlimit="10" points="481.848,262.738 
	485.5,269.146 485.5,242 "/>
<line opacity="0.4" fill="none" stroke="#000000" stroke-width="2" stroke-miterlimit="10" x1="371.5" y1="272" x2="371.5" y2="299"/>
<polyline opacity="0.4" fill="none" stroke="#000000" stroke-width="2" stroke-miterlimit="10" points="370.848,292.897 
	374.5,299.462 374.5,272 "/>
<line opacity="0.4" fill="none" stroke="#000000" stroke-width="2" stroke-miterlimit="10" x1="385.5" y1="215" x2="385.5" y2="242"/>
<polyline opacity="0.4" fill="none" stroke="#000000" stroke-width="2" stroke-miterlimit="10" points="385.847,235.725 
	389.5,242.117 389.5,215 "/>
<line opacity="0.8" fill="none" stroke="#000000" stroke-width="2" stroke-miterlimit="10" x1="708.5" y1="224" x2="708.5" y2="252"/>
<polyline opacity="0.8" fill="none" stroke="#000000" stroke-width="2" stroke-miterlimit="10" points="707.849,244.791 
	711.5,251.248 711.5,224 "/>
<line opacity="0.8" fill="none" stroke="#000000" stroke-width="2" stroke-miterlimit="10" x1="685.5" y1="254" x2="685.5" y2="281"/>
<polyline opacity="0.8" fill="none" stroke="#000000" stroke-width="2" stroke-miterlimit="10" points="685.848,274.218 
	689.5,280.104 689.5,254 "/>
<line opacity="0.4" fill="none" stroke="#000000" stroke-width="2" stroke-miterlimit="10" x1="541.5" y1="333" x2="541.5" y2="361"/>
<polyline opacity="0.4" fill="none" stroke="#000000" stroke-width="2" stroke-miterlimit="10" points="540.848,353.898 
	544.5,360.461 544.5,333 "/>
<line opacity="0.8" fill="none" stroke="#000000" stroke-width="2" stroke-miterlimit="10" x1="632.5" y1="314" x2="632.5" y2="341"/>
<polyline opacity="0.8" fill="none" stroke="#000000" stroke-width="2" stroke-miterlimit="10" points="632.849,334.9 
	636.5,341.468 636.5,314 "/>
<line opacity="0.4" fill="none" stroke="#000000" stroke-width="2" stroke-miterlimit="10" x1="455.5" y1="276" x2="455.5" y2="303"/>
<polyline opacity="0.4" fill="none" stroke="#000000" stroke-width="2" stroke-miterlimit="10" points="454.847,296.723 
	458.5,303.115 458.5,276 "/>
<line opacity="0.4" fill="none" stroke="#000000" stroke-width="2" stroke-miterlimit="10" x1="463.5" y1="329" x2="463.5" y2="357"/>
<polyline opacity="0.4" fill="none" stroke="#000000" stroke-width="2" stroke-miterlimit="10" points="463.848,350.07 
	467.5,356.809 467.5,329 "/>
<line opacity="0.4" fill="none" stroke="#000000" stroke-width="2" stroke-miterlimit="10" x1="445.5" y1="360" x2="445.5" y2="387"/>
<polyline opacity="0.4" fill="none" stroke="#000000" stroke-width="2" stroke-miterlimit="10" points="444.848,380.729 
	448.5,387.125 448.5,360 "/>
<line opacity="0.4" fill="none" stroke="#000000" stroke-width="2" stroke-miterlimit="10" x1="556.5" y1="361" x2="556.5" y2="388"/>
<polyline opacity="0.4" fill="none" stroke="#000000" stroke-width="2" stroke-miterlimit="10" points="556.848,381.594 
	560.5,387.854 560.5,361 "/>
<line opacity="0.4" fill="none" stroke="#000000" stroke-width="2" stroke-miterlimit="10" x1="686.5" y1="357" x2="686.5" y2="384"/>
<polyline opacity="0.4" fill="none" stroke="#000000" stroke-width="2" stroke-miterlimit="10" points="686.848,377.221 
	690.5,383.106 690.5,357 "/>
<line opacity="0.8" fill="none" stroke="#000000" stroke-width="2" stroke-miterlimit="10" x1="722.5" y1="314" x2="722.5" y2="341"/>
<polyline opacity="0.8" fill="none" stroke="#000000" stroke-width="2" stroke-miterlimit="10" points="722.857,334.9 
	725.5,341.468 725.5,314 "/>
<line opacity="0.8" fill="none" stroke="#000000" stroke-width="2" stroke-miterlimit="10" x1="785.5" y1="314" x2="785.5" y2="341"/>
<polyline opacity="0.8" fill="none" stroke="#000000" stroke-width="2" stroke-miterlimit="10" points="785.847,335.082 
	789.5,341.832 789.5,314 "/>
<line opacity="0.8" fill="none" stroke="#000000" stroke-width="2" stroke-miterlimit="10" x1="816.5" y1="339" x2="816.5" y2="367"/>
<polyline opacity="0.8" fill="none" stroke="#000000" stroke-width="2" stroke-miterlimit="10" points="816.857,359.818 
	819.5,366.305 819.5,339 "/>
<line opacity="0.8" fill="none" stroke="#000000" stroke-width="2" stroke-miterlimit="10" x1="908.5" y1="346" x2="908.5" y2="372"/>
<polyline opacity="0.8" fill="none" stroke="#000000" stroke-width="2" stroke-miterlimit="10" points="908.858,366.24 
	911.5,372.149 911.5,346 "/>
<line opacity="0.8" fill="none" stroke="#000000" stroke-width="2" stroke-miterlimit="10" x1="884.5" y1="305" x2="884.5" y2="332"/>
<polyline opacity="0.8" fill="none" stroke="#000000" stroke-width="2" stroke-miterlimit="10" points="884.848,325.469 
	888.5,331.605 888.5,305 "/>
<line opacity="0.8" fill="none" stroke="#000000" stroke-width="2" stroke-miterlimit="10" x1="864.5" y1="260" x2="864.5" y2="287"/>
<polyline opacity="0.8" fill="none" stroke="#000000" stroke-width="2" stroke-miterlimit="10" points="864.859,280.324 
	867.5,286.313 867.5,260 "/>
<line opacity="0.8" fill="none" stroke="#000000" stroke-width="2" stroke-miterlimit="10" x1="892.5" y1="205" x2="892.5" y2="231"/>
<polyline opacity="0.8" fill="none" stroke="#000000" stroke-width="2" stroke-miterlimit="10" points="892.847,225.429 
	896.5,231.524 896.5,205 "/>
<line opacity="0.8" fill="none" stroke="#000000" stroke-width="2" stroke-miterlimit="10" x1="790.5" y1="229" x2="790.5" y2="256"/>
<polyline opacity="0.8" fill="none" stroke="#000000" stroke-width="2" stroke-miterlimit="10" points="790.847,249.481 
	794.5,255.631 794.5,229 "/>
<line opacity="0.4" fill="none" stroke="#000000" stroke-width="2" stroke-miterlimit="10" x1="383.5" y1="346" x2="383.5" y2="373"/>
<polyline opacity="0.4" fill="none" stroke="#000000" stroke-width="2" stroke-miterlimit="10" points="383.847,366.605 
	387.5,372.88 387.5,346 "/>
<line opacity="0.4" fill="none" stroke="#000000" stroke-width="2" stroke-miterlimit="10" x1="353.5" y1="327" x2="353.5" y2="355"/>
<polyline opacity="0.4" fill="none" stroke="#000000" stroke-width="2" stroke-miterlimit="10" points="353.847,347.792 
	357.5,354.251 357.5,327 "/>
<polyline opacity="0.8" fill="none" stroke="#000000" stroke-width="1.5" stroke-miterlimit="10" points="814.2,246.683 
	819.433,243.761 814.809,239.195 "/>
<polyline opacity="0.8" fill="none" stroke="#000000" stroke-width="2" stroke-miterlimit="10" points="837.42,350.583 839.176,344 
	833.5,344 "/>
<polyline opacity="0.8" fill="none" stroke="#000000" stroke-width="1.5" stroke-miterlimit="10" points="873.963,351.877 
	870.329,345.234 877.598,344.063 "/>
<polyline opacity="0.8" fill="none" stroke="#000000" stroke-width="1.5" stroke-miterlimit="10" points="778.831,284.304 
	772.394,288.165 777.371,292.522 "/>
<polyline opacity="0.8" fill="none" stroke="#000000" stroke-width="1.5" stroke-miterlimit="10" points="840.469,261.567 
	837.045,255.658 832.158,261.02 "/>
<polyline opacity="0.8" fill="none" stroke="#000000" stroke-width="1.5" stroke-miterlimit="10" points="859.37,255.51 
	852.386,254.563 852.796,261.354 "/>
<polyline opacity="0.8" fill="none" stroke="#000000" stroke-width="1.5" stroke-miterlimit="10" points="867.406,226.046 
	864.804,232.281 871.607,233.351 "/>
<polyline opacity="0.8" fill="none" stroke="#000000" stroke-width="1.5" stroke-miterlimit="10" points="732.078,272.343 
	733.676,279.399 725.777,279.009 "/>
<polyline opacity="0.4" fill="none" stroke="#000000" stroke-width="1.5" stroke-miterlimit="10" points="558.642,262.328 
	558.58,253.806 549.875,256.606 "/>
<polyline opacity="0.4" fill="none" stroke="#000000" stroke-width="1.5" stroke-miterlimit="10" points="590.357,257.958 
	583.189,251.273 581.591,261.354 "/>
<polyline opacity="0.8" fill="none" stroke="#000000" stroke-width="1.5" stroke-miterlimit="10" points="603.081,286.313 
	606.311,293.46 598.089,293.619 "/>
<polyline opacity="0.4" fill="none" stroke="#000000" stroke-width="1.5" stroke-miterlimit="10" points="412.02,261.658 
	415.873,266.578 419.873,261.567 "/>
<polyline opacity="0.4" fill="none" stroke="#000000" stroke-width="1.5" stroke-miterlimit="10" points="442.731,281.383 
	436.659,284.841 442.245,288.688 "/>
<polyline opacity="0.4" fill="none" stroke="#000000" stroke-width="1.5" stroke-miterlimit="10" points="437.131,298.717 
	430.119,297.347 429.948,304.211 "/>
<polyline opacity="0.4" fill="none" stroke="#000000" stroke-width="1.5" stroke-miterlimit="10" points="399.449,304.516 
	406.084,302.021 406.997,308.899 "/>
<polyline opacity="0.4" fill="none" stroke="#000000" stroke-width="1.5" stroke-miterlimit="10" points="388.43,283.392 
	395.614,285.097 391.23,291.67 "/>
<polyline opacity="0.4" fill="none" stroke="#000000" stroke-width="1.5" stroke-miterlimit="10" points="441.88,362.531 
	434.833,364.205 438.349,370.445 "/>
<polyline opacity="0.4" fill="none" stroke="#000000" stroke-width="1.5" stroke-miterlimit="10" points="401.092,351.33 
	405.354,357.364 398.17,359.609 "/>
<polyline opacity="0.8" fill="none" stroke="#000000" stroke-width="1.5" stroke-miterlimit="10" points="647.063,269.238 
	644.918,277.208 652.542,276.359 "/>
<polyline opacity="0.8" fill="none" stroke="#000000" stroke-width="1.5" stroke-miterlimit="10" points="659.026,315.839 
	667.245,317.916 661.705,324.422 "/>
<polyline opacity="0.8" fill="none" stroke="#000000" stroke-width="1.5" stroke-miterlimit="10" points="704.684,316.082 
	698.413,319.918 703.771,324.849 "/>
<polyline opacity="0.4" fill="none" stroke="#000000" stroke-width="1.5" stroke-miterlimit="10" points="586.521,367.036 
	594.192,370.399 588.167,377.994 "/>
<polyline opacity="0.4" fill="none" stroke="#000000" stroke-width="1.5" stroke-miterlimit="10" points="636.745,367.219 
	630.308,371.079 635.832,375.984 "/>
<path opacity="0.8" fill="none" stroke="#000000" stroke-width="1.5" stroke-miterlimit="10" d="M819.944,228.142
	c70.235,7.785,22.509-21.739,19.523,22.578"/>
<path opacity="0.8" fill="none" stroke="#000000" stroke-width="1.5" stroke-miterlimit="10" d="M737.122,268.971
	c70.236,7.785,22.509-21.74,19.523,22.578"/>
<path opacity="0.4" fill="none" stroke="#000000" stroke-width="1.5" stroke-miterlimit="10" d="M553.318,227.257
	c70.235,7.785,22.508-21.739,19.522,22.577"/>
<path opacity="0.4" fill="none" stroke="#000000" stroke-width="1.5" stroke-miterlimit="10" d="M396.883,277.139
	c70.235,7.785,22.508-21.739,19.523,22.578"/>
<path opacity="0.8" fill="none" stroke="#000000" stroke-width="1.5" stroke-miterlimit="10" d="M602.067,279.574
	c70.235,7.785,22.509-21.739,19.523,22.578"/>
<path opacity="0.8" fill="none" stroke="#000000" stroke-width="1.5" stroke-miterlimit="10" d="M661.826,306.055
	c70.234,7.786,22.507-21.739,19.521,22.58"/>
<path opacity="0.8" fill="none" stroke="#000000" stroke-width="1.5" stroke-miterlimit="10" d="M834.967,329.614
	c70.235,7.785,22.508-21.74,19.522,22.579"/>
<path opacity="0.4" fill="none" stroke="#000000" stroke-width="1.5" stroke-miterlimit="10" d="M590.654,358.835
	c70.234,7.786,22.508-21.739,19.522,22.578"/>
<path opacity="0.4" fill="none" stroke="#000000" stroke-width="1.5" stroke-miterlimit="10" d="M403.223,344.955
	c70.236,7.786,22.508-21.739,19.523,22.578"/>
<polyline opacity="0.8" fill="none" stroke="#000000" stroke-width="2" stroke-miterlimit="10" points="772.5,276 772.5,259.795 
	770.5,262.765 768.5,259.795 768.5,276 "/>
<polyline opacity="0.8" fill="none" stroke="#000000" stroke-width="2" stroke-miterlimit="10" points="636.5,287 636.5,270.388 
	635,273.357 633.5,270.388 633.5,287 "/>
<polyline opacity="0.8" fill="none" stroke="#000000" stroke-width="2" stroke-miterlimit="10" points="870.5,336 870.5,320.428 
	869,323.398 867.5,320.428 867.5,336 "/>
<polyline opacity="0.8" fill="none" stroke="#000000" stroke-width="2" stroke-miterlimit="10" points="855.5,235 855.5,218.887 
	853.998,221.856 852.5,218.887 852.5,235 "/>
<polyline opacity="0.8" fill="none" stroke="#000000" stroke-width="2" stroke-miterlimit="10" points="696.5,313 696.5,296.687 
	695,299.656 693.5,296.687 693.5,313 "/>
</svg>
