<?xml version="1.0" encoding="utf-8"?>
<!-- Generator: Adobe Illustrator 16.0.0, SVG Export Plug-In . SVG Version: 6.00 Build 0)  -->
<!DOCTYPE svg PUBLIC "-//W3C//DTD SVG 1.1//EN" "http://www.w3.org/Graphics/SVG/1.1/DTD/svg11.dtd">
<svg version="1.1" id="Calque_1" xmlns="http://www.w3.org/2000/svg" xmlns:xlink="http://www.w3.org/1999/xlink" x="0px" y="0px"
	 width="1232.555px" height="506.396px" viewBox="0 -115.396 1232.555 506.396"
	 enable-background="new 0 -115.396 1232.555 506.396" xml:space="preserve">
<polyline fill="none" stroke="#000000" stroke-width="4" stroke-miterlimit="10" points="904.152,93.373 928.286,-96.301 
	952.418,93.373 "/>
<line fill="none" stroke="#000000" stroke-width="4" stroke-miterlimit="10" x1="918.5" y1="26" x2="937.5" y2="26"/>
<line fill="none" stroke="#000000" stroke-width="4" stroke-miterlimit="10" x1="928.5" y1="15" x2="928.5" y2="40"/>
<path fill="none" stroke="#000000" stroke-width="3" stroke-miterlimit="10" d="M224.35,178.289c0,0-15.51,15.887-33.729,14.832
	C175.604,192.249,163,178.289,163,178.289s11.96-14.733,28.951-15.361C208.609,162.312,224.35,178.289,224.35,178.289z"/>
<path fill="none" stroke="#000000" stroke-width="3" stroke-miterlimit="10" d="M203.67,177.83c0,5.52-4.475,9.995-9.996,9.995
	c-5.52,0-9.995-4.475-9.995-9.995c0-5.523,4.475-9.996,9.995-9.996C199.195,167.834,203.67,172.307,203.67,177.83z"/>
<line fill="none" stroke="#000000" stroke-width="2" stroke-miterlimit="10" x1="317.303" y1="146.767" x2="696.904" y2="27.648"/>
<polyline fill="none" stroke="#000000" stroke-width="2" stroke-miterlimit="10" points="684.163,45.245 697.176,27.067 
	676.105,22.847 "/>
<path fill="none" stroke="#000000" stroke-width="2" stroke-miterlimit="10" d="M681.683,298.631"/>
<line fill="none" stroke="#000000" stroke-width="2" stroke-miterlimit="10" x1="317.303" y1="196.363" x2="696.904" y2="315.481"/>
<polyline fill="none" stroke="#000000" stroke-width="2" stroke-miterlimit="10" points="684.163,297.883 697.176,316.061 
	676.105,320.279 "/>
<path fill="none" stroke="#000000" stroke-width="5" stroke-miterlimit="10" d="M265.293,179.582
	c-17.197,9.156,2.205,43.903,9.938,10.721c13.245,33.735,27.808-4.133,8.936-10.721"/>
<polyline fill="none" stroke="#000000" stroke-width="6" stroke-miterlimit="10" points="778.148,36.445 801.697,24.296 
	778.148,12.146 "/>
<line fill="none" stroke="#000000" stroke-width="3" stroke-miterlimit="10" x1="813.5" y1="23.5" x2="830.5" y2="23.5"/>
<line fill="none" stroke="#000000" stroke-width="3" stroke-miterlimit="10" x1="851.5" y1="30.5" x2="884.5" y2="30.5"/>
<line fill="none" stroke="#000000" stroke-width="3" stroke-miterlimit="10" x1="851.5" y1="20.5" x2="884.5" y2="20.5"/>
<path fill="none" stroke="#000000" stroke-width="5" stroke-miterlimit="10" d="M295.074,120.045
	c-57.701,118.058-45.581-70.595-2.776,46.453"/>
<path fill="none" stroke="#000000" stroke-width="3" stroke-miterlimit="10" d="M723.205,57.554
	c-13.798-89.668,14.248-75.325,14.87-56.72c0.612,18.394-18.657,7.361-12.536,4.947c12.536-4.947,5.098,37.707,12.123,51.773"/>
<polyline fill="none" stroke="#000000" stroke-width="6" stroke-miterlimit="10" points="975.211,36.445 998.761,24.296 
	975.211,12.146 "/>
<polyline fill="none" stroke="#000000" stroke-width="4" stroke-miterlimit="10" points="1020.862,93.375 1044.997,-96.301 
	1069.128,93.375 "/>
<line fill="none" stroke="#000000" stroke-width="4" stroke-miterlimit="10" x1="1036.5" y1="26" x2="1054.5" y2="26"/>
<polyline fill="none" stroke="#000000" stroke-width="4" stroke-miterlimit="10" points="905.464,385.806 929.597,196.131 
	953.729,385.806 "/>
<line fill="none" stroke="#000000" stroke-width="4" stroke-miterlimit="10" x1="920.5" y1="319" x2="938.5" y2="319"/>
<line fill="none" stroke="#000000" stroke-width="4" stroke-miterlimit="10" x1="929.5" y1="306" x2="929.5" y2="333"/>
<polyline fill="none" stroke="#000000" stroke-width="6" stroke-miterlimit="10" points="806.909,328.877 783.361,316.727 
	806.909,304.579 "/>
<line fill="none" stroke="#000000" stroke-width="3" stroke-miterlimit="10" x1="756.5" y1="316.5" x2="773.5" y2="316.5"/>
<line fill="none" stroke="#000000" stroke-width="3" stroke-miterlimit="10" x1="765" y1="325" x2="765" y2="307"/>
<line fill="none" stroke="#000000" stroke-width="3" stroke-miterlimit="10" x1="814.5" y1="316.5" x2="830.5" y2="316.5"/>
<line fill="none" stroke="#000000" stroke-width="3" stroke-miterlimit="10" x1="852.5" y1="322.5" x2="886.5" y2="322.5"/>
<line fill="none" stroke="#000000" stroke-width="3" stroke-miterlimit="10" x1="852.5" y1="312.5" x2="886.5" y2="312.5"/>
<path fill="none" stroke="#000000" stroke-width="3" stroke-miterlimit="10" d="M724.516,349.983
	c-13.799-89.667,14.249-75.324,14.871-56.718c0.613,18.393-18.657,7.36-12.536,4.946c12.536-4.946,5.099,37.707,12.124,51.771"/>
<polyline fill="none" stroke="#000000" stroke-width="6" stroke-miterlimit="10" points="1000.073,328.877 976.523,316.727 
	1000.073,304.579 "/>
<polyline fill="none" stroke="#000000" stroke-width="4" stroke-miterlimit="10" points="1022.174,385.806 1046.308,196.131 
	1070.439,385.806 "/>
<line fill="none" stroke="#000000" stroke-width="4" stroke-miterlimit="10" x1="1037.5" y1="319" x2="1055.5" y2="319"/>
<line fill="none" stroke="#000000" stroke-width="3" stroke-miterlimit="10" x1="752.5" y1="23.5" x2="769.5" y2="23.5"/>
<line fill="none" stroke="#000000" stroke-width="3" stroke-miterlimit="10" x1="761" y1="32" x2="761" y2="14"/>
</svg>
