<?xml version="1.0" encoding="utf-8"?>
<!-- Generator: Adobe Illustrator 16.0.0, SVG Export Plug-In . SVG Version: 6.00 Build 0)  -->
<!DOCTYPE svg PUBLIC "-//W3C//DTD SVG 1.1//EN" "http://www.w3.org/Graphics/SVG/1.1/DTD/svg11.dtd">
<svg version="1.1" id="Calque_1" xmlns="http://www.w3.org/2000/svg" xmlns:xlink="http://www.w3.org/1999/xlink" x="0px" y="0px"
	 width="1232.555px" height="506.396px" viewBox="0 -115.396 1232.555 506.396"
	 enable-background="new 0 -115.396 1232.555 506.396" xml:space="preserve">
<polyline fill="none" stroke="#000000" stroke-width="2" stroke-miterlimit="10" points="707.5,200 707.5,106 744.5,106 744.5,67 
	782.5,67 782.5,28 824.5,28 824.5,201 "/>
<path opacity="0.8" fill="none" stroke="#000000" stroke-miterlimit="10" d="M708.315,121.463c0,0,3.23-4.246,7.818-4.428
	c4.5-0.178,8.751,4.428,8.751,4.428s-4.188,4.582-9.11,4.277C711.719,125.49,708.315,121.463,708.315,121.463"/>
<path opacity="0.8" fill="none" stroke="#000000" stroke-miterlimit="10" d="M713.9,121.332c0-1.593,1.209-2.882,2.699-2.882
	c1.492,0,2.699,1.289,2.699,2.882c0,1.592-1.207,2.881-2.699,2.881C715.109,124.213,713.9,122.924,713.9,121.332"/>
<path opacity="0.8" fill="none" stroke="#000000" stroke-miterlimit="10" d="M741.619,121.463c0,0-4.188,4.582-9.109,4.277
	c-4.054-0.25-7.459-4.277-7.459-4.277s3.23-4.246,7.819-4.428C737.369,116.857,741.619,121.463,741.619,121.463z"/>
<ellipse opacity="0.8" fill="none" stroke="#000000" stroke-miterlimit="10" cx="733.335" cy="121.332" rx="2.699" ry="2.881"/>
<path opacity="0.8" fill="none" stroke="#000000" stroke-miterlimit="10" d="M799.232,45.031c0,0-4.188,4.58-9.108,4.275
	c-4.057-0.25-7.46-4.275-7.46-4.275s3.229-4.248,7.818-4.43C794.98,40.424,799.232,45.031,799.232,45.031z"/>
<ellipse opacity="0.8" fill="none" stroke="#000000" stroke-miterlimit="10" cx="790.948" cy="44.898" rx="2.7" ry="2.883"/>
<path opacity="0.8" fill="none" stroke="#000000" stroke-miterlimit="10" d="M758.354,121.463c0,0-4.188,4.582-9.107,4.277
	c-4.057-0.25-7.461-4.277-7.461-4.277s3.23-4.246,7.819-4.428C754.105,116.857,758.354,121.463,758.354,121.463z"/>
<ellipse opacity="0.8" fill="none" stroke="#000000" stroke-miterlimit="10" cx="750.07" cy="121.332" rx="2.699" ry="2.881"/>
<path opacity="0.8" fill="none" stroke="#000000" stroke-miterlimit="10" d="M745.635,83.426c0,0,3.23-4.246,7.819-4.428
	c4.499-0.178,8.749,4.428,8.749,4.428s-4.188,4.58-9.109,4.277C749.039,87.451,745.635,83.426,745.635,83.426"/>
<path opacity="0.8" fill="none" stroke="#000000" stroke-miterlimit="10" d="M751.22,83.295c0-1.592,1.208-2.881,2.699-2.881
	c1.49,0,2.7,1.289,2.7,2.881s-1.21,2.881-2.7,2.881C752.428,86.176,751.22,84.887,751.22,83.295"/>
<path opacity="0.8" fill="none" stroke="#000000" stroke-miterlimit="10" d="M778.938,83.426c0,0-4.188,4.58-9.108,4.277
	c-4.055-0.252-7.459-4.277-7.459-4.277s3.229-4.246,7.818-4.428C774.688,78.82,778.938,83.426,778.938,83.426z"/>
<ellipse opacity="0.8" fill="none" stroke="#000000" stroke-miterlimit="10" cx="770.654" cy="83.295" rx="2.7" ry="2.881"/>
<path opacity="0.8" fill="none" stroke="#000000" stroke-width="1.5" stroke-miterlimit="10" d="M321.307,207.699
	c0,0-4.49,4.6-9.766,4.294c-4.347-0.252-7.997-4.294-7.997-4.294s3.463-4.265,8.382-4.447
	C316.75,203.072,321.307,207.699,321.307,207.699z"/>
<circle opacity="0.8" fill="none" stroke="#000000" stroke-width="1.5" stroke-miterlimit="10" cx="312.426" cy="207.566" r="2.894"/>
<line fill="none" stroke="#000000" stroke-width="2" stroke-miterlimit="10" x1="707.5" y1="106" x2="707.5" y2="-89"/>
<line fill="none" stroke="#000000" stroke-width="2" stroke-miterlimit="10" x1="716.5" y1="106" x2="716.5" y2="-89"/>
<line fill="none" stroke="#000000" stroke-width="2" stroke-miterlimit="10" x1="744.5" y1="68" x2="744.5" y2="-89"/>
<line fill="none" stroke="#000000" stroke-width="2" stroke-miterlimit="10" x1="754.5" y1="68" x2="754.5" y2="-89"/>
<line fill="none" stroke="#000000" stroke-width="2" stroke-miterlimit="10" x1="782.5" y1="28" x2="782.5" y2="-89"/>
<line fill="none" stroke="#000000" stroke-width="2" stroke-miterlimit="10" x1="791.5" y1="28" x2="791.5" y2="-89"/>
<line fill="none" stroke="#000000" stroke-width="2" stroke-miterlimit="10" x1="814.5" y1="28" x2="814.5" y2="-89"/>
<line fill="none" stroke="#000000" stroke-width="2" stroke-miterlimit="10" x1="824.5" y1="28" x2="824.5" y2="-89"/>
<polygon fill="none" stroke="#000000" stroke-width="2" stroke-miterlimit="10" points="824.938,-89 707.598,-89 766.268,-110.838 
	"/>
<path opacity="0.7" fill="none" stroke="#000000" stroke-miterlimit="10" d="M313.171,276.068
	C586.694,352.881,732,201.547,732,201.547V187"/>
<path opacity="0.7" fill="none" stroke="#000000" stroke-miterlimit="10" d="M468.567,311.951
	C656.868,344.022,749,201.547,749,201.547V187"/>
<path opacity="0.7" fill="none" stroke="#000000" stroke-miterlimit="10" d="M905.678,334.649
	c-144.701-27.935-139.413-133.73-139.413-133.73l0.002-13.726"/>
<path opacity="0.7" fill="none" stroke="#000000" stroke-miterlimit="10" d="M872.174,271.039
	C796.348,241.277,782,200.649,782,200.649V187"/>
<path opacity="0.7" fill="none" stroke="#000000" stroke-miterlimit="10" d="M598.085,243.774
	C651.283,242.723,715,203.819,715,203.819V187"/>
<polyline opacity="0.7" fill="none" stroke="#000000" stroke-miterlimit="10" points="712.87,190.319 715.391,186.193 
	717.901,190.319 "/>
<polyline opacity="0.7" fill="none" stroke="#000000" stroke-miterlimit="10" points="729.377,190.319 731.896,186.193 
	734.408,190.319 "/>
<polyline opacity="0.7" fill="none" stroke="#000000" stroke-miterlimit="10" points="746.883,190.319 749.402,186.193 
	751.915,190.319 "/>
<polyline opacity="0.7" fill="none" stroke="#000000" stroke-miterlimit="10" points="763.749,190.319 766.268,186.193 
	768.779,190.319 "/>
<polyline opacity="0.7" fill="none" stroke="#000000" stroke-miterlimit="10" points="779.256,190.319 781.774,186.193 
	784.287,190.319 "/>
<path opacity="0.7" fill="none" stroke="#000000" stroke-miterlimit="10" d="M897.577,221.98
	C824.913,221.246,798,200.649,798,200.649V187"/>
<polyline opacity="0.7" fill="none" stroke="#000000" stroke-miterlimit="10" points="795.121,190.319 797.64,186.193 
	800.151,190.319 "/>
<path opacity="0.8" fill="none" stroke="#000000" stroke-width="1.5" stroke-miterlimit="10" d="M326.689,206.413
	c0,0,106.755-11.458,185.083,20.468"/>
<polyline opacity="0.8" fill="none" stroke="#000000" stroke-width="1.5" stroke-miterlimit="10" points="504.316,227.699 
	511.851,227.072 508.98,221.21 "/>
<path opacity="0.8" fill="none" stroke="#000000" stroke-width="1.5" stroke-miterlimit="10" d="M697.37,217.439
	c0,0-55.843-30.995-132.098,6.57"/>
<polyline opacity="0.8" fill="none" stroke="#000000" stroke-width="2" stroke-miterlimit="10" points="572.5,224 565.195,224 
	567.472,218.02 "/>
<path opacity="0.8" fill="none" stroke="#000000" stroke-width="1.5" stroke-miterlimit="10" d="M721.951,219.183
	c0,0-4.49,4.6-9.766,4.294c-4.347-0.252-7.997-4.294-7.997-4.294s3.464-4.267,8.383-4.448
	C717.395,214.556,721.951,219.183,721.951,219.183z"/>
<circle opacity="0.8" fill="none" stroke="#000000" stroke-width="1.5" stroke-miterlimit="10" cx="713.071" cy="219.049" r="2.894"/>
<path opacity="0.8" fill="none" stroke="#000000" stroke-width="1.5" stroke-miterlimit="10" d="M469.218,305.157
	c0,0,27.058-10.085,56.27-50.993"/>
<line opacity="0.8" fill="none" stroke="#000000" stroke-width="2" stroke-miterlimit="10" x1="487.5" y1="280" x2="487.5" y2="306"/>
<polyline opacity="0.8" fill="none" stroke="#000000" stroke-width="2" stroke-miterlimit="10" points="487.732,299.646 
	491.5,305.838 491.5,280 "/>
<path opacity="0.8" fill="none" stroke="#000000" stroke-width="1.5" stroke-miterlimit="10" d="M463.946,309.61
	c0,0-4.49,4.599-9.766,4.294c-4.348-0.252-7.998-4.294-7.998-4.294s3.463-4.266,8.382-4.448
	C459.389,304.983,463.946,309.61,463.946,309.61z"/>
<circle opacity="0.8" fill="none" stroke="#000000" stroke-width="1.5" stroke-miterlimit="10" cx="455.065" cy="309.478" r="2.894"/>
<path opacity="0.8" fill="none" stroke="#000000" stroke-width="1.5" stroke-miterlimit="10" d="M467.065,317.147
	c0,0,78.696,31.219,164.997,0"/>
<path opacity="0.8" fill="none" stroke="#000000" stroke-width="1.5" stroke-miterlimit="10" d="M486.269,354.354
	c0,0,92.328-15.155,63.261-102.626"/>
<path opacity="0.8" fill="none" stroke="#000000" stroke-width="1.5" stroke-miterlimit="10" d="M480.453,361.282
	c0,0-4.49,4.601-9.766,4.294c-4.348-0.252-7.997-4.294-7.997-4.294s3.463-4.265,8.382-4.447
	C475.896,356.656,480.453,361.282,480.453,361.282z"/>
<circle opacity="0.8" fill="none" stroke="#000000" stroke-width="1.5" stroke-miterlimit="10" cx="471.571" cy="361.149" r="2.894"/>
<path opacity="0.8" fill="none" stroke="#000000" stroke-width="1.5" stroke-miterlimit="10" d="M609.993,277.13
	c0,0,26.656-31.445,93.479-48.6"/>
<path opacity="0.8" fill="none" stroke="#000000" stroke-width="1.5" stroke-miterlimit="10" d="M310.078,269.324
	c0,0,104.707-45.661,262.122,23.797"/>
<path opacity="0.8" fill="none" stroke="#000000" stroke-width="1.5" stroke-miterlimit="10" d="M596.358,250.401
	c0,0-4.491,4.6-9.766,4.295c-4.349-0.253-7.996-4.295-7.996-4.295s3.461-4.266,8.381-4.447
	C591.8,245.775,596.358,250.401,596.358,250.401z"/>
<circle opacity="0.8" fill="none" stroke="#000000" stroke-width="1.5" stroke-miterlimit="10" cx="587.477" cy="250.269" r="2.894"/>
<path opacity="0.8" fill="none" stroke="#000000" stroke-width="1.5" stroke-miterlimit="10" d="M602.817,250.576
	c0,0,66.885,4.407,94.553,28.707"/>
<path opacity="0.8" fill="none" stroke="#000000" stroke-width="1.5" stroke-miterlimit="10" d="M305.698,271.572
	c0,0-4.491,4.601-9.765,4.294c-4.348-0.251-7.997-4.294-7.997-4.294s3.463-4.266,8.382-4.447
	C301.14,266.946,305.698,271.572,305.698,271.572z"/>
<circle opacity="0.8" fill="none" stroke="#000000" stroke-width="1.5" stroke-miterlimit="10" cx="296.817" cy="271.439" r="2.894"/>
<path opacity="0.8" fill="none" stroke="#000000" stroke-width="1.5" stroke-miterlimit="10" d="M322.743,215.768
	c0,0,65.493,8.603,62.366,50.944"/>
<path opacity="0.8" fill="none" stroke="#000000" stroke-width="1.5" stroke-miterlimit="10" d="M304.263,363.436
	c0,0-4.49,4.6-9.766,4.294c-4.348-0.252-7.997-4.294-7.997-4.294s3.463-4.265,8.382-4.447
	C299.705,358.81,304.263,363.436,304.263,363.436z"/>
<circle opacity="0.8" fill="none" stroke="#000000" stroke-width="1.5" stroke-miterlimit="10" cx="295.382" cy="363.303" r="2.894"/>
<path opacity="0.8" fill="none" stroke="#000000" stroke-width="1.5" stroke-miterlimit="10" d="M306.954,355.716
	c0,0,47.127-17.079,68.538-54.185"/>
<path opacity="0.8" fill="none" stroke="#000000" stroke-width="1.5" stroke-miterlimit="10" d="M719.082,351.594
	c0,0-4.492,4.6-9.768,4.295c-4.346-0.253-7.996-4.295-7.996-4.295s3.463-4.265,8.384-4.447
	C714.523,346.968,719.082,351.594,719.082,351.594z"/>
<circle opacity="0.8" fill="none" stroke="#000000" stroke-width="1.5" stroke-miterlimit="10" cx="710.2" cy="351.461" r="2.894"/>
<path opacity="0.8" fill="none" stroke="#000000" stroke-width="1.5" stroke-miterlimit="10" d="M913.931,214.158
	c0,0-4.491,4.6-9.767,4.294c-4.347-0.252-7.996-4.294-7.996-4.294s3.463-4.266,8.383-4.446
	C909.374,209.532,913.931,214.158,913.931,214.158z"/>
<circle opacity="0.8" fill="none" stroke="#000000" stroke-width="1.5" stroke-miterlimit="10" cx="905.049" cy="214.025" r="2.894"/>
<path opacity="0.8" fill="none" stroke="#000000" stroke-width="1.5" stroke-miterlimit="10" d="M887.377,279.467
	c0,0-4.491,4.6-9.767,4.294c-4.348-0.252-7.996-4.294-7.996-4.294s3.463-4.267,8.383-4.447
	C882.819,274.842,887.377,279.467,887.377,279.467z"/>
<circle opacity="0.8" fill="none" stroke="#000000" stroke-width="1.5" stroke-miterlimit="10" cx="878.496" cy="279.333" r="2.894"/>
<path opacity="0.8" fill="none" stroke="#000000" stroke-width="1.5" stroke-miterlimit="10" d="M913.571,344.058
	c0,0-4.49,4.6-9.766,4.295c-4.348-0.253-7.996-4.295-7.996-4.295s3.464-4.265,8.382-4.447
	C909.015,339.432,913.571,344.058,913.571,344.058z"/>
<circle opacity="0.8" fill="none" stroke="#000000" stroke-width="1.5" stroke-miterlimit="10" cx="904.69" cy="343.926" r="2.894"/>
<path opacity="0.8" fill="none" stroke="#000000" stroke-width="1.5" stroke-miterlimit="10" d="M309.106,362.174
	c0,0,36.961-17.462,65.668-6.271"/>
<path opacity="0.8" fill="none" stroke="#000000" stroke-width="1.5" stroke-miterlimit="10" d="M486.269,366.93
	c0,0,34.86,13.187,74.025,1.778"/>
<path opacity="0.8" fill="none" stroke="#000000" stroke-width="1.5" stroke-miterlimit="10" d="M595.714,369.44
	c0,0,60.121,10.656,99.504-13.725"/>
<path opacity="0.8" fill="none" stroke="#000000" stroke-width="1.5" stroke-miterlimit="10" d="M798.818,255.958
	c0,0-5.278,68.127-76.759,86.877"/>
<path opacity="0.8" fill="none" stroke="#000000" stroke-width="1.5" stroke-miterlimit="10" d="M813.922,254.87
	c0,0,29.855,37.369,47.797,24.525"/>
<path opacity="0.8" fill="none" stroke="#000000" stroke-width="1.5" stroke-miterlimit="10" d="M403.736,362.623
	c0,0,32.221,15.34,52.927,1.42"/>
<path opacity="0.8" fill="none" stroke="#000000" stroke-width="1.5" stroke-miterlimit="10" d="M399.104,296.94
	c0,0,36.083,52.749,63.586,55.564"/>
<path opacity="0.8" fill="none" stroke="#000000" stroke-width="1.5" stroke-miterlimit="10" d="M405.53,284.654
	c0,0,49.535-7.524,44.135,16.665"/>
<path opacity="0.8" fill="none" stroke="#000000" stroke-width="1.5" stroke-miterlimit="10" d="M305.16,279.642
	c0,0,9.808,24.88,60.046,5.264"/>
<path opacity="0.8" fill="none" stroke="#000000" stroke-width="1.5" stroke-miterlimit="10" d="M725.615,352.116
	c0,0,52.74,6.111,75.355-10.208"/>
<path opacity="0.8" fill="none" stroke="#000000" stroke-width="1.5" stroke-miterlimit="10" d="M831.576,343.986
	c0,0,39.241,20.346,54.813,4.029"/>
<path opacity="0.8" fill="none" stroke="#000000" stroke-width="1.5" stroke-miterlimit="10" d="M725.615,227.599
	c0,0,28.468,13.707,55.971,16.522"/>
<path opacity="0.8" fill="none" stroke="#000000" stroke-width="1.5" stroke-miterlimit="10" d="M826.091,232.981
	c0,0,32.22-27.261,61.286-20.679"/>
<path opacity="0.8" fill="none" stroke="#000000" stroke-width="1.5" stroke-miterlimit="10" d="M735.408,287.933
	c0,0,68.167-2.289,160.314,45.906"/>
<path opacity="0.8" fill="none" stroke="#000000" stroke-width="1.5" stroke-miterlimit="10" d="M706.701,338.491
	c0,0-4.545-16.985-44.017-19.376"/>
<line opacity="0.8" fill="none" stroke="#000000" stroke-width="2" stroke-miterlimit="10" x1="628.5" y1="197" x2="628.5" y2="223"/>
<polyline opacity="0.8" fill="none" stroke="#000000" stroke-width="2" stroke-miterlimit="10" points="628.911,217.372 
	632.5,223.663 632.5,197 "/>
<line opacity="0.8" fill="none" stroke="#000000" stroke-width="2" stroke-miterlimit="10" x1="413.5" y1="197" x2="413.5" y2="223"/>
<polyline opacity="0.8" fill="none" stroke="#000000" stroke-width="2" stroke-miterlimit="10" points="413.911,217.372 
	417.5,223.663 417.5,197 "/>
<line opacity="0.8" fill="none" stroke="#000000" stroke-width="2" stroke-miterlimit="10" x1="449.5" y1="243" x2="449.5" y2="270"/>
<polyline opacity="0.8" fill="none" stroke="#000000" stroke-width="2" stroke-miterlimit="10" points="449.912,263.156 
	453.5,269.235 453.5,243 "/>
<line opacity="0.8" fill="none" stroke="#000000" stroke-width="2" stroke-miterlimit="10" x1="340.5" y1="272" x2="340.5" y2="300"/>
<polyline opacity="0.8" fill="none" stroke="#000000" stroke-width="2" stroke-miterlimit="10" points="340.911,292.55 
	344.5,299.019 344.5,272 "/>
<line opacity="0.8" fill="none" stroke="#000000" stroke-width="2" stroke-miterlimit="10" x1="355.5" y1="217" x2="355.5" y2="243"/>
<polyline opacity="0.8" fill="none" stroke="#000000" stroke-width="2" stroke-miterlimit="10" points="355.912,236.881 
	358.5,242.682 358.5,217 "/>
<line opacity="0.8" fill="none" stroke="#000000" stroke-width="2" stroke-miterlimit="10" x1="672.5" y1="225" x2="672.5" y2="252"/>
<polyline opacity="0.8" fill="none" stroke="#000000" stroke-width="2" stroke-miterlimit="10" points="672.91,245.368 
	676.5,251.652 676.5,225 "/>
<line opacity="0.8" fill="none" stroke="#000000" stroke-width="2" stroke-miterlimit="10" x1="649.5" y1="254" x2="649.5" y2="281"/>
<polyline opacity="0.8" fill="none" stroke="#000000" stroke-width="2" stroke-miterlimit="10" points="649.911,274.04 
	652.5,280.001 652.5,254 "/>
<line opacity="0.8" fill="none" stroke="#000000" stroke-width="2" stroke-miterlimit="10" x1="508.5" y1="333" x2="508.5" y2="359"/>
<polyline opacity="0.8" fill="none" stroke="#000000" stroke-width="2" stroke-miterlimit="10" points="508.912,353.012 
	511.5,358.945 511.5,333 "/>
<line opacity="0.8" fill="none" stroke="#000000" stroke-width="2" stroke-miterlimit="10" x1="598.5" y1="313" x2="598.5" y2="340"/>
<polyline opacity="0.8" fill="none" stroke="#000000" stroke-width="2" stroke-miterlimit="10" points="598.911,333.684 
	602.5,340.285 602.5,313 "/>
<line opacity="0.8" fill="none" stroke="#000000" stroke-width="2" stroke-miterlimit="10" x1="422.5" y1="276" x2="422.5" y2="303"/>
<polyline opacity="0.8" fill="none" stroke="#000000" stroke-width="2" stroke-miterlimit="10" points="422.912,296.344 
	426.5,302.607 426.5,276 "/>
<line opacity="0.8" fill="none" stroke="#000000" stroke-width="2" stroke-miterlimit="10" x1="432.5" y1="329" x2="432.5" y2="356"/>
<polyline opacity="0.8" fill="none" stroke="#000000" stroke-width="2" stroke-miterlimit="10" points="432.911,349.219 
	435.5,355.356 435.5,329 "/>
<line opacity="0.8" fill="none" stroke="#000000" stroke-width="2" stroke-miterlimit="10" x1="414.5" y1="358" x2="414.5" y2="385"/>
<polyline opacity="0.8" fill="none" stroke="#000000" stroke-width="2" stroke-miterlimit="10" points="414.911,378.611 
	417.5,385.141 417.5,358 "/>
<line opacity="0.8" fill="none" stroke="#000000" stroke-width="2" stroke-miterlimit="10" x1="522.5" y1="359" x2="522.5" y2="386"/>
<polyline opacity="0.8" fill="none" stroke="#000000" stroke-width="2" stroke-miterlimit="10" points="522.912,379.47 
	525.5,385.857 525.5,359 "/>
<line opacity="0.8" fill="none" stroke="#000000" stroke-width="2" stroke-miterlimit="10" x1="651.5" y1="355" x2="651.5" y2="381"/>
<polyline opacity="0.8" fill="none" stroke="#000000" stroke-width="2" stroke-miterlimit="10" points="651.911,375.137 
	654.5,381.194 654.5,355 "/>
<line opacity="0.8" fill="none" stroke="#000000" stroke-width="2" stroke-miterlimit="10" x1="686.5" y1="313" x2="686.5" y2="340"/>
<polyline opacity="0.8" fill="none" stroke="#000000" stroke-width="2" stroke-miterlimit="10" points="686.912,333.684 
	690.5,340.285 690.5,313 "/>
<line opacity="0.8" fill="none" stroke="#000000" stroke-width="2" stroke-miterlimit="10" x1="749.5" y1="313" x2="749.5" y2="340"/>
<polyline opacity="0.8" fill="none" stroke="#000000" stroke-width="2" stroke-miterlimit="10" points="749.911,333.861 
	752.5,340.646 752.5,313 "/>
<line opacity="0.8" fill="none" stroke="#000000" stroke-width="2" stroke-miterlimit="10" x1="778.5" y1="339" x2="778.5" y2="365"/>
<polyline opacity="0.8" fill="none" stroke="#000000" stroke-width="2" stroke-miterlimit="10" points="778.912,358.884 
	782.5,364.687 782.5,339 "/>
<line opacity="0.8" fill="none" stroke="#000000" stroke-width="2" stroke-miterlimit="10" x1="869.5" y1="344" x2="869.5" y2="371"/>
<polyline opacity="0.8" fill="none" stroke="#000000" stroke-width="2" stroke-miterlimit="10" points="869.911,364.256 
	873.5,370.428 873.5,344 "/>
<line opacity="0.8" fill="none" stroke="#000000" stroke-width="2" stroke-miterlimit="10" x1="845.5" y1="304" x2="845.5" y2="330"/>
<polyline opacity="0.8" fill="none" stroke="#000000" stroke-width="2" stroke-miterlimit="10" points="845.911,324.34 
	848.5,330.597 848.5,304 "/>
<line opacity="0.8" fill="none" stroke="#000000" stroke-width="2" stroke-miterlimit="10" x1="824.5" y1="260" x2="824.5" y2="287"/>
<polyline opacity="0.8" fill="none" stroke="#000000" stroke-width="2" stroke-miterlimit="10" points="824.913,280.091 
	828.5,286.102 828.5,260 "/>
<line opacity="0.8" fill="none" stroke="#000000" stroke-width="2" stroke-miterlimit="10" x1="854.5" y1="206" x2="854.5" y2="233"/>
<polyline opacity="0.8" fill="none" stroke="#000000" stroke-width="2" stroke-miterlimit="10" points="854.911,226.178 
	857.5,232.273 857.5,206 "/>
<line opacity="0.8" fill="none" stroke="#000000" stroke-width="2" stroke-miterlimit="10" x1="754.5" y1="229" x2="754.5" y2="255"/>
<polyline opacity="0.8" fill="none" stroke="#000000" stroke-width="2" stroke-miterlimit="10" points="754.911,249.52 
	757.5,255.958 757.5,229 "/>
<line opacity="0.8" fill="none" stroke="#000000" stroke-width="2" stroke-miterlimit="10" x1="353.5" y1="345" x2="353.5" y2="372"/>
<polyline opacity="0.8" fill="none" stroke="#000000" stroke-width="2" stroke-miterlimit="10" points="353.912,365.114 
	357.5,371.146 357.5,345 "/>
<line opacity="0.8" fill="none" stroke="#000000" stroke-width="2" stroke-miterlimit="10" x1="324.5" y1="326" x2="324.5" y2="352"/>
<polyline opacity="0.8" fill="none" stroke="#000000" stroke-width="2" stroke-miterlimit="10" points="324.912,346.459 
	327.5,352.846 327.5,326 "/>
<polyline opacity="0.8" fill="none" stroke="#000000" stroke-width="1.5" stroke-miterlimit="10" points="776.436,247.166 
	781.575,244.296 777.033,239.811 "/>
<polyline opacity="0.8" fill="none" stroke="#000000" stroke-width="2" stroke-miterlimit="10" points="798.799,348.466 
	800.971,342 794.5,342 "/>
<polyline opacity="0.8" fill="none" stroke="#000000" stroke-width="1.5" stroke-miterlimit="10" points="835.147,350.513 
	831.576,343.986 838.718,342.835 "/>
<polyline opacity="0.8" fill="none" stroke="#000000" stroke-width="1.5" stroke-miterlimit="10" points="741.688,284.127 
	735.363,287.92 740.253,292.201 "/>
<polyline opacity="0.8" fill="none" stroke="#000000" stroke-width="1.5" stroke-miterlimit="10" points="802.242,261.79 
	798.878,255.984 794.078,261.251 "/>
<polyline opacity="0.8" fill="none" stroke="#000000" stroke-width="1.5" stroke-miterlimit="10" points="820.813,255.839 
	813.949,254.907 814.353,261.58 "/>
<polyline opacity="0.8" fill="none" stroke="#000000" stroke-width="1.5" stroke-miterlimit="10" points="828.706,226.893 
	826.149,233.018 832.833,234.068 "/>
<polyline opacity="0.8" fill="none" stroke="#000000" stroke-width="1.5" stroke-miterlimit="10" points="695.757,272.375 
	697.327,279.309 689.566,278.925 "/>
<polyline opacity="0.8" fill="none" stroke="#000000" stroke-width="1.5" stroke-miterlimit="10" points="525.367,262.537 
	525.308,254.164 516.756,256.915 "/>
<polyline opacity="0.8" fill="none" stroke="#000000" stroke-width="1.5" stroke-miterlimit="10" points="556.526,258.243 
	549.484,251.678 547.914,261.58 "/>
<polyline opacity="0.8" fill="none" stroke="#000000" stroke-width="1.5" stroke-miterlimit="10" points="569.026,286.102 
	572.2,293.121 564.123,293.277 "/>
<polyline opacity="0.8" fill="none" stroke="#000000" stroke-width="1.5" stroke-miterlimit="10" points="381.324,261.879 
	385.109,266.712 389.038,261.79 "/>
<polyline opacity="0.8" fill="none" stroke="#000000" stroke-width="1.5" stroke-miterlimit="10" points="411.496,281.256 
	405.53,284.654 411.017,288.434 "/>
<polyline opacity="0.8" fill="none" stroke="#000000" stroke-width="1.5" stroke-miterlimit="10" points="405.994,298.286 
	399.104,296.94 398.936,303.684 "/>
<polyline opacity="0.8" fill="none" stroke="#000000" stroke-width="1.5" stroke-miterlimit="10" points="368.973,303.983 
	375.492,301.531 376.39,308.289 "/>
<polyline opacity="0.8" fill="none" stroke="#000000" stroke-width="1.5" stroke-miterlimit="10" points="358.148,283.23 
	365.206,284.905 360.899,291.364 "/>
<polyline opacity="0.8" fill="none" stroke="#000000" stroke-width="1.5" stroke-miterlimit="10" points="410.658,360.979 
	403.736,362.623 407.189,368.753 "/>
<polyline opacity="0.8" fill="none" stroke="#000000" stroke-width="1.5" stroke-miterlimit="10" points="370.587,349.975 
	374.774,355.902 367.717,358.108 "/>
<polyline opacity="0.8" fill="none" stroke="#000000" stroke-width="1.5" stroke-miterlimit="10" points="612.236,269.324 
	610.128,277.155 617.619,276.322 "/>
<polyline opacity="0.8" fill="none" stroke="#000000" stroke-width="1.5" stroke-miterlimit="10" points="623.989,315.106 
	632.062,317.147 626.62,323.54 "/>
<polyline opacity="0.8" fill="none" stroke="#000000" stroke-width="1.5" stroke-miterlimit="10" points="668.844,315.346 
	662.685,319.115 667.946,323.959 "/>
<polyline opacity="0.8" fill="none" stroke="#000000" stroke-width="1.5" stroke-miterlimit="10" points="552.758,365.404 
	560.294,368.708 554.374,376.169 "/>
<polyline opacity="0.8" fill="none" stroke="#000000" stroke-width="1.5" stroke-miterlimit="10" points="602.101,365.584 
	595.773,369.377 601.202,374.196 "/>
<path opacity="0.8" fill="none" stroke="#000000" stroke-width="1.5" stroke-miterlimit="10" d="M782.079,228.95
	c69,7.65,22.113-21.356,19.18,22.183"/>
<path opacity="0.8" fill="none" stroke="#000000" stroke-width="1.5" stroke-miterlimit="10" d="M700.713,269.063
	c69.001,7.648,22.111-21.357,19.18,22.182"/>
<path opacity="0.8" fill="none" stroke="#000000" stroke-width="1.5" stroke-miterlimit="10" d="M520.137,228.083
	c69.004,7.648,22.114-21.358,19.182,22.181"/>
<path opacity="0.8" fill="none" stroke="#000000" stroke-width="1.5" stroke-miterlimit="10" d="M366.453,277.087
	c69.001,7.648,22.113-21.356,19.18,22.182"/>
<path opacity="0.8" fill="none" stroke="#000000" stroke-width="1.5" stroke-miterlimit="10" d="M568.031,279.479
	c69.001,7.649,22.112-21.356,19.179,22.183"/>
<path opacity="0.8" fill="none" stroke="#000000" stroke-width="1.5" stroke-miterlimit="10" d="M626.738,305.496
	c69.002,7.647,22.113-21.358,19.181,22.181"/>
<path opacity="0.8" fill="none" stroke="#000000" stroke-width="1.5" stroke-miterlimit="10" d="M796.837,328.64
	c69.002,7.649,22.113-21.356,19.181,22.183"/>
<path opacity="0.8" fill="none" stroke="#000000" stroke-width="1.5" stroke-miterlimit="10" d="M556.817,357.348
	c69.001,7.649,22.112-21.358,19.18,22.182"/>
<path opacity="0.8" fill="none" stroke="#000000" stroke-width="1.5" stroke-miterlimit="10" d="M372.681,343.711
	c69.001,7.649,22.113-21.357,19.18,22.183"/>
<polyline opacity="0.8" fill="none" stroke="#000000" stroke-width="2" stroke-miterlimit="10" points="735.5,276 735.5,260.049 
	734,262.965 732.5,260.049 732.5,276 "/>
<polyline opacity="0.8" fill="none" stroke="#000000" stroke-width="2" stroke-miterlimit="10" points="602.5,287 602.5,270.455 
	600.999,273.372 599.5,270.455 599.5,287 "/>
<polyline opacity="0.8" fill="none" stroke="#000000" stroke-width="2" stroke-miterlimit="10" points="831.5,335 831.5,319.615 
	829.5,322.533 827.5,319.615 827.5,335 "/>
<polyline opacity="0.8" fill="none" stroke="#000000" stroke-width="2" stroke-miterlimit="10" points="815.5,236 815.5,219.859 
	814,222.776 812.5,219.859 812.5,236 "/>
<polyline opacity="0.8" fill="none" stroke="#000000" stroke-width="2" stroke-miterlimit="10" points="660.5,313 660.5,296.291 
	659.5,299.208 658.5,296.291 658.5,313 "/>
</svg>
