<?xml version="1.0" encoding="utf-8"?>
<!-- Generator: Adobe Illustrator 16.0.0, SVG Export Plug-In . SVG Version: 6.00 Build 0)  -->
<!DOCTYPE svg PUBLIC "-//W3C//DTD SVG 1.1//EN" "http://www.w3.org/Graphics/SVG/1.1/DTD/svg11.dtd">
<svg version="1.1" id="Calque_1" xmlns="http://www.w3.org/2000/svg" xmlns:xlink="http://www.w3.org/1999/xlink" x="0px" y="0px"
	 width="1232.555px" height="506.396px" viewBox="0 -115.396 1232.555 506.396"
	 enable-background="new 0 -115.396 1232.555 506.396" xml:space="preserve">
<polyline fill="none" stroke="#000000" stroke-miterlimit="10" points="572,390 572,325.5 599,325.5 599,297.5 625,297.5 625,269.5 
	656,269.5 656,391 "/>
<line fill="none" stroke="#000000" stroke-miterlimit="10" x1="572" y1="325" x2="572" y2="186"/>
<line fill="none" stroke="#000000" stroke-miterlimit="10" x1="580" y1="325" x2="580" y2="186"/>
<line fill="none" stroke="#000000" stroke-miterlimit="10" x1="599" y1="297" x2="599" y2="186"/>
<line fill="none" stroke="#000000" stroke-miterlimit="10" x1="605" y1="297" x2="605" y2="186"/>
<line fill="none" stroke="#000000" stroke-miterlimit="10" x1="625" y1="269" x2="625" y2="186"/>
<line fill="none" stroke="#000000" stroke-miterlimit="10" x1="632" y1="269" x2="632" y2="186"/>
<line fill="none" stroke="#000000" stroke-miterlimit="10" x1="649" y1="269" x2="649" y2="186"/>
<line fill="none" stroke="#000000" stroke-miterlimit="10" x1="656" y1="269" x2="656" y2="186"/>
<polygon fill="none" stroke="#000000" stroke-miterlimit="10" points="656.544,186.5 572.639,186.5 614.592,170.884 "/>
<path fill="none" stroke="#000000" stroke-miterlimit="10" d="M621.006-109.809c0,0-3.211,3.289-6.982,3.07
	c-3.109-0.179-5.719-3.07-5.719-3.07s2.477-3.049,5.994-3.18C617.748-113.117,621.006-109.809,621.006-109.809z"/>
<circle fill="none" stroke="#000000" stroke-miterlimit="10" cx="614.655" cy="-109.903" r="2.069"/>
<path fill="none" stroke="#000000" stroke-miterlimit="10" d="M614.592,178.1"/>
<path fill="none" stroke="#000000" stroke-width="2" stroke-miterlimit="10" d="M841.43,84.197c0,0,71.736,154.999-121.281,265.416"
	/>
<path fill="none" stroke="#000000" stroke-width="2" stroke-miterlimit="10" d="M816.025,101.132
	c0,0,51.721,125.746-105.713,248.163"/>
<path fill="none" stroke="#000000" stroke-width="2" stroke-miterlimit="10" d="M786.771,94.461c0,0,31.705,142.426-83.388,251.755"
	/>
<polyline fill="none" stroke="#000000" stroke-width="2" stroke-miterlimit="10" points="783.813,101.489 786.861,94.434 
	791.853,100.634 "/>
<polyline fill="none" stroke="#000000" stroke-width="2" stroke-miterlimit="10" points="814.433,108.674 816.025,101.132 
	822.13,106.622 "/>
<polyline fill="none" stroke="#000000" stroke-width="2" stroke-miterlimit="10" points="839.92,92.082 841.43,84.197 
	847.959,90.199 "/>
<path fill="none" stroke="#000000" stroke-width="2" stroke-miterlimit="10" d="M838.607,61.461c0,0,12.945-98.531-149.764-140.968"
	/>
<path fill="none" stroke="#000000" stroke-width="2" stroke-miterlimit="10" d="M814.486,71.726c0,0,15.537-89.401-135.478-150.915"
	/>
<path fill="none" stroke="#000000" stroke-width="2" stroke-miterlimit="10" d="M783.949,62.745c0,0,21.439-68.873-111.869-138.856"
	/>
<polyline fill="none" stroke="#000000" stroke-width="2" stroke-miterlimit="10" points="780.732,56.33 784.038,62.772 
	788.943,56.672 "/>
<polyline fill="none" stroke="#000000" stroke-width="2" stroke-miterlimit="10" points="811.182,65.054 814.486,71.726 
	818.88,64.199 "/>
<polyline fill="none" stroke="#000000" stroke-width="2" stroke-miterlimit="10" points="835.303,54.961 838.607,61.461 
	843.341,54.448 "/>
<path fill="none" stroke="#000000" stroke-width="2" stroke-miterlimit="10" d="M675.502,378.469
	c-8.682,12.055,21.971,9.814,4.529-6.432c-22.978-21.4,15.624-20.231,5.159-7.44"/>
<path fill="none" stroke="#000000" stroke-width="2" stroke-miterlimit="10" d="M515.389,359.812
	c83.57,9.265,26.782-25.866,23.23,26.866"/>
<path fill="none" stroke="#000000" stroke-width="2" stroke-miterlimit="10" d="M484.351-48.531c0,0-380.863,294.665-2.137,403.461"
	/>
<path fill="none" stroke="#000000" stroke-width="2" stroke-miterlimit="10" d="M512.835-51.098c0,0-357.003,285.941-20.786,405.709
	"/>
<path fill="none" stroke="#000000" stroke-width="2" stroke-miterlimit="10" d="M539.779-52.637c0,0-331.203,271.207-40.803,404.169
	"/>
<polyline fill="none" stroke="#000000" stroke-width="2" stroke-miterlimit="10" points="535.412,-44.403 539.689,-52.664 
	530.709,-49.97 "/>
<polyline fill="none" stroke="#000000" stroke-width="2" stroke-miterlimit="10" points="509.24,-42.863 512.835,-51.098 
	504.623,-49.799 "/>
<polyline fill="none" stroke="#000000" stroke-width="2" stroke-miterlimit="10" points="480.762,-40.939 484.351,-48.531 
	476.568,-47.661 "/>
<path fill="none" stroke="#000000" stroke-width="2" stroke-miterlimit="10" d="M637.45-85.957
	c-8.682,12.053,21.971,9.813,4.528-6.434c-22.977-21.4,15.624-20.23,5.16-7.441"/>
<path fill="none" stroke="#000000" stroke-width="2" stroke-miterlimit="10" d="M550.449-104.357
	c83.57,9.264,26.781-25.866,23.23,26.866"/>
</svg>
