<?xml version="1.0" encoding="utf-8"?>
<!-- Generator: Adobe Illustrator 16.0.0, SVG Export Plug-In . SVG Version: 6.00 Build 0)  -->
<!DOCTYPE svg PUBLIC "-//W3C//DTD SVG 1.1//EN" "http://www.w3.org/Graphics/SVG/1.1/DTD/svg11.dtd">
<svg version="1.1" id="Calque_1" xmlns="http://www.w3.org/2000/svg" xmlns:xlink="http://www.w3.org/1999/xlink" x="0px" y="0px"
	 width="1232.555px" height="506.396px" viewBox="0 -115.396 1232.555 506.396"
	 enable-background="new 0 -115.396 1232.555 506.396" xml:space="preserve">
<path fill="none" stroke="#000000" stroke-width="4" stroke-miterlimit="10" d="M667.255,327.658
	C1536.292,455.716,1211.011-21.86,921.656-23.948"/>
<polyline fill="none" stroke="#000000" stroke-width="4" stroke-miterlimit="10" points="978.772,20.655 921.656,-23.948 
	978.772,-53.158 "/>
<line fill="none" stroke="#000000" stroke-width="3" stroke-miterlimit="10" x1="1161" y1="51" x2="1161" y2="134"/>
<line fill="none" stroke="#000000" stroke-width="3" stroke-miterlimit="10" x1="1173" y1="134" x2="1173" y2="51"/>
<g>
	<path d="M1149.695,114.032c1,0.556,1.967,1.153,2.929,1.755c0.951,0.616,1.91,1.222,2.837,1.868
		c0.938,0.631,1.868,1.272,2.777,1.938c0.916,0.659,1.838,1.311,2.734,1.992l-1.583-0.07c2.47-1.854,4.988-3.635,7.545-5.36
		l0.912-0.615l0.847,0.67c2.656,2.102,5.271,4.256,7.794,6.53c0.634,0.564,1.272,1.122,1.888,1.71
		c0.617,0.584,1.248,1.153,1.855,1.75c1.218,1.193,2.433,2.389,3.577,3.676c-1.527-0.795-2.984-1.68-4.438-2.569
		c-0.729-0.443-1.434-0.915-2.152-1.372c-0.721-0.453-1.417-0.936-2.12-1.412c-2.821-1.889-5.55-3.898-8.237-5.959l1.759,0.055
		c-2.538,1.754-5.113,3.452-7.738,5.077l-0.886,0.548l-0.697-0.618c-0.844-0.747-1.661-1.525-2.486-2.295
		c-0.83-0.763-1.639-1.551-2.441-2.349c-0.813-0.784-1.594-1.606-2.383-2.419C1151.208,115.738,1150.436,114.905,1149.695,114.032z"
		/>
</g>
<path fill="none" stroke="#000000" stroke-width="4" stroke-miterlimit="10" d="M64.791,187.478
	c0,0,216.421-187.068,741.293-194.274"/>
<polyline fill="none" stroke="#000000" stroke-width="4" stroke-miterlimit="10" points="786.756,7.033 806.329,-6.202 
	786.756,-19.251 "/>
<path opacity="0.4" fill="none" stroke="#000000" stroke-width="3" stroke-miterlimit="10" d="M64.791,213.495
	c0,0,191.815-41.303,435.954,58.205"/>
<polyline opacity="0.4" fill="none" stroke="#000000" stroke-width="3" stroke-miterlimit="10" points="477.502,274.251 
	500.989,272.294 492.042,254.025 "/>
<path opacity="0.4" fill="none" stroke="#000000" stroke-width="3" stroke-miterlimit="10" d="M1118.378,240.033
	c0,0-213.206-94.37-450.878,22.719"/>
<polyline opacity="0.4" fill="none" stroke="#000000" stroke-width="3" stroke-miterlimit="10" points="690.5,262.5 667.255,262.5 
	674.589,243.858 "/>
<path fill="none" stroke="#000000" stroke-width="3" stroke-miterlimit="10" d="M49.971,241.996C43.531,222.097,8.914,219,8.914,219
	s40.695-13.147,37.984-34.009"/>
<path fill="none" stroke="#000000" stroke-width="3" stroke-miterlimit="10" d="M38.233,203.099
	c8.808,12.573,0.01,25.147,0.01,25.147"/>
<path fill="none" stroke="#000000" stroke-width="3" stroke-miterlimit="10" d="M38.243,228.246c0,0-8.288-15.043-0.01-25.147"/>
<path fill="none" stroke="#000000" stroke-width="3" stroke-miterlimit="10" d="M1134.082,265.484
	c6.44-19.899,41.059-22.997,41.059-22.997s-40.697-13.146-37.986-34.008"/>
<path fill="none" stroke="#000000" stroke-width="3" stroke-miterlimit="10" d="M1145.819,226.586
	c-8.808,12.573-0.009,25.147-0.009,25.147"/>
<path fill="none" stroke="#000000" stroke-width="3" stroke-miterlimit="10" d="M1145.811,251.733c0,0,8.289-15.043,0.009-25.147"/>
<line opacity="0.4" fill="none" stroke="#000000" stroke-width="3" stroke-miterlimit="10" x1="244" y1="181" x2="244" y2="264"/>
<polyline opacity="0.4" fill="none" stroke="#000000" stroke-width="3" stroke-miterlimit="10" points="243.816,244.396 
	255,263.906 255,181 "/>
<line opacity="0.4" fill="none" stroke="#000000" stroke-width="3" stroke-miterlimit="10" x1="893" y1="174" x2="893" y2="256"/>
<polyline opacity="0.4" fill="none" stroke="#000000" stroke-width="3" stroke-miterlimit="10" points="892.815,236.982 
	904,256.076 904,174 "/>
<line fill="none" stroke="#000000" stroke-width="3" stroke-miterlimit="10" x1="392" y1="14" x2="392" y2="96"/>
<polyline fill="none" stroke="#000000" stroke-width="3" stroke-miterlimit="10" points="392.815,77.012 404,96.137 404,14 "/>
<path opacity="0.4" fill="none" stroke="#000000" stroke-width="3" stroke-miterlimit="10" d="M526.09,275.147
	c215.066,23.84,68.922-66.568,59.78,69.138"/>
<path fill="none" stroke="#000000" stroke-width="3" stroke-miterlimit="10" d="M793.702-63.224
	c215.067,23.841,68.922-66.567,59.78,69.138"/>
</svg>
