<?xml version="1.0" encoding="utf-8"?>
<!-- Generator: Adobe Illustrator 16.0.0, SVG Export Plug-In . SVG Version: 6.00 Build 0)  -->
<!DOCTYPE svg PUBLIC "-//W3C//DTD SVG 1.1//EN" "http://www.w3.org/Graphics/SVG/1.1/DTD/svg11.dtd">
<svg version="1.1" id="Calque_1" xmlns="http://www.w3.org/2000/svg" xmlns:xlink="http://www.w3.org/1999/xlink" x="0px" y="0px"
	 width="1232.555px" height="506.396px" viewBox="0 -115.396 1232.555 506.396"
	 enable-background="new 0 -115.396 1232.555 506.396" xml:space="preserve">
<path opacity="0.8" fill="none" stroke="#000000" stroke-width="2" stroke-miterlimit="10" d="M238.301,138.32
	c0,0-6.167,6.317-13.411,5.897c-5.971-0.346-10.982-5.897-10.982-5.897s4.755-5.857,11.511-6.107
	C232.042,131.968,238.301,138.32,238.301,138.32z"/>
<circle opacity="0.8" fill="none" stroke="#000000" stroke-width="2" stroke-miterlimit="10" cx="226.104" cy="138.138" r="3.974"/>
<polyline fill="none" stroke="#000000" stroke-width="3" stroke-miterlimit="10" points="767,129 767,-0.5 822,-0.5 822,-53.5 
	873,-53.5 873,-107.5 930,-107.5 930,129 "/>
<path opacity="0.7" fill="none" stroke="#000000" stroke-miterlimit="10" d="M226.821,232.174
	C602.451,337.66,802,129.689,802,129.689V110"/>
<path opacity="0.7" fill="none" stroke="#000000" stroke-miterlimit="10" d="M439.88,281.453
	C698.475,325.494,825,129.689,825,129.689V110"/>
<path opacity="0.7" fill="none" stroke="#000000" stroke-miterlimit="10" d="M1039.455,312.492
	C840.738,274.129,848,128.828,848,128.828V110"/>
<path opacity="0.7" fill="none" stroke="#000000" stroke-miterlimit="10" d="M994.835,225.268
	C890.703,184.393,871,128.458,871,128.458V110"/>
<path opacity="0.7" fill="none" stroke="#000000" stroke-miterlimit="10" d="M619.44,187.822
	C692.497,186.379,780,132.812,780,132.812V110"/>
<polyline opacity="0.7" fill="none" stroke="#000000" stroke-miterlimit="10" points="776.409,114.645 779.869,108.978 
	783.318,114.645 "/>
<polyline opacity="0.7" fill="none" stroke="#000000" stroke-miterlimit="10" points="798.078,114.645 801.537,108.978 
	804.986,114.645 "/>
<polyline opacity="0.7" fill="none" stroke="#000000" stroke-miterlimit="10" points="821.746,114.645 825.206,108.978 
	828.656,114.645 "/>
<polyline opacity="0.7" fill="none" stroke="#000000" stroke-miterlimit="10" points="844.908,114.645 848.367,108.978 
	851.817,114.645 "/>
<polyline opacity="0.7" fill="none" stroke="#000000" stroke-miterlimit="10" points="867.576,114.645 871.036,108.978 
	874.485,114.645 "/>
<path opacity="0.7" fill="none" stroke="#000000" stroke-miterlimit="10" d="M1030.751,157.893
	C930.959,156.887,894,128.458,894,128.458V110"/>
<polyline opacity="0.7" fill="none" stroke="#000000" stroke-miterlimit="10" points="890.737,114.645 894.197,108.978 
	897.647,114.645 "/>
<path opacity="0.8" fill="none" stroke="#000000" stroke-miterlimit="10" enable-background="new    " d="M792.041,18.414
	c0,0-5.752,6.291-12.509,5.873c-5.569-0.344-10.244-5.873-10.244-5.873s4.436-5.832,10.737-6.082
	C786.204,12.088,792.041,18.414,792.041,18.414z"/>
<ellipse opacity="0.8" fill="none" stroke="#000000" stroke-miterlimit="10" enable-background="new    " cx="780.664" cy="18.233" rx="3.707" ry="3.957"/>
<path opacity="0.8" fill="none" stroke="#000000" stroke-miterlimit="10" enable-background="new    " d="M815.024,18.414
	c0,0-5.752,6.291-12.509,5.873c-5.569-0.344-10.245-5.873-10.245-5.873s4.437-5.832,10.738-6.082
	C809.187,12.088,815.024,18.414,815.024,18.414z"/>
<ellipse opacity="0.8" fill="none" stroke="#000000" stroke-miterlimit="10" enable-background="new    " cx="803.647" cy="18.233" rx="3.707" ry="3.957"/>
<path opacity="0.8" fill="none" stroke="#000000" stroke-miterlimit="10" enable-background="new    " d="M898.086-86.551
	c0,0-5.752,6.291-12.509,5.873c-5.57-0.345-10.244-5.873-10.244-5.873s4.436-5.832,10.736-6.082
	C892.249-92.877,898.086-86.551,898.086-86.551z"/>
<ellipse opacity="0.8" fill="none" stroke="#000000" stroke-miterlimit="10" enable-background="new    " cx="886.709" cy="-86.733" rx="3.706" ry="3.957"/>
<path opacity="0.8" fill="none" stroke="#000000" stroke-miterlimit="10" enable-background="new    " d="M838.007,18.414
	c0,0-5.752,6.291-12.509,5.873c-5.57-0.344-10.244-5.873-10.244-5.873s4.437-5.832,10.737-6.082
	C832.17,12.088,838.007,18.414,838.007,18.414z"/>
<ellipse opacity="0.8" fill="none" stroke="#000000" stroke-miterlimit="10" enable-background="new    " cx="826.631" cy="18.233" rx="3.706" ry="3.957"/>
<path opacity="0.8" fill="none" stroke="#000000" stroke-miterlimit="10" enable-background="new    " d="M847.234-33.822
	c0,0-5.751,6.291-12.51,5.873c-5.568-0.344-10.243-5.873-10.243-5.873s4.437-5.832,10.737-6.082
	C841.397-40.148,847.234-33.822,847.234-33.822z"/>
<ellipse opacity="0.8" fill="none" stroke="#000000" stroke-miterlimit="10" enable-background="new    " cx="835.857" cy="-34.004" rx="3.706" ry="3.957"/>
<path opacity="0.8" fill="none" stroke="#000000" stroke-miterlimit="10" enable-background="new    " d="M870.217-33.822
	c0,0-5.752,6.291-12.509,5.873c-5.569-0.344-10.245-5.873-10.245-5.873s4.438-5.832,10.738-6.082
	C864.38-40.148,870.217-33.822,870.217-33.822z"/>
<ellipse opacity="0.8" fill="none" stroke="#000000" stroke-miterlimit="10" enable-background="new    " cx="858.841" cy="-34.004" rx="3.707" ry="3.957"/>
<path opacity="0.8" fill="none" stroke="#000000" stroke-width="2" stroke-miterlimit="10" d="M245.693,136.372
	c0,0,146.606-15.734,254.174,28.109"/>
<polyline opacity="0.8" fill="none" stroke="#000000" stroke-width="2" stroke-miterlimit="10" points="489.627,165.605 
	499.976,164.743 496.033,156.693 "/>
<path opacity="0.8" fill="none" stroke="#000000" stroke-width="2" stroke-miterlimit="10" d="M754.75,151.515
	c0,0-76.69-42.565-181.41,9.024"/>
<polyline opacity="0.8" fill="none" stroke="#000000" stroke-width="2" stroke-miterlimit="10" points="583.5,162 573.232,162 
	576.478,153.786 "/>
<path opacity="0.8" fill="none" stroke="#000000" stroke-width="2" stroke-miterlimit="10" d="M788.507,153.909
	c0,0-6.166,6.316-13.411,5.896c-5.971-0.347-10.981-5.896-10.981-5.896s4.755-5.858,11.511-6.109
	C782.249,147.556,788.507,153.909,788.507,153.909z"/>
<circle opacity="0.8" fill="none" stroke="#000000" stroke-width="2" stroke-miterlimit="10" cx="776.311" cy="153.726" r="3.975"/>
<path opacity="0.8" fill="none" stroke="#000000" stroke-width="2" stroke-miterlimit="10" d="M441.427,271.978
	c0,0,37.159-13.85,77.274-70.028"/>
<line opacity="0.8" fill="none" stroke="#000000" stroke-width="2" stroke-miterlimit="10" x1="467.5" y1="237" x2="467.5" y2="273"/>
<polyline opacity="0.8" fill="none" stroke="#000000" stroke-width="2" stroke-miterlimit="10" points="467.326,264.195 
	472.5,272.912 472.5,237 "/>
<path opacity="0.8" fill="none" stroke="#000000" stroke-width="2" stroke-miterlimit="10" d="M434.187,278.093
	c0,0-6.167,6.317-13.411,5.897c-5.97-0.346-10.982-5.897-10.982-5.897s4.755-5.857,11.511-6.107
	C427.929,271.739,434.187,278.093,434.187,278.093z"/>
<circle opacity="0.8" fill="none" stroke="#000000" stroke-width="2" stroke-miterlimit="10" cx="421.991" cy="277.911" r="3.974"/>
<path opacity="0.8" fill="none" stroke="#000000" stroke-width="2" stroke-miterlimit="10" d="M438.47,288.445
	c0,0,108.075,42.873,226.592,0"/>
<path opacity="0.8" fill="none" stroke="#000000" stroke-width="2" stroke-miterlimit="10" d="M464.843,339.542
	c0,0,126.793-20.816,86.876-140.939"/>
<path opacity="0.8" fill="none" stroke="#000000" stroke-width="2" stroke-miterlimit="10" d="M456.856,349.055
	c0,0-6.167,6.317-13.412,5.897c-5.97-0.346-10.982-5.897-10.982-5.897s4.756-5.857,11.511-6.107
	C450.597,342.702,456.856,349.055,456.856,349.055z"/>
<circle opacity="0.8" fill="none" stroke="#000000" stroke-width="2" stroke-miterlimit="10" cx="444.659" cy="348.873" r="3.974"/>
<path opacity="0.8" fill="none" stroke="#000000" stroke-width="2" stroke-miterlimit="10" d="M634.755,233.487
	c0,0,36.605-43.183,128.373-66.741"/>
<path opacity="0.8" fill="none" stroke="#000000" stroke-width="2" stroke-miterlimit="10" d="M222.88,222.77
	c0,0,143.794-62.708,359.972,32.68"/>
<path opacity="0.8" fill="none" stroke="#000000" stroke-width="2" stroke-miterlimit="10" d="M616.029,196.781
	c0,0-6.167,6.317-13.411,5.897c-5.972-0.346-10.982-5.897-10.982-5.897s4.756-5.857,11.511-6.107
	C609.771,190.429,616.029,196.781,616.029,196.781z"/>
<circle opacity="0.8" fill="none" stroke="#000000" stroke-width="2" stroke-miterlimit="10" cx="603.833" cy="196.6" r="3.974"/>
<path opacity="0.8" fill="none" stroke="#000000" stroke-width="2" stroke-miterlimit="10" d="M624.899,197.021
	c0,0,91.853,6.054,129.851,39.425"/>
<path opacity="0.8" fill="none" stroke="#000000" stroke-width="2" stroke-miterlimit="10" d="M216.865,225.856
	c0,0-6.167,6.317-13.412,5.897c-5.97-0.346-10.982-5.897-10.982-5.897s4.756-5.857,11.511-6.107
	C210.606,219.503,216.865,225.856,216.865,225.856z"/>
<circle opacity="0.8" fill="none" stroke="#000000" stroke-width="2" stroke-miterlimit="10" cx="204.668" cy="225.675" r="3.974"/>
<path opacity="0.8" fill="none" stroke="#000000" stroke-width="2" stroke-miterlimit="10" d="M240.272,149.22
	c0,0,89.941,11.813,85.649,69.962"/>
<path opacity="0.8" fill="none" stroke="#000000" stroke-width="2" stroke-miterlimit="10" d="M214.894,352.013
	c0,0-6.167,6.316-13.412,5.896c-5.97-0.346-10.982-5.896-10.982-5.896s4.756-5.858,11.511-6.109
	C208.635,345.659,214.894,352.013,214.894,352.013z"/>
<circle opacity="0.8" fill="none" stroke="#000000" stroke-width="2" stroke-miterlimit="10" cx="202.697" cy="351.829" r="3.974"/>
<path opacity="0.8" fill="none" stroke="#000000" stroke-width="2" stroke-miterlimit="10" d="M218.589,341.41
	c0,0,64.72-23.455,94.124-74.411"/>
<path opacity="0.8" fill="none" stroke="#000000" stroke-width="2" stroke-miterlimit="10" d="M784.564,335.75
	c0,0-6.166,6.317-13.411,5.897c-5.971-0.347-10.981-5.897-10.981-5.897s4.755-5.857,11.511-6.108
	C778.307,329.396,784.564,335.75,784.564,335.75z"/>
<circle opacity="0.8" fill="none" stroke="#000000" stroke-width="2" stroke-miterlimit="10" cx="772.369" cy="335.567" r="3.974"/>
<path opacity="0.8" fill="none" stroke="#000000" stroke-width="2" stroke-miterlimit="10" d="M1052.153,147.009
	c0,0-6.167,6.317-13.412,5.897c-5.97-0.346-10.981-5.897-10.981-5.897s4.755-5.857,11.511-6.107
	C1045.895,140.656,1052.153,147.009,1052.153,147.009z"/>
<circle opacity="0.8" fill="none" stroke="#000000" stroke-width="2" stroke-miterlimit="10" cx="1039.957" cy="146.826" r="3.974"/>
<path opacity="0.8" fill="none" stroke="#000000" stroke-width="2" stroke-miterlimit="10" d="M1015.687,236.698
	c0,0-6.167,6.316-13.412,5.896c-5.971-0.346-10.981-5.896-10.981-5.896s4.755-5.858,11.511-6.108
	C1009.428,230.346,1015.687,236.698,1015.687,236.698z"/>
<circle opacity="0.8" fill="none" stroke="#000000" stroke-width="2" stroke-miterlimit="10" cx="1003.49" cy="236.516" r="3.974"/>
<path opacity="0.8" fill="none" stroke="#000000" stroke-width="2" stroke-miterlimit="10" d="M1051.66,325.401
	c0,0-6.167,6.316-13.411,5.896c-5.971-0.346-10.982-5.896-10.982-5.896s4.756-5.858,11.511-6.108
	C1045.401,319.049,1051.66,325.401,1051.66,325.401z"/>
<circle opacity="0.8" fill="none" stroke="#000000" stroke-width="2" stroke-miterlimit="10" cx="1039.463" cy="325.219" r="3.974"/>
<path opacity="0.8" fill="none" stroke="#000000" stroke-width="2" stroke-miterlimit="10" d="M221.546,350.28
	c0,0,50.757-23.982,90.181-8.613"/>
<path opacity="0.8" fill="none" stroke="#000000" stroke-width="2" stroke-miterlimit="10" d="M464.843,356.81
	c0,0,47.873,18.11,101.66,2.443"/>
<path opacity="0.8" fill="none" stroke="#000000" stroke-width="2" stroke-miterlimit="10" d="M615.146,360.26
	c0,0,82.564,14.634,136.648-18.85"/>
<path opacity="0.8" fill="none" stroke="#000000" stroke-width="2" stroke-miterlimit="10" d="M894.069,204.414
	c0,0-7.249,93.559-105.414,119.308"/>
<path opacity="0.8" fill="none" stroke="#000000" stroke-width="2" stroke-miterlimit="10" d="M914.812,202.919
	c0,0,40.999,51.318,65.639,33.681"/>
<path opacity="0.8" fill="none" stroke="#000000" stroke-width="2" stroke-miterlimit="10" d="M351.5,350.896
	c0,0,44.25,21.067,72.686,1.951"/>
<path opacity="0.8" fill="none" stroke="#000000" stroke-width="2" stroke-miterlimit="10" d="M345.14,260.694
	c0,0,49.552,72.44,87.323,76.308"/>
<path opacity="0.8" fill="none" stroke="#000000" stroke-width="2" stroke-miterlimit="10" d="M353.964,243.821
	c0,0,68.026-10.334,60.611,22.887"/>
<path opacity="0.8" fill="none" stroke="#000000" stroke-width="2" stroke-miterlimit="10" d="M216.125,236.938
	c0,0,13.471,34.168,82.461,7.229"/>
<path opacity="0.8" fill="none" stroke="#000000" stroke-width="2" stroke-miterlimit="10" d="M793.538,336.467
	c0,0,72.43,8.394,103.488-14.019"/>
<path opacity="0.8" fill="none" stroke="#000000" stroke-width="2" stroke-miterlimit="10" d="M939.057,325.303
	c0,0,53.889,27.94,75.273,5.534"/>
<path opacity="0.8" fill="none" stroke="#000000" stroke-width="2" stroke-miterlimit="10" d="M793.538,165.467
	c0,0,39.095,18.823,76.865,22.689"/>
<path opacity="0.8" fill="none" stroke="#000000" stroke-width="2" stroke-miterlimit="10" d="M931.521,172.859
	c0,0,44.249-37.438,84.166-28.398"/>
<path opacity="0.8" fill="none" stroke="#000000" stroke-width="2" stroke-miterlimit="10" d="M806.986,248.324
	c0,0,93.615-3.145,220.16,63.043"/>
<path opacity="0.8" fill="none" stroke="#000000" stroke-width="2" stroke-miterlimit="10" d="M767.563,317.756
	c0,0-6.241-23.325-60.449-26.609"/>
<line opacity="0.8" fill="none" stroke="#000000" stroke-width="2" stroke-miterlimit="10" x1="660.5" y1="124" x2="660.5" y2="160"/>
<polyline opacity="0.8" fill="none" stroke="#000000" stroke-width="2" stroke-miterlimit="10" points="660.572,151.699 
	665.5,160.062 665.5,124 "/>
<line opacity="0.8" fill="none" stroke="#000000" stroke-width="2" stroke-miterlimit="10" x1="365.5" y1="124" x2="365.5" y2="160"/>
<polyline opacity="0.8" fill="none" stroke="#000000" stroke-width="2" stroke-miterlimit="10" points="365.572,151.699 
	370.5,160.062 370.5,124 "/>
<line opacity="0.8" fill="none" stroke="#000000" stroke-width="2" stroke-miterlimit="10" x1="414.5" y1="187" x2="414.5" y2="222"/>
<polyline opacity="0.8" fill="none" stroke="#000000" stroke-width="2" stroke-miterlimit="10" points="414.572,214.492 
	419.5,222.646 419.5,187 "/>
<line opacity="0.8" fill="none" stroke="#000000" stroke-width="2" stroke-miterlimit="10" x1="264.5" y1="227" x2="264.5" y2="264"/>
<polyline opacity="0.8" fill="none" stroke="#000000" stroke-width="2" stroke-miterlimit="10" points="264.572,254.942 
	269.5,263.549 269.5,227 "/>
<line opacity="0.8" fill="none" stroke="#000000" stroke-width="2" stroke-miterlimit="10" x1="286.5" y1="150" x2="286.5" y2="187"/>
<polyline opacity="0.8" fill="none" stroke="#000000" stroke-width="2" stroke-miterlimit="10" points="286.572,177.759 
	291.5,186.18 291.5,150 "/>
<line opacity="0.8" fill="none" stroke="#000000" stroke-width="2" stroke-miterlimit="10" x1="721.5" y1="163" x2="721.5" y2="198"/>
<polyline opacity="0.8" fill="none" stroke="#000000" stroke-width="2" stroke-miterlimit="10" points="721.571,190.418 
	726.5,198.5 726.5,163 "/>
<line opacity="0.8" fill="none" stroke="#000000" stroke-width="2" stroke-miterlimit="10" x1="689.5" y1="201" x2="689.5" y2="237"/>
<polyline opacity="0.8" fill="none" stroke="#000000" stroke-width="2" stroke-miterlimit="10" points="689.571,228.885 
	694.5,237.43 694.5,201 "/>
<line opacity="0.8" fill="none" stroke="#000000" stroke-width="2" stroke-miterlimit="10" x1="495.5" y1="310" x2="495.5" y2="346"/>
<polyline opacity="0.8" fill="none" stroke="#000000" stroke-width="2" stroke-miterlimit="10" points="494.572,337.592 
	499.5,345.846 499.5,310 "/>
<line opacity="0.8" fill="none" stroke="#000000" stroke-width="2" stroke-miterlimit="10" x1="618.5" y1="284" x2="618.5" y2="321"/>
<polyline opacity="0.8" fill="none" stroke="#000000" stroke-width="2" stroke-miterlimit="10" points="618.571,311.778 
	623.5,320.22 623.5,284 "/>
<line opacity="0.8" fill="none" stroke="#000000" stroke-width="2" stroke-miterlimit="10" x1="378.5" y1="232" x2="378.5" y2="269"/>
<polyline opacity="0.8" fill="none" stroke="#000000" stroke-width="2" stroke-miterlimit="10" points="377.572,259.906 
	382.5,268.477 382.5,232 "/>
<line opacity="0.8" fill="none" stroke="#000000" stroke-width="2" stroke-miterlimit="10" x1="390.5" y1="305" x2="390.5" y2="341"/>
<polyline opacity="0.8" fill="none" stroke="#000000" stroke-width="2" stroke-miterlimit="10" points="390.572,332.627 
	395.5,340.918 395.5,305 "/>
<line opacity="0.8" fill="none" stroke="#000000" stroke-width="2" stroke-miterlimit="10" x1="366.5" y1="346" x2="366.5" y2="382"/>
<polyline opacity="0.8" fill="none" stroke="#000000" stroke-width="2" stroke-miterlimit="10" points="366.572,373.579 
	371.5,381.82 371.5,346 "/>
<line opacity="0.8" fill="none" stroke="#000000" stroke-width="2" stroke-miterlimit="10" x1="514.5" y1="346" x2="514.5" y2="383"/>
<polyline opacity="0.8" fill="none" stroke="#000000" stroke-width="2" stroke-miterlimit="10" points="514.571,374.07 
	519.5,382.805 519.5,346 "/>
<line opacity="0.8" fill="none" stroke="#000000" stroke-width="2" stroke-miterlimit="10" x1="691.5" y1="340" x2="691.5" y2="376"/>
<polyline opacity="0.8" fill="none" stroke="#000000" stroke-width="2" stroke-miterlimit="10" points="691.571,367.868 
	696.5,376.398 696.5,340 "/>
<line opacity="0.8" fill="none" stroke="#000000" stroke-width="2" stroke-miterlimit="10" x1="739.5" y1="284" x2="739.5" y2="321"/>
<polyline opacity="0.8" fill="none" stroke="#000000" stroke-width="2" stroke-miterlimit="10" points="739.572,311.778 
	744.5,320.22 744.5,284 "/>
<line opacity="0.8" fill="none" stroke="#000000" stroke-width="2" stroke-miterlimit="10" x1="825.5" y1="284" x2="825.5" y2="321"/>
<polyline opacity="0.8" fill="none" stroke="#000000" stroke-width="2" stroke-miterlimit="10" points="824.572,312.025 
	829.5,320.713 829.5,284 "/>
<line opacity="0.8" fill="none" stroke="#000000" stroke-width="2" stroke-miterlimit="10" x1="866.5" y1="317" x2="866.5" y2="354"/>
<polyline opacity="0.8" fill="none" stroke="#000000" stroke-width="2" stroke-miterlimit="10" points="866.573,345.034 
	871.5,353.73 871.5,317 "/>
<line opacity="0.8" fill="none" stroke="#000000" stroke-width="2" stroke-miterlimit="10" x1="991.5" y1="326" x2="991.5" y2="362"/>
<polyline opacity="0.8" fill="none" stroke="#000000" stroke-width="2" stroke-miterlimit="10" points="991.572,353.477 
	996.5,361.615 996.5,326 "/>
<line opacity="0.8" fill="none" stroke="#000000" stroke-width="2" stroke-miterlimit="10" x1="958.5" y1="271" x2="958.5" y2="307"/>
<polyline opacity="0.8" fill="none" stroke="#000000" stroke-width="2" stroke-miterlimit="10" points="958.573,298.627 
	963.5,306.914 963.5,271 "/>
<line opacity="0.8" fill="none" stroke="#000000" stroke-width="2" stroke-miterlimit="10" x1="930.5" y1="209" x2="930.5" y2="246"/>
<polyline opacity="0.8" fill="none" stroke="#000000" stroke-width="2" stroke-miterlimit="10" points="930.573,237.072 
	935.5,245.808 935.5,209 "/>
<line opacity="0.8" fill="none" stroke="#000000" stroke-width="2" stroke-miterlimit="10" x1="969.5" y1="136" x2="969.5" y2="172"/>
<polyline opacity="0.8" fill="none" stroke="#000000" stroke-width="2" stroke-miterlimit="10" points="969.571,163.613 
	974.5,171.889 974.5,136 "/>
<line opacity="0.8" fill="none" stroke="#000000" stroke-width="2" stroke-miterlimit="10" x1="831.5" y1="168" x2="831.5" y2="205"/>
<polyline opacity="0.8" fill="none" stroke="#000000" stroke-width="2" stroke-miterlimit="10" points="831.572,195.875 
	836.5,204.414 836.5,168 "/>
<line opacity="0.8" fill="none" stroke="#000000" stroke-width="2" stroke-miterlimit="10" x1="282.5" y1="326" x2="282.5" y2="363"/>
<polyline opacity="0.8" fill="none" stroke="#000000" stroke-width="2" stroke-miterlimit="10" points="282.572,353.969 
	287.5,362.601 287.5,326 "/>
<line opacity="0.8" fill="none" stroke="#000000" stroke-width="2" stroke-miterlimit="10" x1="242.5" y1="301" x2="242.5" y2="337"/>
<polyline opacity="0.8" fill="none" stroke="#000000" stroke-width="2" stroke-miterlimit="10" points="242.572,328.902 
	247.5,337.469 247.5,301 "/>
<polyline opacity="0.8" fill="none" stroke="#000000" stroke-width="2" stroke-miterlimit="10" points="863.33,192.34 
	870.389,188.397 864.151,182.237 "/>
<polyline opacity="0.8" fill="none" stroke="#000000" stroke-width="2" stroke-miterlimit="10" points="894.223,331.881 
	897.026,323 888.5,323 "/>
<polyline opacity="0.8" fill="none" stroke="#000000" stroke-width="2" stroke-miterlimit="10" points="943.959,334.265 
	939.057,325.303 948.862,323.722 "/>
<polyline opacity="0.8" fill="none" stroke="#000000" stroke-width="2" stroke-miterlimit="10" points="815.61,243.098 
	806.926,248.307 813.64,254.186 "/>
<polyline opacity="0.8" fill="none" stroke="#000000" stroke-width="2" stroke-miterlimit="10" points="898.771,212.421 
	894.15,204.447 887.559,211.682 "/>
<polyline opacity="0.8" fill="none" stroke="#000000" stroke-width="2" stroke-miterlimit="10" points="924.272,204.249 
	914.848,202.97 915.402,212.134 "/>
<polyline opacity="0.8" fill="none" stroke="#000000" stroke-width="2" stroke-miterlimit="10" points="935.114,164.497 
	931.603,172.909 940.781,174.353 "/>
<polyline opacity="0.8" fill="none" stroke="#000000" stroke-width="2" stroke-miterlimit="10" points="752.533,226.959 
	754.689,236.479 744.032,235.952 "/>
<polyline opacity="0.8" fill="none" stroke="#000000" stroke-width="2" stroke-miterlimit="10" points="518.537,213.448 
	518.455,201.949 506.711,205.728 "/>
<polyline opacity="0.8" fill="none" stroke="#000000" stroke-width="3" stroke-miterlimit="10" points="561.328,207.552 
	551.658,198.534 549.502,212.134 "/>
<polyline opacity="0.8" fill="none" stroke="#000000" stroke-width="2" stroke-miterlimit="10" points="578.494,245.809 
	582.853,255.449 571.76,255.665 "/>
<polyline opacity="0.8" fill="none" stroke="#000000" stroke-width="2" stroke-miterlimit="10" points="320.721,212.545 
	325.921,219.182 331.316,212.421 "/>
<polyline opacity="0.8" fill="none" stroke="#000000" stroke-width="2" stroke-miterlimit="10" points="362.157,239.155 
	353.964,243.821 361.5,249.012 "/>
<polyline opacity="0.8" fill="none" stroke="#000000" stroke-width="2" stroke-miterlimit="10" points="354.601,262.542 
	345.14,260.694 344.909,269.955 "/>
<polyline opacity="0.8" fill="none" stroke="#000000" stroke-width="2" stroke-miterlimit="10" points="303.761,270.365 
	312.713,266.999 313.945,276.279 "/>
<polyline opacity="0.8" fill="none" stroke="#000000" stroke-width="2" stroke-miterlimit="10" points="288.895,241.865 
	298.586,244.166 292.673,253.036 "/>
<polyline opacity="0.8" fill="none" stroke="#000000" stroke-width="2" stroke-miterlimit="10" points="361.007,348.639 
	351.5,350.896 356.243,359.315 "/>
<polyline opacity="0.8" fill="none" stroke="#000000" stroke-width="2" stroke-miterlimit="10" points="305.979,333.526 
	311.728,341.667 302.036,344.696 "/>
<polyline opacity="0.8" fill="none" stroke="#000000" stroke-width="2" stroke-miterlimit="10" points="637.835,222.77 
	634.94,233.522 645.228,232.379 "/>
<polyline opacity="0.8" fill="none" stroke="#000000" stroke-width="2" stroke-miterlimit="10" points="653.974,285.642 
	665.063,288.445 657.588,297.224 "/>
<polyline opacity="0.8" fill="none" stroke="#000000" stroke-width="2" stroke-miterlimit="10" points="715.573,285.971 
	707.114,291.146 714.341,297.798 "/>
<polyline opacity="0.8" fill="none" stroke="#000000" stroke-width="3" stroke-miterlimit="10" points="556.154,354.716 
	566.503,359.253 558.372,369.5 "/>
<polyline opacity="0.8" fill="none" stroke="#000000" stroke-width="2" stroke-miterlimit="10" points="623.914,354.962 
	615.229,360.171 622.682,366.789 "/>
<path opacity="0.8" fill="none" stroke="#000000" stroke-width="2" stroke-miterlimit="10" d="M871.079,167.324
	c94.76,10.504,30.368-29.33,26.341,30.462"/>
<path opacity="0.8" fill="none" stroke="#000000" stroke-width="2" stroke-miterlimit="10" d="M759.339,222.408
	c94.759,10.505,30.367-29.33,26.34,30.463"/>
<path opacity="0.8" fill="none" stroke="#000000" stroke-width="2" stroke-miterlimit="10" d="M511.356,166.131
	c94.76,10.503,30.368-29.33,26.341,30.461"/>
<path opacity="0.8" fill="none" stroke="#000000" stroke-width="2" stroke-miterlimit="10" d="M300.3,233.43
	c94.759,10.504,30.368-29.33,26.34,30.462"/>
<path opacity="0.8" fill="none" stroke="#000000" stroke-width="2" stroke-miterlimit="10" d="M577.127,236.715
	c94.76,10.504,30.367-29.33,26.341,30.462"/>
<path opacity="0.8" fill="none" stroke="#000000" stroke-width="2" stroke-miterlimit="10" d="M657.751,272.442
	c94.76,10.504,30.367-29.33,26.34,30.462"/>
<path opacity="0.8" fill="none" stroke="#000000" stroke-width="2" stroke-miterlimit="10" d="M891.347,304.229
	c94.76,10.503,30.368-29.331,26.341,30.461"/>
<path opacity="0.8" fill="none" stroke="#000000" stroke-width="2" stroke-miterlimit="10" d="M561.729,343.65
	c94.759,10.505,30.366-29.33,26.339,30.463"/>
<path opacity="0.8" fill="none" stroke="#000000" stroke-width="2" stroke-miterlimit="10" d="M308.853,324.925
	c94.76,10.504,30.368-29.33,26.34,30.462"/>
<polyline opacity="0.8" fill="none" stroke="#000000" stroke-width="2" stroke-miterlimit="10" points="806.5,232 806.5,210.03 
	804.5,214.037 802.5,210.03 802.5,232 "/>
<polyline opacity="0.8" fill="none" stroke="#000000" stroke-width="2" stroke-miterlimit="10" points="624.5,246 624.5,224.322 
	622,228.328 619.5,224.322 619.5,246 "/>
<polyline opacity="0.8" fill="none" stroke="#000000" stroke-width="2" stroke-miterlimit="10" points="938.5,313 938.5,291.835 
	936.5,295.841 934.5,291.835 934.5,313 "/>
<polyline opacity="0.8" fill="none" stroke="#000000" stroke-width="2" stroke-miterlimit="10" points="918.5,177 918.5,154.838 
	916,158.844 913.5,154.838 913.5,177 "/>
<polyline opacity="0.8" fill="none" stroke="#000000" stroke-width="2" stroke-miterlimit="10" points="705.5,282 705.5,259.803 
	703.5,263.81 701.5,259.803 701.5,282 "/>
<polyline fill="none" stroke="#000000" stroke-width="5" stroke-miterlimit="10" points="669.686,98.085 678,32.738 686.314,98.085 
	"/>
<line fill="none" stroke="#000000" stroke-width="5" stroke-miterlimit="10" x1="768.303" y1="18.219" x2="557.817" y2="147.233"/>
<polyline fill="none" stroke="#000000" stroke-width="5" stroke-miterlimit="10" points="577.127,147.793 557.71,147.677 
	564.201,129 "/>
</svg>
