<?xml version="1.0" encoding="utf-8"?>
<!-- Generator: Adobe Illustrator 16.0.0, SVG Export Plug-In . SVG Version: 6.00 Build 0)  -->
<!DOCTYPE svg PUBLIC "-//W3C//DTD SVG 1.1//EN" "http://www.w3.org/Graphics/SVG/1.1/DTD/svg11.dtd">
<svg version="1.1" id="Calque_1" xmlns="http://www.w3.org/2000/svg" xmlns:xlink="http://www.w3.org/1999/xlink" x="0px" y="0px"
	 width="1232.555px" height="506.396px" viewBox="0 -115.396 1232.555 506.396"
	 enable-background="new 0 -115.396 1232.555 506.396" xml:space="preserve">
<path fill="none" stroke="#000000" stroke-width="5" stroke-miterlimit="10" d="M652.689,282.714
	c931.652,262.151,577.867-678.512-9.53-128.701"/>
<polyline fill="none" stroke="#000000" stroke-width="5" stroke-miterlimit="10" points="720.007,130.995 641.533,156.096 
	672.037,82.468 "/>
<line fill="none" stroke="#000000" stroke-width="3" stroke-miterlimit="10" x1="1018" y1="-59" x2="1018" y2="24"/>
<line fill="none" stroke="#000000" stroke-width="3" stroke-miterlimit="10" x1="1029" y1="24" x2="1029" y2="-59"/>
<g>
	<path d="M1007.828,2.703c0.998,0.555,1.963,1.149,2.922,1.75c0.949,0.614,1.905,1.218,2.83,1.862
		c0.936,0.63,1.864,1.269,2.771,1.933c0.913,0.657,1.833,1.307,2.728,1.987l-1.583-0.07c2.463-1.849,4.975-3.626,7.524-5.347
		l0.912-0.615l0.847,0.67c2.649,2.096,5.258,4.246,7.773,6.514c0.632,0.563,1.27,1.12,1.883,1.707
		c0.616,0.583,1.245,1.151,1.852,1.747c1.214,1.19,2.425,2.384,3.566,3.668c-1.523-0.792-2.978-1.675-4.429-2.561
		c-0.727-0.442-1.431-0.913-2.146-1.368c-0.72-0.452-1.415-0.933-2.115-1.408c-2.815-1.884-5.537-3.888-8.218-5.944l1.759,0.055
		c-2.53,1.75-5.1,3.443-7.718,5.063l-0.886,0.549l-0.697-0.619c-0.841-0.746-1.657-1.521-2.479-2.29
		c-0.828-0.761-1.635-1.547-2.435-2.343c-0.812-0.782-1.59-1.603-2.377-2.414C1009.337,4.405,1008.566,3.574,1007.828,2.703z"/>
</g>
<path fill="none" stroke="#000000" stroke-width="3" stroke-miterlimit="10" d="M65.16,154.342c0,0,191.322-41.196,434.833,58.057"
	/>
<polyline fill="none" stroke="#000000" stroke-width="3" stroke-miterlimit="10" points="476.811,214.943 500.238,212.991 
	491.313,194.769 "/>
<path fill="none" stroke="#000000" stroke-width="3" stroke-miterlimit="10" d="M1116.04,180.813c0,0-212.658-94.127-449.72,22.661"
	/>
<polyline fill="none" stroke="#000000" stroke-width="3" stroke-miterlimit="10" points="689.5,204.5 666.076,204.5 
	673.512,185.907 "/>
<path fill="none" stroke="#000000" stroke-width="2" stroke-miterlimit="10" d="M1131.704,206.198
	c6.423-19.849,40.951-22.937,40.951-22.937s-40.591-13.114-37.888-33.922"/>
<path fill="none" stroke="#000000" stroke-width="2" stroke-miterlimit="10" d="M1143.412,167.4
	c-8.787,12.542-0.01,25.083-0.01,25.083"/>
<path fill="none" stroke="#000000" stroke-width="2" stroke-miterlimit="10" d="M1143.402,192.483c0,0,8.267-15.004,0.01-25.083"/>
<line fill="none" stroke="#000000" stroke-width="2" stroke-miterlimit="10" x1="261.5" y1="122" x2="261.5" y2="204"/>
<polyline fill="none" stroke="#000000" stroke-width="2" stroke-miterlimit="10" points="261.344,184.641 272.5,203.508 272.5,122 
	"/>
<line fill="none" stroke="#000000" stroke-width="2" stroke-miterlimit="10" x1="889.5" y1="115" x2="889.5" y2="198"/>
<polyline fill="none" stroke="#000000" stroke-width="2" stroke-miterlimit="10" points="889.344,177.795 900.5,196.814 900.5,115 
	"/>
<path fill="none" stroke="#000000" stroke-width="2" stroke-miterlimit="10" d="M50.378,182.771
	c-6.423-19.848-40.952-22.937-40.952-22.937s40.591-13.114,37.887-33.922"/>
<path fill="none" stroke="#000000" stroke-width="2" stroke-miterlimit="10" d="M38.67,143.973
	c8.787,12.542,0.01,25.083,0.01,25.083"/>
<path fill="none" stroke="#000000" stroke-width="2" stroke-miterlimit="10" d="M38.68,169.056c0,0-8.267-15.005-0.01-25.083"/>
<path fill="none" stroke="#000000" stroke-width="2" stroke-miterlimit="10" d="M525.08,214.723
	c214.516,23.778,68.746-66.398,59.628,68.959"/>
</svg>
