<?xml version="1.0" encoding="utf-8"?>
<!-- Generator: Adobe Illustrator 16.0.0, SVG Export Plug-In . SVG Version: 6.00 Build 0)  -->
<!DOCTYPE svg PUBLIC "-//W3C//DTD SVG 1.1//EN" "http://www.w3.org/Graphics/SVG/1.1/DTD/svg11.dtd">
<svg version="1.1" id="Calque_1" xmlns="http://www.w3.org/2000/svg" xmlns:xlink="http://www.w3.org/1999/xlink" x="0px" y="0px"
	 width="1232.555px" height="506.396px" viewBox="0 -115.396 1232.555 506.396"
	 enable-background="new 0 -115.396 1232.555 506.396" xml:space="preserve">
<path fill="none" stroke="#000000" stroke-width="3" stroke-miterlimit="10" d="M65.334,123.195c0,0,200.25-43.118,455.123,60.766"
	/>
<polyline fill="none" stroke="#000000" stroke-width="3" stroke-miterlimit="10" points="496.192,186.625 520.713,184.581 
	511.372,165.509 "/>
<path fill="none" stroke="#000000" stroke-width="3" stroke-miterlimit="10" d="M1165.25,150.902c0,0-222.581-98.52-470.704,23.718"
	/>
<polyline fill="none" stroke="#000000" stroke-width="3" stroke-miterlimit="10" points="718.628,175.24 694.29,175.24 
	701.984,155.779 "/>
<path fill="none" stroke="#000000" stroke-width="2" stroke-miterlimit="10" d="M1181.645,177.472
	c6.723-20.775,42.863-24.008,42.863-24.008s-42.485-13.726-39.655-35.503"/>
<path fill="none" stroke="#000000" stroke-width="2" stroke-miterlimit="10" d="M1193.898,136.863
	c-9.195,13.127-0.009,26.254-0.009,26.254"/>
<path fill="none" stroke="#000000" stroke-width="2" stroke-miterlimit="10" d="M1193.89,163.117c0,0,8.65-15.705,0.009-26.254"/>
<path fill="none" stroke="#000000" stroke-width="2" stroke-miterlimit="10" d="M549.565,188.195
	c224.525,24.889,71.954-69.495,62.411,72.179"/>
<line fill="none" stroke="#000000" stroke-width="2" stroke-miterlimit="10" x1="252.156" y1="89.418" x2="252.156" y2="175.824"/>
<polyline fill="none" stroke="#000000" stroke-width="2" stroke-miterlimit="10" points="252.156,155.529 263.833,175.824 
	263.833,89.418 "/>
<line fill="none" stroke="#000000" stroke-width="2" stroke-miterlimit="10" x1="929.387" y1="81.245" x2="929.387" y2="167.65"/>
<polyline fill="none" stroke="#000000" stroke-width="2" stroke-miterlimit="10" points="929.387,147.355 941.063,167.65 
	941.063,81.245 "/>
<path fill="none" stroke="#000000" stroke-width="2" stroke-miterlimit="10" d="M49.863,152.951C43.14,132.177,7,128.943,7,128.943
	s42.485-13.725,39.655-35.503"/>
<path fill="none" stroke="#000000" stroke-width="2" stroke-miterlimit="10" d="M37.608,112.342
	c9.196,13.127,0.011,26.254,0.011,26.254"/>
<path fill="none" stroke="#000000" stroke-width="2" stroke-miterlimit="10" d="M37.619,138.597c0,0-8.652-15.705-0.011-26.254"/>
</svg>
