<?xml version="1.0" encoding="utf-8"?>
<!-- Generator: Adobe Illustrator 16.0.0, SVG Export Plug-In . SVG Version: 6.00 Build 0)  -->
<!DOCTYPE svg PUBLIC "-//W3C//DTD SVG 1.1//EN" "http://www.w3.org/Graphics/SVG/1.1/DTD/svg11.dtd">
<svg version="1.1" id="Calque_1" xmlns="http://www.w3.org/2000/svg" xmlns:xlink="http://www.w3.org/1999/xlink" x="0px" y="0px"
	 width="341px" height="376px" viewBox="0 0 341 376" enable-background="new 0 0 341 376" xml:space="preserve">
<circle fill="#FFFFD2" stroke="#000000" stroke-miterlimit="10" cx="173.09" cy="22.03" r="19.03"/>
<path fill="#0000FF" stroke="#000000" stroke-miterlimit="10" d="M194.729,78.592h-43.273c0,0,2.489-37.799,21.637-37.799
	C192.238,40.793,194.729,78.592,194.729,78.592z"/>
<circle fill="#FFFFD2" stroke="#000000" stroke-miterlimit="10" cx="114.175" cy="103.702" r="19.03"/>
<path fill="#FF0000" stroke="#000000" stroke-miterlimit="10" d="M135.812,160.592H92.538c0,0,2.488-37.799,21.637-37.799
	C133.324,122.793,135.812,160.592,135.812,160.592z"/>
<circle fill="#FFFFD2" stroke="#000000" stroke-miterlimit="10" cx="175.697" cy="103.702" r="19.03"/>
<path fill="#FF0000" stroke="#000000" stroke-miterlimit="10" d="M197.334,160.592H154.06c0,0,2.489-37.799,21.637-37.799
	S197.334,160.592,197.334,160.592z"/>
<circle fill="#FFFFD2" stroke="#000000" stroke-miterlimit="10" cx="235.134" cy="103.702" r="19.03"/>
<path fill="#FF0000" stroke="#000000" stroke-miterlimit="10" d="M256.771,160.592h-43.273c0,0,2.488-37.799,21.637-37.799
	C254.281,122.793,256.771,160.592,256.771,160.592z"/>
<circle fill="#FFFFD2" stroke="#000000" stroke-miterlimit="10" cx="175.005" cy="315.731" r="19.03"/>
<path fill="#0000FF" stroke="#000000" stroke-miterlimit="10" d="M196.643,373h-43.273c0,0,2.489-37.799,21.638-37.799
	C194.152,335.201,196.643,373,196.643,373z"/>
<circle fill="#FFFFD2" stroke="#000000" stroke-miterlimit="10" cx="112.961" cy="233.875" r="19.031"/>
<path fill="#FF0000" stroke="#000000" stroke-miterlimit="10" d="M134.598,291H91.324c0,0,2.489-37.8,21.637-37.8
	S134.598,291,134.598,291z"/>
<circle fill="#FFFFD2" stroke="#000000" stroke-miterlimit="10" cx="173.439" cy="233.875" r="19.029"/>
<path fill="#FF0000" stroke="#000000" stroke-miterlimit="10" d="M195.078,291h-43.274c0,0,2.488-37.8,21.637-37.8
	C192.59,253.2,195.078,291,195.078,291z"/>
<circle fill="#FFFFD2" stroke="#000000" stroke-miterlimit="10" cx="233.92" cy="233.875" r="19.029"/>
<path fill="#FF0000" stroke="#000000" stroke-miterlimit="10" d="M255.559,291h-43.274c0,0,2.487-37.8,21.638-37.8
	S255.559,291,255.559,291z"/>
<line fill="none" stroke="#000000" stroke-width="2" stroke-miterlimit="10" x1="119" y1="191" x2="224" y2="191"/>
<path fill="none" stroke="#000000" stroke-width="4" stroke-miterlimit="10" d="M50.567,106.146c0,0-88.07,81.595,0,177.268"/>
<polyline fill="none" stroke="#000000" stroke-width="4" stroke-miterlimit="10" points="25.141,113.284 51.513,103.728 
	50.593,133.524 "/>
<path fill="none" stroke="#000000" stroke-width="4" stroke-miterlimit="10" d="M293.525,281.916c0,0,88.07-81.596,0-177.267"/>
<polyline fill="none" stroke="#000000" stroke-width="4" stroke-miterlimit="10" points="318.953,274.777 292.58,284.334 
	293.5,254.538 "/>
</svg>
